<svg width="130" height="95" viewBox="0 0 130 95" fill="none" xmlns="http://www.w3.org/2000/svg">
<g clip-path="url(#clip0)">
<rect width="130" height="95" fill="white"/>
<path opacity="0.1" d="M106.458 52.1336C102.919 56.945 104.294 63.974 106.543 69.6032C107.295 71.488 108.147 73.482 107.829 75.5032C107.441 77.9748 105.378 79.782 103.213 80.7399C99.2648 82.4859 94.5407 82.0698 90.9132 79.6565C87.7784 77.5709 85.5334 74.1793 82.3451 72.1887C77.0095 68.8573 70.2181 70.1153 64.4243 72.4101C60.3254 74.0336 55.8441 76.1449 51.7711 74.4483C48.9051 73.2544 46.9241 70.3486 45.8447 67.2686C45.3236 65.7815 44.9453 64.1718 43.9502 62.9931C43.3585 62.2923 42.5864 61.7949 41.7955 61.3755C34.5729 57.5457 25.4509 59.5966 18.4357 55.3489C13.6979 52.4801 10.6647 47.0687 9.32175 41.426C7.97877 35.7832 8.1352 29.8665 8.47617 24.0553C8.71849 19.9255 9.15324 15.5166 11.6206 12.3292C14.2308 8.95749 18.7104 7.70373 22.7593 8.34459C26.8083 8.98545 30.4783 11.2696 33.7071 13.9599C37.7423 17.3223 41.4846 21.5092 46.4389 22.8712C49.8129 23.7987 53.3621 23.2913 56.8419 23.1156C62.6593 22.8219 68.479 23.4751 74.2644 24.1904C79.8028 24.8751 85.3813 25.6287 90.6575 27.5555C94.3914 28.9191 97.3848 31.3942 100.91 33.1234C103.209 34.2505 105.715 34.5618 107.891 35.9974C110.571 37.7659 113.028 40.8419 112.342 44.4413C111.689 47.8635 108.336 49.5799 106.458 52.1336Z" fill="#FF4D85"/>
<path opacity="0.1" d="M2.6382 63.9638C2.6382 63.9638 22.9871 58.2557 49.3405 72.7638C75.694 87.2718 104.494 61.3476 103.938 57.4233C103.382 53.499 123.063 57.4233 123.063 57.4233V92.5042H2.6382V63.9638Z" fill="#FF4D85"/>
<path d="M16.8024 11.8289C19.8567 11.8289 22.3327 9.18092 22.3327 5.91446C22.3327 2.64799 19.8567 0 16.8024 0C13.748 0 11.272 2.64799 11.272 5.91446C11.272 9.18092 13.748 11.8289 16.8024 11.8289Z" fill="#FFDF9C"/>
<path d="M55.5937 30.2211L54.693 36.2132C54.693 36.2132 53.567 40.1681 53.6796 42.0855C53.7922 44.003 53.6796 46.6396 53.6796 46.6396C53.6796 46.6396 50.9773 51.9127 53.2292 54.0699C55.4811 56.2271 56.1567 47.2388 56.1567 47.2388C56.1567 47.2388 55.8189 43.4038 56.6071 41.3665C57.3953 39.3292 57.5079 34.8949 57.5079 34.8949L55.5937 30.2211Z" fill="#FFCDD3"/>
<path opacity="0.05" d="M55.5937 30.2211L54.693 36.2132C54.693 36.2132 53.567 40.1681 53.6796 42.0855C53.7922 44.003 53.6796 46.6396 53.6796 46.6396C53.6796 46.6396 50.9773 51.9127 53.2292 54.0699C55.4811 56.2271 56.1567 47.2388 56.1567 47.2388C56.1567 47.2388 55.8189 43.4038 56.6071 41.3665C57.3953 39.3292 57.5079 34.8949 57.5079 34.8949L55.5937 30.2211Z" fill="black"/>
<path d="M68.7861 50.8265L70.3437 57.066L71.8074 64.3764C71.8074 64.3764 72.5956 65.9344 71.8074 69.1701L74.3971 78.1584C74.3971 78.1584 75.8609 83.9109 76.7616 84.0307C77.6624 84.1506 75.8609 88.5848 75.8609 88.5848L73.3838 87.0268C73.3838 87.0268 72.7082 83.4315 71.8074 82.5926C70.9067 81.7537 67.9792 73.3647 67.9792 73.3647L67.0784 67.4923C67.0784 67.4923 64.2635 59.4628 61.7864 57.5453C59.3093 55.6278 58.5211 52.5119 58.5211 52.5119L68.7861 50.8265Z" fill="#FFCDD3"/>
<path opacity="0.05" d="M58.5212 52.5119C58.5212 52.5119 59.3094 55.6279 61.7865 57.5454C64.2636 59.4628 67.0785 67.4924 67.0785 67.4924L67.9792 73.3647C67.9792 73.3647 70.9067 81.7537 71.8075 82.5926C72.4684 83.2086 73.0089 85.3095 73.2487 86.3833C73.3366 86.7727 73.3838 87.0268 73.3838 87.0268L75.8609 88.5848C75.8609 88.5848 77.6625 84.1506 76.7617 84.0307C76.6221 84.0127 76.469 83.8582 76.3091 83.6113C75.4421 82.2666 74.3972 78.1584 74.3972 78.1584L71.8075 69.1701C72.5957 65.9344 71.8075 64.3764 71.8075 64.3764L70.3438 57.066L68.7865 50.8269L58.5212 52.5119Z" fill="black"/>
<path d="M44.1089 83.6712L45.0096 85.9482L49.0631 85.4688C48.9383 84.8501 48.8689 84.2201 48.8559 83.5873C48.8199 82.2271 49.0158 80.3911 50.0765 78.9973C51.9906 76.4806 54.9181 70.2487 54.9181 70.2487C54.9181 70.2487 57.8456 66.8931 58.5212 65.5748L64.1577 55.5116L63.9821 54.6092L65.5021 53.1111H56.044L53.7921 62.4589L51.9906 66.2939C51.9906 66.2939 48.1623 69.7694 46.6986 77.0798C46.6986 77.0798 45.2382 81.9502 44.3082 83.4039C44.2501 83.4998 44.1833 83.5893 44.1089 83.6712V83.6712Z" fill="#FFCDD3"/>
<path opacity="0.1" d="M73.2487 86.3832C73.3366 86.7727 73.3838 87.0268 73.3838 87.0268L75.861 88.5848C75.861 88.5848 77.6625 84.1506 76.7617 84.0307C76.6221 84.0127 76.469 83.8581 76.3091 83.6113C76.1922 83.6858 76.1009 83.7988 76.0489 83.9333C75.997 84.0679 75.9871 84.2168 76.0208 84.3579C76.0562 84.5369 76.1161 84.7094 76.1988 84.8696C76.5365 85.4688 75.0728 86.4276 75.0728 86.4276C74.5796 87.1023 73.7791 86.7464 73.2487 86.3832Z" fill="black"/>
<path d="M76.1334 84.5975C75.979 83.9062 76.7911 83.4428 77.2472 83.9617C77.3633 84.0915 77.4649 84.2353 77.55 84.3903C78.0003 85.2292 81.3782 85.9482 82.0538 85.7086C82.7294 85.4689 85.0939 85.2292 84.5309 87.0268C83.9679 88.8245 73.8343 91.461 73.8343 91.461C73.8343 91.461 72.7083 89.7832 72.8209 88.5848C72.8864 87.7874 72.8864 86.9854 72.8209 86.1879C72.8209 86.1879 74.3973 87.7459 75.1854 86.6673C75.1854 86.6673 76.6492 85.7086 76.3114 85.1093C76.2287 84.9491 76.1688 84.7766 76.1334 84.5975V84.5975Z" fill="#DCE6F2"/>
<path opacity="0.1" d="M44.1089 83.6712L45.0096 85.9482L49.0631 85.4689C48.9383 84.8501 48.8689 84.2201 48.8559 83.5873C48.8157 83.5015 48.7567 83.4273 48.6838 83.3712C48.611 83.3151 48.5265 83.2787 48.4376 83.2652C48.3487 83.2516 48.2581 83.2613 48.1735 83.2934C48.0889 83.3255 48.0128 83.3791 47.9518 83.4495C47.7424 83.6892 47.5307 83.942 47.3742 84.1506C46.9238 84.7498 45.46 84.3903 45.46 84.3903C45.0806 84.5245 44.6302 83.942 44.3082 83.4039C44.2501 83.4998 44.1833 83.5893 44.1089 83.6712V83.6712Z" fill="black"/>
<path d="M47.8388 83.6892C47.906 83.6113 47.9916 83.5541 48.0866 83.5236C48.1815 83.4931 48.2824 83.4904 48.3787 83.5158C48.475 83.5412 48.5631 83.5938 48.6339 83.668C48.7047 83.7423 48.7556 83.8355 48.7812 83.9379C48.9861 84.7901 49.4355 85.891 50.4142 86.3077C52.1032 87.0268 54.4677 88.2252 53.6795 89.3038C52.8913 90.3824 50.189 91.3412 47.8245 90.5023C45.46 89.6634 42.0822 87.626 42.0822 87.626L43.7711 82.8323C43.7711 82.8323 44.6719 84.8696 45.3474 84.6299C45.3474 84.6299 46.8112 84.9895 47.2616 84.3903C47.4184 84.1816 47.6298 83.9294 47.8388 83.6892Z" fill="#DCE6F2"/>
<path d="M63.1376 16.3192C63.1376 16.3192 60.4353 20.2741 61.1109 23.0305C61.7865 25.7869 55.7063 21.2328 55.7063 21.2328C55.7063 21.2328 58.859 18.2367 58.296 13.3232L63.1376 16.3192Z" fill="#FFCDD3"/>
<path d="M54.2426 53.8302C58.7464 56.7064 64.151 55.508 64.151 55.508L64.0384 54.6691C64.1173 54.6775 64.1961 54.6859 64.2727 54.693C68.5772 55.0981 69.5556 53.7103 69.5556 53.7103C68.8823 51.6958 68.3543 47.4245 68.0255 44.1229C67.9782 43.6483 67.9354 43.1941 67.896 42.7686C67.807 41.8063 67.7406 40.9962 67.6978 40.4485C67.6606 39.9667 67.6415 39.6887 67.6415 39.6887L67.1911 36.0934C67.1911 36.0934 65.9526 31.779 66.5156 28.9028C66.995 26.4531 65.4326 25.5682 64.9587 25.3596C64.8843 25.329 64.8077 25.3048 64.7297 25.2872C64.1121 25.1314 63.4244 24.4594 62.8393 23.7387C61.9864 22.6989 60.8993 21.9094 59.681 21.4449C59.1146 21.2256 58.6338 20.9931 58.6338 20.9931C57.8457 20.0344 55.7064 20.6336 55.7064 20.6336C53.1166 22.4312 54.4678 28.3036 54.4678 28.3036L55.5442 31.5777C56.1444 33.4005 56.999 35.107 57.9853 36.7285C59.6404 39.4466 57.3953 43.1641 57.3953 43.1641C53.9048 46.1602 54.2426 53.8302 54.2426 53.8302Z" fill="#FF8AA1"/>
<path opacity="0.05" d="M63.8695 48.2575L64.2726 54.6931C68.5771 55.0981 69.5556 53.7104 69.5556 53.7104C68.8823 51.6958 68.3542 47.4246 68.0254 44.1229C67.9781 43.6483 67.9353 43.1941 67.8959 42.7687L63.8695 48.2575Z" fill="black"/>
<path opacity="0.1" d="M56.7196 31.4195C56.7196 31.4195 58.7463 35.4942 59.4219 37.2918C60.0974 39.0895 60.0974 38.4903 60.4352 39.0895C60.773 39.6887 64.376 42.3252 64.376 42.3252L68.0252 44.1229C67.871 42.5745 67.7595 41.2383 67.6976 40.4485L64.2635 38.0109C64.2635 38.0109 61.8989 36.4529 61.7864 34.4156C61.6738 32.3783 60.21 28.6631 60.21 28.6631C60.21 28.6631 57.2826 25.3075 56.044 26.8655C54.8055 28.4234 56.7196 31.4195 56.7196 31.4195Z" fill="black"/>
<path d="M60.2101 28.0639C60.2101 28.0639 61.6738 31.779 61.7864 33.8164C61.899 35.8537 64.2635 37.4117 64.2635 37.4117L71.6948 42.6848C71.6948 42.6848 78.1128 44.9618 75.9735 47.5984C73.8342 50.2349 70.4563 44.7221 70.4563 44.7221L64.3761 41.726C64.3761 41.726 60.773 39.0895 60.4353 38.4903C60.0975 37.891 60.0975 38.4903 59.4219 36.6926C58.7463 34.895 56.7196 30.8203 56.7196 30.8203C56.7196 30.8203 54.8055 27.8242 56.044 26.2662C57.2826 24.7083 60.2101 28.0639 60.2101 28.0639Z" fill="#FFCDD3"/>
<path opacity="0.1" d="M61.1109 29.6219C61.1109 29.6219 58.859 27.8242 58.4086 27.225C58.2098 26.9605 57.9012 26.9996 57.6186 27.1257C57.0911 27.3663 56.5172 27.4671 55.9455 27.4197C55.4529 27.3748 54.9744 27.4047 55.0307 27.7044C55.1433 28.3036 54.6929 24.5884 54.6929 24.5884L56.607 23.8694L59.0842 25.3075L61.1109 29.6219Z" fill="black"/>
<path d="M61.1109 29.3822C61.1109 29.3822 58.859 27.5845 58.4086 26.9853C58.2098 26.7208 57.9012 26.7599 57.6186 26.8861C57.0911 27.1266 56.5172 27.2274 55.9455 27.18C55.4529 27.1351 54.9744 27.1651 55.0307 27.4647C55.1433 28.0639 54.6929 24.3487 54.6929 24.3487L56.607 23.6297L59.0842 25.0678L61.1109 29.3822Z" fill="#FF8AA1"/>
<path opacity="0.1" d="M66.4134 29.6218C66.0069 29.8116 65.5637 29.8943 65.121 29.863C64.6784 29.8317 64.2492 29.6874 63.8695 29.4421" fill="black"/>
<path opacity="0.1" d="M59.0279 13.6228C59.1121 12.9064 58.2786 14.3942 58.1834 13.5628L63.025 16.5589C63.025 16.5589 62.7487 16.964 62.3951 17.6036C62.2117 17.6259 62.0273 17.6372 61.8428 17.6375C60.3861 17.6375 59.925 14.6971 59.0279 13.6228Z" fill="black"/>
<path d="M61.9554 17.3978C64.6605 17.3978 66.8533 15.0638 66.8533 12.1847C66.8533 9.30549 64.6605 6.97147 61.9554 6.97147C59.2504 6.97147 57.0575 9.30549 57.0575 12.1847C57.0575 15.0638 59.2504 17.3978 61.9554 17.3978Z" fill="#FFCDD3"/>
<path opacity="0.1" d="M64.1528 12.2757C64.116 12.6029 64.1229 12.9489 63.9766 13.2394C63.7718 13.6462 63.3302 13.8313 62.9611 14.0733C61.4649 15.0543 61.021 17.2615 61.4978 19.0618C61.6665 19.6989 61.9325 20.3454 61.822 20.9967C61.6321 22.116 60.4342 22.6963 59.3696 22.7957C58.3051 22.8951 57.1906 22.7115 56.195 23.1248C54.5229 23.8191 53.7866 25.9065 52.3652 27.073C50.712 28.4297 48.4349 28.3457 46.3525 28.5027C45.5826 28.5608 44.8013 28.6594 44.045 28.4955C43.2887 28.3316 42.5424 27.8462 42.2752 27.0755C41.8983 25.988 42.5848 24.8088 43.3823 24.0194C44.1797 23.23 45.153 22.564 45.6045 21.5091C46.2114 20.0912 45.7208 18.3003 46.4842 16.9708C46.623 16.701 46.8413 16.488 47.1052 16.3648C47.4414 16.2303 47.8145 16.3232 48.1735 16.3363C49.564 16.3872 50.7499 15.2066 51.3958 13.895C52.0417 12.5833 52.3161 11.0986 52.9067 9.75775C53.5751 8.24031 54.6889 6.90115 56.1367 6.24252C56.985 5.85666 57.9108 5.71495 58.7965 5.4404C59.8032 5.12833 60.7642 4.64258 61.7954 4.44032C62.8266 4.23805 63.9947 4.37156 64.7487 5.14717C65.4583 5.87717 65.6652 7.02263 66.3435 7.78558C66.5998 8.07396 66.929 8.31786 67.0524 8.69251C67.3447 9.58009 65.9265 9.65495 65.4535 10.0103C65.1021 10.2713 64.805 10.6073 64.5812 10.9972C64.3573 11.3871 64.2115 11.8224 64.1528 12.2757V12.2757Z" fill="black"/>
<path d="M63.9276 12.1558C63.8908 12.4831 63.8977 12.829 63.7514 13.1196C63.5466 13.5263 63.105 13.7114 62.7358 13.9535C61.2396 14.9345 60.7958 17.1417 61.2726 18.942C61.4413 19.579 61.7073 20.2255 61.5968 20.8768C61.4068 21.9962 60.209 22.5764 59.1444 22.6758C58.0798 22.7753 56.9654 22.5916 55.9698 23.005C54.2977 23.6992 53.5614 25.7866 52.14 26.9531C50.4868 28.3099 48.2096 28.2258 46.1273 28.3828C45.3574 28.4409 44.5761 28.5396 43.8198 28.3756C43.0634 28.2117 42.3171 27.7264 42.05 26.9556C41.673 25.8681 42.3596 24.689 43.157 23.8996C43.9544 23.1101 44.9278 22.4441 45.3792 21.3893C45.9861 19.9713 45.4955 18.1804 46.259 16.8509C46.3978 16.5812 46.6161 16.3681 46.8799 16.2449C47.2162 16.1105 47.5893 16.2034 47.9482 16.2165C49.3388 16.2674 50.5246 15.0868 51.1705 13.7751C51.8164 12.4635 52.0908 10.9788 52.6814 9.6379C53.3498 8.12046 54.4636 6.78131 55.9115 6.12268C56.7597 5.73682 57.6856 5.59511 58.5712 5.32056C59.5779 5.00849 60.539 4.52274 61.5702 4.32047C62.6013 4.11821 63.7695 4.25172 64.5234 5.02732C65.233 5.75733 65.4399 6.90278 66.1182 7.66574C66.3746 7.95411 66.7038 8.19802 66.8272 8.57267C67.1195 9.46024 65.7013 9.53511 65.2283 9.89047C64.8768 10.1514 64.5798 10.4875 64.3559 10.8774C64.1321 11.2673 63.9862 11.7026 63.9276 12.1558V12.1558Z" fill="#FF4D85"/>
<path d="M6.69683 92.5637C6.69683 92.5637 3.02736 85.5475 7.58639 79.9583C12.1454 74.3692 17.4828 77.461 17.4828 77.461C17.4828 77.461 24.1546 80.7907 22.5978 88.7583C22.5978 88.7583 21.7083 92.8015 19.0396 92.5637H6.69683Z" fill="#FF4D85"/>
<path opacity="0.2" d="M6.69683 92.5637C6.69683 92.5637 3.02736 85.5475 7.58639 79.9583C12.1454 74.3692 17.4828 77.461 17.4828 77.461C17.4828 77.461 24.1546 80.7907 22.5978 88.7583C22.5978 88.7583 21.7083 92.8015 19.0396 92.5637H6.69683Z" fill="white"/>
<path d="M12.4605 92.5738L16.4821 79.4826" stroke="#535461" stroke-miterlimit="10"/>
<path d="M20.1516 81.5043C20.1516 81.5043 18.081 80.4624 16.0028 81.0428C16.0028 81.0428 14.9253 78.1746 12.479 77.6989" stroke="#535461" stroke-miterlimit="10"/>
<path d="M21.1523 86.0231C21.1523 86.0231 17.6315 83.3017 15.0553 84.1273C15.0553 84.1273 12.1455 80.434 10.1439 80.6718" stroke="#535461" stroke-miterlimit="10"/>
<path d="M20.3739 90.8988C20.3739 90.8988 17.3646 88.5712 13.6431 88.7242C13.6431 88.7242 10.8111 85.0718 8.1424 84.834" stroke="#535461" stroke-miterlimit="10"/>
<path d="M14.067 92.5737C13.6057 92.3409 13.1244 92.1564 12.6297 92.0229C12.6297 92.0229 10.3107 88.7979 5.66829 89.8484" stroke="#535461" stroke-miterlimit="10"/>
<path d="M46.3938 92.5637C46.3938 92.5637 50.0632 86.1421 40.9452 76.6286C31.8271 67.1151 32.3831 65.3314 33.1615 63.9043C33.1615 63.9043 25.8225 64.8557 27.3793 76.6286C28.936 88.4015 35.6078 92.5637 35.6078 92.5637H46.3938Z" fill="#FF4D85"/>
<path d="M41.2231 92.5637C41.2231 92.5637 38.4988 84.1205 34.3846 79.007C30.2703 73.8935 31.0487 65.4503 33.1614 63.9043" stroke="#535461" stroke-width="2" stroke-miterlimit="10"/>
<path d="M106.464 16.5025C104.825 18.2809 104.718 21.0089 104.718 21.0089C104.718 21.0089 107.267 20.8536 108.905 19.0752C110.544 17.2969 110.652 14.5688 110.652 14.5688C110.652 14.5688 108.103 14.7241 106.464 16.5025Z" fill="#FF4D85"/>
<path d="M8.94539 43.6159C7.30676 45.3943 7.19904 48.1223 7.19904 48.1223C7.19904 48.1223 9.74805 47.967 11.3867 46.1886C13.0253 44.4103 13.133 41.6822 13.133 41.6822C13.133 41.6822 10.584 41.8375 8.94539 43.6159Z" fill="#FC6681"/>
<path d="M100.237 49.4429C98.5985 51.2212 98.4908 53.9493 98.4908 53.9493C98.4908 53.9493 101.04 53.794 102.678 52.0156C104.317 50.2372 104.425 47.5092 104.425 47.5092C104.425 47.5092 101.876 47.6645 100.237 49.4429Z" fill="#FF4D85"/>
<path d="M19.9357 47.4882C17.7764 46.5389 15.3744 47.4644 15.3744 47.4644C15.3744 47.4644 16.4733 49.9291 18.6325 50.8784C20.7918 51.8277 23.1938 50.9021 23.1938 50.9021C23.1938 50.9021 22.0949 48.4375 19.9357 47.4882Z" fill="#FF4D85"/>
<path d="M47.0857 43.9225C45.8377 41.8125 43.3776 41.0818 43.3776 41.0818C43.3776 41.0818 42.9412 43.7721 44.1893 45.8821C45.4374 47.992 47.8974 48.7227 47.8974 48.7227C47.8974 48.7227 48.3338 46.0324 47.0857 43.9225Z" fill="#FFD037"/>
<path d="M77.2097 53.675C77.7421 53.675 78.1737 53.2134 78.1737 52.6441C78.1737 52.0747 77.7421 51.6132 77.2097 51.6132C76.6774 51.6132 76.2458 52.0747 76.2458 52.6441C76.2458 53.2134 76.6774 53.675 77.2097 53.675Z" fill="#FC6681"/>
<path d="M79.4589 64.6713C79.9913 64.6713 80.4229 64.2098 80.4229 63.6404C80.4229 63.0711 79.9913 62.6095 79.4589 62.6095C78.9265 62.6095 78.495 63.0711 78.495 63.6404C78.495 64.2098 78.9265 64.6713 79.4589 64.6713Z" fill="#FC6681"/>
<path d="M59.1257 66.9962C59.1257 66.9962 55.4563 62.5963 54.1219 68.0665C52.7876 73.5367 52.0092 74.2502 49.3405 72.8232C46.6718 71.3962 43.8919 78.1745 50.4524 83.0502C57.013 87.9258 53.3435 92.742 53.3435 92.742H76.8059C76.8059 92.742 79.9193 83.0502 73.1364 79.7205C66.3534 76.3908 66.5758 73.8935 66.7982 70.5638C67.0206 67.2341 59.1257 66.9962 59.1257 66.9962Z" fill="#FF4D85"/>
<path d="M56.0122 65.323C56.0122 65.323 71.2459 86.7961 66.0198 92.742" stroke="#535461" stroke-width="2" stroke-miterlimit="10"/>
<path d="M52.0735 73.1691C52.0735 73.1691 55.6787 76.4502 61.5721 74.7854C67.4654 73.1205 66.0123 68.8495 66.0123 68.8495" stroke="#535461" stroke-width="2" stroke-miterlimit="10"/>
<path d="M76.7446 83.5488C76.7446 83.5488 68.9018 79.4809 64.9589 80.998C54.6931 84.9479 47.0609 74.3097 47.0609 74.3097" stroke="#535461" stroke-width="2" stroke-miterlimit="10"/>
<path d="M53.9551 92.5637C53.9551 92.5637 58.7365 88.7583 52.7319 75.4394C52.7319 75.4394 44.7259 64.8557 52.7319 54.8665C52.7319 54.8665 35.2742 55.3422 35.6078 72.7043C35.9414 90.0664 44.3367 92.5637 44.3367 92.5637H53.9551Z" fill="#FF4D85"/>
<path d="M49.4887 92.5637C49.4887 92.5637 48.2841 83.4069 45.0594 77.8178C44.4231 76.6885 43.9653 75.4547 43.7045 74.166C42.6265 69.0966 44.1632 63.7953 47.645 60.1673L52.7319 54.8665" stroke="#535461" stroke-width="2" stroke-miterlimit="10"/>
<path opacity="0.1" d="M53.9551 92.5637C53.9551 92.5637 58.7365 88.7583 52.7319 75.4394C52.7319 75.4394 44.7259 64.8557 52.7319 54.8665C52.7319 54.8665 35.2742 55.3422 35.6078 72.7043C35.9414 90.0664 44.3367 92.5637 44.3367 92.5637H53.9551Z" fill="black"/>
<path d="M96.8144 92.4589C96.8144 92.4589 80.4527 88.547 101.271 65.656C101.271 65.656 110.245 74.7518 106.953 86.059C105.629 90.6052 101.371 93.4119 97.0582 92.5126C96.9775 92.4958 96.8962 92.4779 96.8144 92.4589Z" fill="#FF4D85"/>
<path opacity="0.4" d="M96.8144 92.4589C96.4551 92.373 80.805 88.1595 101.271 65.656C101.271 65.656 110.245 74.7518 106.953 86.059C105.629 90.6052 101.371 93.4119 97.0582 92.5126C96.9775 92.4958 96.8962 92.4779 96.8144 92.4589Z" fill="white"/>
<path d="M97.0293 92.589C97.0293 92.589 105.671 78.6655 101.271 65.656" stroke="#535461" stroke-miterlimit="10"/>
<path d="M29.096 92.4589C29.096 92.4589 12.7343 88.547 33.5524 65.656C33.5524 65.656 42.5265 74.7518 39.2343 86.059C37.9106 90.6052 33.6525 93.4119 29.3399 92.5126C29.2591 92.4958 29.1779 92.4779 29.096 92.4589Z" fill="#FF4D85"/>
<path opacity="0.4" d="M29.0961 92.4589C28.7368 92.373 13.0867 88.1595 33.5525 65.656C33.5525 65.656 42.5265 74.7518 39.2343 86.059C37.9107 90.6052 33.6526 93.4119 29.3399 92.5126C29.2592 92.4958 29.1779 92.4779 29.0961 92.4589Z" fill="white"/>
<path d="M29.3108 92.589C29.3108 92.589 37.9529 78.6655 33.5524 65.656" stroke="#535461" stroke-miterlimit="10"/>
<path d="M65.6795 92.4589C65.6795 92.4589 49.3177 88.547 70.1359 65.656C70.1359 65.656 79.1099 74.7518 75.8178 86.059C74.4941 90.6052 70.236 93.4119 65.9234 92.5126C65.8426 92.4958 65.7613 92.4779 65.6795 92.4589Z" fill="#FF4D85"/>
<path opacity="0.4" d="M65.6795 92.4589C65.3202 92.373 49.6701 88.1595 70.1359 65.656C70.1359 65.656 79.1099 74.7518 75.8177 86.059C74.4941 90.6052 70.236 93.4119 65.9234 92.5126C65.8426 92.4958 65.7613 92.4779 65.6795 92.4589Z" fill="white"/>
<path d="M65.8943 92.589C65.8943 92.589 74.5364 78.6655 70.1359 65.656" stroke="#535461" stroke-miterlimit="10"/>
<path d="M115.94 92.4589C115.94 92.4589 99.5785 88.547 120.396 65.656C120.396 65.656 129.37 74.7518 126.078 86.059C124.755 90.6052 120.497 93.4119 116.184 92.5126C116.103 92.4958 116.022 92.4779 115.94 92.4589Z" fill="#FF4D85"/>
<path opacity="0.4" d="M115.94 92.4589C115.581 92.373 99.9307 88.1595 120.396 65.656C120.396 65.656 129.37 74.7518 126.078 86.059C124.755 90.6052 120.497 93.4119 116.184 92.5126C116.103 92.4958 116.022 92.4779 115.94 92.4589Z" fill="white"/>
<path d="M116.155 92.589C116.155 92.589 124.797 78.6655 120.397 65.656" stroke="#535461" stroke-miterlimit="10"/>
<path d="M85.4724 92.4589C85.4724 92.4589 69.1106 88.547 89.9288 65.656C89.9288 65.656 98.9028 74.7518 95.6107 86.059C94.287 90.6052 90.0289 93.4119 85.7162 92.5126C85.6355 92.4958 85.5542 92.4779 85.4724 92.4589Z" fill="#FF4D85"/>
<path opacity="0.4" d="M85.4724 92.4589C85.1131 92.373 69.463 88.1595 89.9288 65.656C89.9288 65.656 98.9028 74.7518 95.6106 86.059C94.287 90.6052 90.0289 93.4119 85.7162 92.5126C85.6355 92.4958 85.5542 92.4779 85.4724 92.4589Z" fill="white"/>
<path d="M85.6872 92.589C85.6872 92.589 94.3293 78.6655 89.9288 65.656" stroke="#535461" stroke-miterlimit="10"/>
<path d="M28.5482 91.0915C29.0311 90.6999 29.4842 90.238 29.6234 89.6757C29.6951 89.3782 29.6571 89.0625 29.5173 88.7941C29.3774 88.5256 29.1464 88.325 28.872 88.2337C28.182 88.0034 27.4447 88.4208 26.8856 88.8422C26.3266 89.2636 25.6859 89.7446 24.9542 89.6554C25.7122 89.0699 26.0725 88.1185 25.8636 87.2542C25.8279 87.0678 25.7396 86.8976 25.6107 86.7666C25.2276 86.4093 24.5332 86.5627 24.0746 86.8442C22.616 87.7394 22.2091 89.4681 22.2011 91.024C22.054 90.4628 22.1779 89.8779 22.1743 89.3022C22.1707 88.7265 21.9898 88.0883 21.4332 87.7791C21.1028 87.5955 20.6945 87.5599 20.303 87.5473C19.6474 87.5263 18.9171 87.5836 18.4694 88.002C17.913 88.5219 18.0573 89.3942 18.5413 89.9665C19.0253 90.5388 19.7615 90.8974 20.4392 91.2928C20.9556 91.594 21.4779 91.946 21.7955 92.4215C21.8359 92.4845 21.8696 92.5521 21.896 92.6231H26.0063C26.9095 92.2268 27.7633 91.7124 28.5482 91.0915V91.0915Z" fill="#FF4D85"/>
<path d="M97.3785 91.0915C97.8614 90.6999 98.3145 90.238 98.4537 89.6757C98.5254 89.3782 98.4874 89.0625 98.3476 88.7941C98.2077 88.5256 97.9767 88.325 97.7024 88.2337C97.0123 88.0034 96.275 88.4208 95.7159 88.8422C95.1569 89.2636 94.5162 89.7446 93.7845 89.6554C94.5425 89.0699 94.9029 88.1185 94.6939 87.2542C94.6582 87.0678 94.5699 86.8976 94.441 86.7666C94.0579 86.4093 93.3635 86.5627 92.9049 86.8442C91.4464 87.7394 91.0394 89.4681 91.0314 91.024C90.8843 90.4628 91.0082 89.8779 91.0046 89.3022C91.001 88.7265 90.8202 88.0883 90.2636 87.7791C89.9331 87.5955 89.5248 87.5599 89.1333 87.5473C88.4777 87.5263 87.7474 87.5836 87.2997 88.002C86.7434 88.5219 86.8876 89.3942 87.3716 89.9665C87.8556 90.5388 88.5918 90.8974 89.2695 91.2928C89.7859 91.594 90.3083 91.946 90.6258 92.4215C90.6662 92.4845 90.6999 92.5521 90.7263 92.6231H94.8366C95.7398 92.2268 96.5936 91.7124 97.3785 91.0915V91.0915Z" fill="#FF4D85"/>
<path d="M75.2644 82.5337C78.8592 89.6634 86.4886 92.724 86.4886 92.724C86.4886 92.724 88.2897 84.2251 84.6949 77.0954C81.1002 69.9658 73.4707 66.9051 73.4707 66.9051C73.4707 66.9051 71.6696 75.404 75.2644 82.5337Z" fill="#3F3D56"/>
<path d="M77.7353 80.1881C84.2254 84.3639 86.7249 92.6583 86.7249 92.6583C86.7249 92.6583 78.702 94.1822 72.2119 90.0064C65.7218 85.8306 63.2223 77.5363 63.2223 77.5363C63.2223 77.5363 71.2453 76.0123 77.7353 80.1881Z" fill="#FF4D85"/>
<path d="M54.3596 82.5337C57.9544 89.6634 65.5838 92.724 65.5838 92.724C65.5838 92.724 67.3849 84.2251 63.7901 77.0954C60.1954 69.9658 52.5659 66.9051 52.5659 66.9051C52.5659 66.9051 50.7648 75.404 54.3596 82.5337Z" fill="#3F3D56"/>
<path d="M56.8305 80.1881C63.3206 84.3639 65.8201 92.6583 65.8201 92.6583C65.8201 92.6583 57.7972 94.1822 51.3071 90.0064C44.817 85.8306 42.3175 77.5363 42.3175 77.5363C42.3175 77.5363 50.3404 76.0123 56.8305 80.1881Z" fill="#FF4D85"/>
<path d="M32.9829 58.4389C26.764 68.3956 28.3076 81.1712 28.3076 81.1712C28.3076 81.1712 39.934 77.8037 46.1528 67.8469C52.3717 57.8902 50.8281 45.1146 50.8281 45.1146C50.8281 45.1146 39.2017 48.4821 32.9829 58.4389Z" fill="#3F3D56"/>
<path d="M37.558 60.2664C36.9509 72.2224 28.5515 81.4556 28.5515 81.4556C28.5515 81.4556 21.1363 71.304 21.7434 59.3479C22.3505 47.3918 30.75 38.1587 30.75 38.1587C30.75 38.1587 38.1651 48.3103 37.558 60.2664Z" fill="#FC6681"/>
<path d="M121.515 73.8322C121.749 87.3909 114.293 92.2733 104.997 92.4569C104.781 92.4612 104.566 92.4628 104.352 92.4619C103.921 92.4604 103.494 92.4479 103.072 92.4242C94.6702 91.9545 88.0649 87.1066 87.8472 74.497C87.622 61.4477 102.933 44.6717 104.081 43.431C104.082 43.431 104.082 43.431 104.083 43.4298C104.127 43.3825 104.149 43.3589 104.149 43.3589C104.149 43.3589 121.281 60.2746 121.515 73.8322Z" fill="#FF4D85"/>
<path d="M104.348 90.395L110.346 81.0737L104.35 91.4052L104.352 92.4618C103.921 92.4604 103.494 92.4478 103.072 92.4241L103.501 78.8468L103.494 78.7419L103.505 78.7218L103.546 77.4388L97.1813 67.326L103.548 76.4783L103.568 76.7498L103.892 66.4916L98.4124 56.0197L103.926 64.6893L104.081 43.431L104.082 43.3602L104.083 43.4299L104.286 60.188L109.443 53.441L104.288 61.6315L104.307 70.8107L109.08 61.9071L104.31 72.1602L104.321 77.2644L111.257 64.8651L104.324 79.045L104.348 90.395Z" fill="#3F3D56"/>
<path d="M95.3836 73.8322C95.6176 87.3909 88.1623 92.2733 78.8657 92.4569C78.6497 92.4612 78.4348 92.4628 78.2208 92.4619C77.7898 92.4604 77.3631 92.4479 76.9406 92.4242C68.5392 91.9545 61.9339 87.1066 61.7162 74.497C61.4909 61.4477 76.8015 44.6717 77.9501 43.431C77.9511 43.431 77.9511 43.431 77.9521 43.4298C77.9957 43.3825 78.0181 43.3589 78.0181 43.3589C78.0181 43.3589 95.1495 60.2746 95.3836 73.8322Z" fill="#FFB6C1"/>
<path d="M78.2171 90.395L84.215 81.0737L78.2191 91.4052L78.2208 92.4618C77.7897 92.4604 77.363 92.4478 76.9406 92.4241L77.3697 78.8468L77.3628 78.7419L77.3738 78.7218L77.4147 77.4388L71.0502 67.326L77.4167 76.4783L77.4369 76.7498L77.761 66.4916L72.2813 56.0197L77.795 64.6893L77.95 43.431L77.9508 43.3602L77.952 43.4299L78.1545 60.188L83.3122 53.441L78.1567 61.6315L78.1756 70.8107L82.9488 61.9071L78.1793 72.1602L78.1899 77.2644L85.1259 64.8651L78.1928 79.045L78.2171 90.395Z" fill="#3F3D56"/>
<path d="M126.63 74.07C126.864 87.6287 119.408 92.5111 110.112 92.6947C109.896 92.6989 109.681 92.7006 109.467 92.6997C109.036 92.6982 108.609 92.6857 108.187 92.6619C99.7852 92.1923 93.1799 87.3444 92.9622 74.7348C92.7369 61.6855 108.048 44.9096 109.196 43.6688C109.197 43.6688 109.197 43.6688 109.198 43.6677C109.242 43.6204 109.264 43.5967 109.264 43.5967C109.264 43.5967 126.396 60.5124 126.63 74.07Z" fill="#3F3D56"/>
<path d="M109.463 90.6329L115.461 81.3116L109.465 91.6431L109.467 92.6998C109.036 92.6983 108.609 92.6857 108.187 92.662L108.616 79.0847L108.609 78.9798L108.62 78.9597L108.661 77.6767L102.296 67.5639L108.663 76.7162L108.683 76.9877L109.007 66.7295L103.527 56.2576L109.041 64.9271L109.196 43.6688L109.197 43.5981L109.198 43.6677L109.401 60.4258L114.558 53.6788L109.403 61.8693L109.422 71.0486L114.195 62.145L109.425 72.3981L109.436 77.5023L116.372 65.1029L109.439 79.2829L109.463 90.6329Z" fill="#FC6681"/>
<path d="M33.6698 73.8322C33.9039 87.3909 26.4485 92.2733 17.1519 92.4569C16.936 92.4611 16.7211 92.4628 16.5071 92.4619C16.0761 92.4604 15.6494 92.4479 15.2269 92.4242C6.82546 91.9545 0.220149 87.1066 0.00246153 74.497C-0.222821 61.4477 15.0878 44.6717 16.2363 43.431C16.2374 43.431 16.2374 43.431 16.2384 43.4298C16.282 43.3826 16.3043 43.3589 16.3043 43.3589C16.3043 43.3589 33.4358 60.2746 33.6698 73.8322Z" fill="#3F3D56"/>
<path d="M16.5035 90.395L22.5014 81.0737L16.5054 91.4052L16.5071 92.4618C16.0761 92.4604 15.6494 92.4478 15.2269 92.4241L15.6561 78.8468L15.6491 78.7419L15.6601 78.7218L15.701 77.4388L9.33659 67.326L15.703 76.4783L15.7232 76.7498L16.0474 66.4916L10.5677 56.0197L16.0814 64.6893L16.2364 43.431L16.2372 43.3602L16.2384 43.4299L16.4409 60.188L21.5986 53.441L16.4431 61.6315L16.462 70.8107L21.2352 61.9071L16.4657 72.1602L16.4763 77.2644L23.4122 64.8651L16.4791 79.045L16.5035 90.395Z" fill="#FF4D85"/>
<path d="M102.09 94.5243C98.0887 93.7994 94.2407 93.1768 90.546 92.6566L92.0066 89.628C91.5141 89.4451 89.3503 91.1794 89.3503 91.1794L91.2671 82.3882C88.79 82.7077 87.5306 91.6841 87.5306 91.6841L84.7631 88.6492L86.1029 92.0612C74.7949 90.637 65.029 90.109 56.8147 90.0899L58.0648 87.4978C57.5723 87.3148 55.4084 89.0492 55.4084 89.0492L57.3252 80.258C54.8482 80.5774 53.5887 89.5538 53.5887 89.5538L50.8212 86.519L52.2403 90.1328C45.354 90.2801 39.7382 90.7828 35.4037 91.3559C36.6682 87.3178 40.9636 83.4772 40.9636 83.4772C37.6832 84.5206 35.9625 86.2691 35.0633 87.8991C34.983 79.5671 36.2784 71.2854 38.8901 63.435C38.8901 63.435 32.1097 79.2146 32.9748 89.8065L33.0783 91.6873C27.33 92.5676 24.44 93.4834 24.44 93.4834L102.09 94.5243Z" fill="#3F3D56"/>
<path d="M115.1 93.8108C111.099 93.0859 107.251 92.4633 103.556 91.9431L105.017 88.9145C104.524 88.7316 102.36 90.4659 102.36 90.4659L104.277 81.6747C101.8 81.9942 100.541 90.9706 100.541 90.9706L97.773 87.9357L99.1129 91.3477C87.8049 89.9235 78.0389 89.3955 69.8246 89.3764L71.0747 86.7843C70.5822 86.6013 68.4184 88.3357 68.4184 88.3357L70.3352 79.5445C67.8581 79.8639 66.5987 88.8403 66.5987 88.8403L63.8312 85.8055L65.2503 89.4193C58.3639 89.5666 52.7482 90.0693 48.4137 90.6424C49.6781 86.6043 53.9736 82.7637 53.9736 82.7637C50.6932 83.8071 48.9724 85.5556 48.0733 87.1856C47.9929 78.8536 49.2884 70.5719 51.9001 62.7215C51.9001 62.7215 45.1196 78.5011 45.9848 89.093L46.0883 90.9738C40.34 91.8541 37.45 92.7699 37.45 92.7699L115.1 93.8108Z" fill="#3F3D56"/>
<path d="M130 95C125.999 94.2751 122.151 93.6525 118.456 93.1323L119.917 90.1037C119.424 89.9207 117.26 91.6551 117.26 91.6551L119.177 82.8639C116.7 83.1833 115.441 92.1597 115.441 92.1597L112.673 89.1249L114.013 92.5369C102.705 91.1127 92.9392 90.5846 84.7249 90.5656L85.975 87.9734C85.4825 87.7905 83.3186 89.5249 83.3186 89.5249L85.2354 80.7336C82.7584 81.0531 81.4989 90.0295 81.4989 90.0295L78.7314 86.9946L80.1505 90.6085C73.2642 90.7558 67.6485 91.2585 63.3139 91.8316C64.5784 87.7935 68.8738 83.9529 68.8738 83.9529C65.5934 84.9963 63.8727 86.7447 62.9735 88.3748C62.8932 80.0428 64.1887 71.761 66.8003 63.9107C66.8003 63.9107 60.0199 79.6903 60.885 90.2822L60.9885 92.163C55.2402 93.0432 52.3502 93.959 52.3502 93.959L130 95Z" fill="#3F3D56"/>
<path d="M80.7402 93.8108C76.7391 93.0859 72.8911 92.4633 69.1964 91.9431L70.657 88.9145C70.1645 88.7316 68.0006 90.4659 68.0006 90.4659L69.9174 81.6747C67.4404 81.9942 66.181 90.9706 66.181 90.9706L63.4135 87.9357L64.7533 91.3477C53.4453 89.9235 43.6793 89.3955 35.465 89.3764L36.7152 86.7843C36.2227 86.6013 34.0588 88.3357 34.0588 88.3357L35.9756 79.5445C33.4985 79.8639 32.2391 88.8403 32.2391 88.8403L29.4716 85.8055L30.8907 89.4193C24.0043 89.5666 18.3886 90.0693 14.0541 90.6424C15.3186 86.6043 19.614 82.7637 19.614 82.7637C16.3336 83.8071 14.6129 85.5556 13.7137 87.1856C13.6334 78.8536 14.9288 70.5719 17.5405 62.7215C17.5405 62.7215 10.76 78.5011 11.6252 89.093L11.7287 90.9738C5.98039 91.8541 3.09041 92.7699 3.09041 92.7699L80.7402 93.8108Z" fill="#3F3D56"/>
</g>
<defs>
<clipPath id="clip0">
<rect width="130" height="95" fill="white"/>
</clipPath>
</defs>
</svg>
