<svg width="130" height="95" viewBox="0 0 130 95" fill="none" xmlns="http://www.w3.org/2000/svg">
<path d="M5.63391 47.8986C7.04191 45.0252 7.83826 42.5225 7.4126 42.3086C6.98693 42.0948 5.50045 44.2508 4.09244 47.1242C2.68443 49.9976 1.88808 52.5003 2.31375 52.7141C2.73941 52.928 4.2259 50.772 5.63391 47.8986Z" fill="#E0E0E0"/>
<path d="M77.0589 83.817C78.4669 80.9435 79.3739 78.4964 79.0847 78.3511C78.7955 78.2058 77.4196 80.4174 76.0116 83.2908C74.6036 86.1642 73.6966 88.6113 73.9858 88.7566C74.2751 88.9019 75.6509 86.6904 77.0589 83.817Z" fill="#E0E0E0"/>
<path d="M38.6771 69.291L36.0233 67.0722L28.719 76.0292L31.3728 78.2481L38.6771 69.291Z" fill="#F55F44"/>
<path opacity="0.05" d="M32.5745 78.9626L36.344 79.86L38.9696 68.5524L35.2001 67.655L32.5745 78.9626Z" fill="black"/>
<path d="M32.9938 79.0624L36.344 79.86L38.9697 68.5524L35.6195 67.7548L32.9938 79.0624Z" fill="#F55F44"/>
<path d="M7.54005 42.0486L2.18626 52.9744L73.8643 88.9856L79.2181 78.0598L7.54005 42.0486Z" fill="url(#paint0_linear)"/>
<path d="M73.9918 88.7255C72.5888 88.0441 1.28611 52.1979 2.31375 52.7142C6.27126 46.5979 7.4126 42.3087 7.4126 42.3087L79.0906 78.32C79.0906 78.32 76.5735 82.7931 73.9918 88.7255Z" fill="#F5F5F5"/>
<path opacity="0.05" d="M44.6646 61.0242L38.7557 58.0555L33.6568 68.461L39.5658 71.4297L44.6646 61.0242Z" fill="black"/>
<path d="M44.4077 60.8951L39.0126 58.1846L33.9138 68.5901L39.3089 71.3006L44.4077 60.8951Z" fill="#F55F44"/>
<path opacity="0.05" d="M43.3801 60.3789L39.7833 58.5718L34.6845 68.9774L38.2812 70.7844L43.3801 60.3789Z" fill="black"/>
<path d="M43.1232 60.2498L40.0403 58.7009L34.9414 69.1065L38.0243 70.6553L43.1232 60.2498Z" fill="#F55F44"/>
<path d="M42.708 93.8106C42.9721 93.8106 43.1862 93.5938 43.1862 93.3264C43.1862 93.059 42.9721 92.8422 42.708 92.8422C42.4439 92.8422 42.2299 93.059 42.2299 93.3264C42.2299 93.5938 42.4439 93.8106 42.708 93.8106Z" fill="#DBDBDB"/>
<g opacity="0.5">
<path opacity="0.5" d="M5.29455 79.7682H4.80423V82.5816H5.29455V79.7682Z" fill="#47E6B1"/>
<path opacity="0.5" d="M6.43864 81.4232V80.9267H3.66015V81.4232H6.43864Z" fill="#47E6B1"/>
</g>
<g opacity="0.5">
<path opacity="0.5" d="M128.856 44.6835H128.366V47.4969H128.856V44.6835Z" fill="#47E6B1"/>
<path opacity="0.5" d="M130 46.3383V45.8419H127.222V46.3383H130Z" fill="#47E6B1"/>
</g>
<g opacity="0.5">
<path opacity="0.5" d="M8.23649 9.76416H7.74617V12.5776H8.23649V9.76416Z" fill="#47E6B1"/>
<path opacity="0.5" d="M9.38058 11.4191V10.9226H6.60209V11.4191H9.38058Z" fill="#47E6B1"/>
</g>
<g opacity="0.5">
<path opacity="0.5" d="M114.146 5.4613H113.656V8.27471H114.146V5.4613Z" fill="#47E6B1"/>
<path opacity="0.5" d="M115.29 7.11623V6.61975H112.512V7.11623H115.29Z" fill="#47E6B1"/>
</g>
<path opacity="0.5" d="M2.00849 41.9455C1.87337 41.886 1.7646 41.7781 1.7029 41.6426C1.64119 41.5071 1.63085 41.3533 1.67385 41.2106C1.68081 41.1887 1.68519 41.1661 1.68691 41.1432V41.1432C1.69084 41.0778 1.67387 41.0128 1.6385 40.958C1.60313 40.9031 1.55125 40.8612 1.49054 40.8385C1.42983 40.8159 1.36353 40.8136 1.30144 40.8321C1.23936 40.8505 1.1848 40.8887 1.14585 40.9411V40.9411C1.13245 40.9596 1.12127 40.9797 1.11252 41.0009C1.05367 41.1378 0.947194 41.2479 0.813353 41.3104C0.679511 41.3729 0.527652 41.3833 0.386682 41.3398C0.36507 41.3327 0.342711 41.3283 0.320072 41.3266V41.3266C0.255485 41.3226 0.19135 41.3398 0.137166 41.3756C0.0829818 41.4114 0.0416307 41.4639 0.0192364 41.5254C-0.00315784 41.5869 -0.00540313 41.654 0.012832 41.7169C0.0310672 41.7797 0.0688124 41.835 0.120479 41.8744V41.8744C0.138811 41.888 0.158659 41.8993 0.179612 41.9082C0.314735 41.9677 0.423502 42.0756 0.485209 42.2111C0.546915 42.3466 0.557252 42.5004 0.514255 42.6431C0.507297 42.665 0.502913 42.6876 0.501195 42.7105V42.7105C0.497263 42.7759 0.51424 42.8409 0.549609 42.8957C0.584977 42.9506 0.636857 42.9925 0.697565 43.0152C0.758273 43.0378 0.82458 43.0401 0.886664 43.0216C0.948747 43.0032 1.00331 42.9649 1.04226 42.9126V42.9126C1.05565 42.8941 1.06684 42.874 1.07558 42.8528C1.13443 42.7159 1.24091 42.6058 1.37475 42.5433C1.5086 42.4808 1.66045 42.4704 1.80143 42.5139C1.82304 42.521 1.8454 42.5254 1.86803 42.5271V42.5271C1.93262 42.5311 1.99676 42.5139 2.05094 42.4781C2.10513 42.4423 2.14648 42.3898 2.16888 42.3283C2.19127 42.2668 2.19352 42.1997 2.17528 42.1368C2.15704 42.074 2.1193 42.0187 2.06763 41.9793C2.0493 41.9657 2.02945 41.9544 2.00849 41.9455V41.9455Z" fill="#4D8AF0"/>
<path opacity="0.5" d="M30.1205 9.34322C29.9854 9.28363 29.8766 9.17581 29.8149 9.04029C29.7532 8.90477 29.7428 8.751 29.7858 8.60826C29.7928 8.58637 29.7972 8.56374 29.7989 8.54081V8.54081C29.8028 8.47541 29.7859 8.41047 29.7505 8.3556C29.7151 8.30074 29.6632 8.25887 29.6025 8.23619C29.5418 8.21352 29.4755 8.21124 29.4134 8.22971C29.3513 8.24817 29.2968 8.28639 29.2578 8.33871V8.33871C29.2444 8.35727 29.2333 8.37737 29.2245 8.39859C29.1657 8.53541 29.0592 8.64554 28.9253 8.70802C28.7915 8.77051 28.6396 8.78097 28.4987 8.73743C28.4771 8.73039 28.4547 8.72595 28.4321 8.72421V8.72421C28.3675 8.72023 28.3033 8.73742 28.2492 8.77323C28.195 8.80905 28.1536 8.86158 28.1312 8.92305C28.1088 8.98452 28.1066 9.05166 28.1248 9.11452C28.1431 9.17738 28.1808 9.23263 28.2325 9.27207V9.27207C28.2508 9.28564 28.2706 9.29696 28.2916 9.30581C28.4267 9.3654 28.5355 9.47322 28.5972 9.60875C28.6589 9.74427 28.6692 9.89803 28.6262 10.0408C28.6193 10.0627 28.6149 10.0853 28.6132 10.1082V10.1082C28.6093 10.1736 28.6262 10.2386 28.6616 10.2934C28.697 10.3483 28.7488 10.3902 28.8096 10.4128C28.8703 10.4355 28.9366 10.4378 28.9986 10.4193C29.0607 10.4009 29.1153 10.3626 29.1542 10.3103C29.1676 10.2918 29.1788 10.2717 29.1876 10.2504C29.2464 10.1136 29.3529 10.0035 29.4867 9.94101C29.6206 9.87853 29.7724 9.86806 29.9134 9.9116C29.935 9.91864 29.9574 9.92308 29.98 9.92482V9.92482C30.0446 9.9288 30.1087 9.91162 30.1629 9.8758C30.2171 9.83999 30.2585 9.78746 30.2809 9.72598C30.3033 9.66451 30.3055 9.59738 30.2873 9.53451C30.269 9.47165 30.2313 9.4164 30.1796 9.37696V9.37696C30.1613 9.3634 30.1414 9.35207 30.1205 9.34322V9.34322Z" fill="#4D8AF0"/>
<path opacity="0.5" d="M64.4431 93.9108C64.308 93.8512 64.1992 93.7434 64.1375 93.6079C64.0758 93.4723 64.0655 93.3186 64.1085 93.1758C64.1154 93.1539 64.1198 93.1313 64.1215 93.1084V93.1084C64.1254 93.043 64.1085 92.978 64.0731 92.9232C64.0377 92.8683 63.9858 92.8264 63.9251 92.8038C63.8644 92.7811 63.7981 92.7788 63.736 92.7973C63.674 92.8157 63.6194 92.854 63.5804 92.9063C63.567 92.9248 63.5559 92.9449 63.5471 92.9662C63.4883 93.103 63.3818 93.2131 63.2479 93.2756C63.1141 93.3381 62.9622 93.3485 62.8213 93.305C62.7997 93.298 62.7773 93.2935 62.7547 93.2918V93.2918C62.6901 93.2878 62.6259 93.305 62.5718 93.3408C62.5176 93.3766 62.4762 93.4292 62.4538 93.4906C62.4314 93.5521 62.4292 93.6192 62.4474 93.6821C62.4657 93.745 62.5034 93.8002 62.5551 93.8396C62.5734 93.8532 62.5932 93.8645 62.6142 93.8734C62.7493 93.933 62.8581 94.0408 62.9198 94.1763C62.9815 94.3119 62.9918 94.4656 62.9488 94.6084C62.9419 94.6302 62.9375 94.6529 62.9358 94.6758V94.6758C62.9319 94.7412 62.9488 94.8062 62.9842 94.861C63.0196 94.9159 63.0715 94.9578 63.1322 94.9804C63.1929 95.0031 63.2592 95.0054 63.3213 94.9869C63.3833 94.9685 63.4379 94.9302 63.4769 94.8779V94.8779C63.4902 94.8593 63.5014 94.8393 63.5102 94.818C63.569 94.6812 63.6755 94.5711 63.8094 94.5086C63.9432 94.4461 64.0951 94.4356 64.236 94.4792C64.2576 94.4862 64.28 94.4907 64.3026 94.4924V94.4924C64.3672 94.4964 64.4314 94.4792 64.4855 94.4434C64.5397 94.4076 64.5811 94.355 64.6035 94.2936C64.6259 94.2321 64.6281 94.165 64.6099 94.1021C64.5916 94.0392 64.5539 93.984 64.5022 93.9445V93.9445C64.4839 93.931 64.4641 93.9197 64.4431 93.9108V93.9108Z" fill="#4D8AF0"/>
<path opacity="0.5" d="M124.116 74.4724C124.658 74.4724 125.097 74.0278 125.097 73.4795C125.097 72.9311 124.658 72.4865 124.116 72.4865C123.575 72.4865 123.135 72.9311 123.135 73.4795C123.135 74.0278 123.575 74.4724 124.116 74.4724Z" fill="#F55F44"/>
<path opacity="0.5" d="M102.542 80.7612C103.084 80.7612 103.523 80.3166 103.523 79.7682C103.523 79.2198 103.084 78.7753 102.542 78.7753C102 78.7753 101.561 79.2198 101.561 79.7682C101.561 80.3166 102 80.7612 102.542 80.7612Z" fill="#4D8AF0"/>
<path opacity="0.5" d="M16.8989 90.5254C17.4405 90.5254 17.8795 90.0808 17.8795 89.5324C17.8795 88.984 17.4405 88.5394 16.8989 88.5394C16.3573 88.5394 15.9182 88.984 15.9182 89.5324C15.9182 90.0808 16.3573 90.5254 16.8989 90.5254Z" fill="#47E6B1"/>
<path opacity="0.5" d="M67.2387 1.98593C67.7803 1.98593 68.2193 1.54137 68.2193 0.992966C68.2193 0.444566 67.7803 0 67.2387 0C66.6971 0 66.258 0.444566 66.258 0.992966C66.258 1.54137 66.6971 1.98593 67.2387 1.98593Z" fill="#F55F44"/>
<path d="M33.4881 59.1642L29.5655 65.122C29.5655 65.122 30.8731 71.2453 59.8021 71.0798C88.7311 70.9143 91.0193 65.122 91.0193 65.122L85.6257 57.1783L69.1182 45.7592L33.4881 59.1642Z" fill="#FF4D85"/>
<path opacity="0.15" d="M33.4881 59.1642L29.5655 65.122C29.5655 65.122 30.8731 71.2453 59.8021 71.0798C88.7311 70.9143 91.0193 65.122 91.0193 65.122L85.6257 57.1783L69.1182 45.7592L33.4881 59.1642Z" fill="black"/>
<path d="M116.925 37.0707L65.4408 60.0744L2.67946 37.0707L60.2107 10.5916L88.4517 23.7765L89.4634 24.2499L116.925 37.0707Z" fill="#FFB6C1"/>
<path opacity="0.15" d="M116.925 37.0707L65.4408 60.0744L2.67946 37.0707L60.2107 10.5916L88.4517 23.7765L89.4634 24.2499L116.925 37.0707Z" fill="#FFB6C1"/>
<path d="M90.529 42.585L89.5483 42.6445L88.4516 23.7766L89.4633 24.2499L90.529 42.585Z" fill="#FF4D85"/>
<path d="M34.1419 36.988L29.5655 65.1221C29.5655 65.1221 62.4171 54.3649 91.0193 65.1221L86.7698 35.3331C86.7698 35.3331 48.3612 30.5338 34.1419 36.988Z" fill="#FFB6C1"/>
<path d="M90.4473 48.3243C93.065 48.3243 95.1871 46.8424 95.1871 45.0144C95.1871 43.1864 93.065 41.7045 90.4473 41.7045C87.8296 41.7045 85.7075 43.1864 85.7075 45.0144C85.7075 46.8424 87.8296 48.3243 90.4473 48.3243Z" fill="#F5F5F5"/>
<defs>
<linearGradient id="paint0_linear" x1="38.0253" y1="70.98" x2="43.4872" y2="60.1085" gradientUnits="userSpaceOnUse">
<stop stop-color="#808080" stop-opacity="0.25"/>
<stop offset="0.53514" stop-color="#808080" stop-opacity="0.12"/>
<stop offset="1" stop-color="#808080" stop-opacity="0.1"/>
</linearGradient>
</defs>
</svg>
