<svg width="130" height="95" viewBox="0 0 130 95" fill="none" xmlns="http://www.w3.org/2000/svg">
<g clip-path="url(#clip0)">
<path d="M2.24215 36.4827H45C45.5566 36.4827 46.0905 36.7629 46.4841 37.2617C46.8778 37.7605 47.0989 38.437 47.0989 39.1424V43.3671H0.143219V39.1424C0.143219 38.437 0.364356 37.7605 0.757981 37.2617C1.15161 36.7629 1.68548 36.4827 2.24215 36.4827V36.4827Z" fill="#3F3D56"/>
<path d="M44.1885 35.991C43.9772 35.9921 43.7675 36.0374 43.5679 36.1248C43.4994 35.7757 43.3324 35.4704 43.0984 35.2665C42.8644 35.0627 42.5796 34.9745 42.2978 35.0185C42.016 35.0626 41.7567 35.2358 41.5688 35.5056C41.3809 35.7753 41.2775 36.1229 41.278 36.4827C41.278 36.49 41.2794 36.4969 41.2795 36.5042C41.134 36.5217 40.9905 36.5594 40.8514 36.6166C40.812 36.418 40.7405 36.232 40.6414 36.0703C40.5424 35.9085 40.4179 35.7746 40.2759 35.6769C40.6489 35.4156 40.9439 35.0064 41.1157 34.5121C42.0651 34.4926 42.8302 33.6228 42.8302 32.5488C42.8302 31.4624 42.0484 30.5818 41.084 30.5818C40.8727 30.583 40.663 30.6282 40.4634 30.7157C40.4275 30.5223 40.3612 30.3401 40.2682 30.1801C40.1753 30.0201 40.0578 29.8856 39.9227 29.7848C39.7876 29.684 39.6378 29.6188 39.4823 29.5934C39.3269 29.568 39.1689 29.5827 39.0181 29.6367C38.8672 29.6908 38.7266 29.783 38.6046 29.9078C38.4826 30.0326 38.3819 30.1875 38.3085 30.363C38.2351 30.5385 38.1905 30.7311 38.1774 30.929C38.1643 31.127 38.183 31.3263 38.2324 31.5148C38.186 31.5557 38.1427 31.6017 38.0994 31.6474C37.8798 31.408 37.5948 31.2877 37.3058 31.3127C37.1566 30.7696 36.8613 30.3104 36.4717 30.0155C36.0821 29.7206 35.623 29.6088 35.175 29.6998C34.7269 29.7907 34.3183 30.0785 34.0209 30.5128C33.7234 30.9471 33.5561 31.5002 33.5481 32.0752C33.3924 32.0908 33.2387 32.1296 33.0902 32.1909C33.0735 32.1077 33.0511 32.0265 33.0232 31.9482C33.1764 31.777 33.2995 31.5668 33.3845 31.3314C33.4695 31.096 33.5146 30.8406 33.5167 30.5818C33.5167 29.4954 32.7349 28.6148 31.7704 28.6148C31.5592 28.616 31.3495 28.6612 31.1498 28.7487C31.114 28.5553 31.0476 28.3731 30.9547 28.2131C30.8618 28.0531 30.7442 27.9187 30.6092 27.8178C30.4741 27.717 30.3243 27.6519 30.1688 27.6264C30.0133 27.601 29.8554 27.6157 29.7045 27.6698C29.5537 27.7238 29.413 27.816 29.2911 27.9408C29.1691 28.0657 29.0684 28.2205 28.995 28.396C28.9215 28.5715 28.8769 28.7641 28.8639 28.9621C28.8508 29.16 28.8695 29.3593 28.9189 29.5478C28.6745 29.7629 28.4726 30.0464 28.3287 30.3763C28.1849 30.7063 28.103 31.0739 28.0895 31.4505C28.0731 31.469 28.0542 31.4839 28.0387 31.5035C28.0677 31.3631 28.0829 31.2187 28.0838 31.0735C28.0838 29.9872 27.302 29.1066 26.3375 29.1066C26.1263 29.1077 25.9166 29.153 25.7169 29.2405C25.6811 29.0471 25.6147 28.8649 25.5218 28.7049C25.4289 28.5449 25.3113 28.4104 25.1763 28.3096C25.0412 28.2087 24.8914 28.1436 24.7359 28.1182C24.5804 28.0927 24.4225 28.1075 24.2717 28.1615C24.1208 28.2155 23.9801 28.3078 23.8582 28.4326C23.7362 28.5574 23.6355 28.7122 23.5621 28.8878C23.4886 29.0633 23.444 29.2558 23.431 29.4538C23.4179 29.6518 23.4366 29.851 23.486 30.0396C23.2284 30.2651 23.0178 30.5666 22.8724 30.918C22.7269 31.2694 22.6509 31.6602 22.6509 32.057C22.6509 32.4538 22.7269 32.8447 22.8724 33.1961C23.0178 33.5475 23.2284 33.8489 23.486 34.0745C23.4074 34.3602 23.4074 34.6712 23.486 34.957C23.2915 35.1289 23.1233 35.3442 22.9895 35.5922C22.9177 35.2619 22.7568 34.974 22.5349 34.7783C22.3129 34.5826 22.0439 34.4917 21.7745 34.5212C21.5052 34.5507 21.2525 34.6988 21.0603 34.9398C20.8681 35.1808 20.7486 35.4995 20.7226 35.8405C20.567 35.725 20.3989 35.6389 20.2237 35.5851C20.538 35.3221 20.7856 34.9495 20.9364 34.5121C21.8858 34.4926 22.6509 33.6228 22.6509 32.5488C22.6509 31.4624 21.8691 30.5818 20.9046 30.5818C20.6934 30.583 20.4837 30.6282 20.284 30.7157C20.2482 30.5223 20.1818 30.3401 20.0889 30.1801C19.996 30.0201 19.8784 29.8856 19.7434 29.7848C19.6083 29.684 19.4585 29.6188 19.303 29.5934C19.1475 29.568 18.9896 29.5827 18.8388 29.6367C18.6879 29.6908 18.5472 29.783 18.4253 29.9078C18.3033 30.0326 18.2026 30.1875 18.1292 30.363C18.0557 30.5385 18.0111 30.7311 17.9981 30.929C17.985 31.127 18.0037 31.3262 18.0531 31.5148C18.0282 31.5367 18.0058 31.5625 17.9817 31.5859C17.9212 31.5787 17.8623 31.5653 17.8001 31.5653C17.5889 31.5665 17.3792 31.6117 17.1795 31.6992C17.1722 31.6621 17.1601 31.6276 17.1506 31.5917C17.1882 31.3728 17.1852 31.1458 17.1419 30.9286C17.0986 30.7114 17.0161 30.5099 16.9009 30.3399C16.7858 30.1699 16.6411 30.0361 16.4782 29.9489C16.3154 29.8617 16.1388 29.8235 15.9623 29.8374C15.8612 29.4808 15.6965 29.1587 15.4809 28.8962C15.2652 28.6337 15.0046 28.438 14.7194 28.3244C14.4342 28.2107 14.1321 28.1822 13.8367 28.241C13.5414 28.2999 13.2607 28.4446 13.0168 28.6637C12.7729 28.8828 12.5723 29.1704 12.4307 29.5041C12.2891 29.8378 12.2103 30.2085 12.2005 30.5871C12.1907 30.9658 12.2502 31.3422 12.3742 31.6869C12.4983 32.0316 12.6836 32.3353 12.9157 32.5742C12.7822 32.5936 12.6506 32.6299 12.5228 32.6826C12.4769 32.4429 12.3839 32.2218 12.2524 32.0398C12.1209 31.8579 11.9552 31.7211 11.7708 31.6421C11.5863 31.5632 11.3891 31.5447 11.1975 31.5883C11.0059 31.632 10.8261 31.7363 10.6749 31.8917C10.5019 31.6314 10.2856 31.423 10.0413 31.2815C9.79715 31.1401 9.53121 31.069 9.26271 31.0735C9.05146 31.0747 8.84179 31.12 8.64213 31.2074C8.60631 31.014 8.53993 30.8318 8.447 30.6718C8.35408 30.5118 8.23653 30.3774 8.10146 30.2765C7.96639 30.1757 7.81659 30.1106 7.66111 30.0851C7.50563 30.0597 7.34769 30.0744 7.19683 30.1285C7.04597 30.1825 6.90532 30.2747 6.78336 30.3995C6.66141 30.5244 6.56067 30.6792 6.48725 30.8547C6.41382 31.0302 6.36922 31.2228 6.35615 31.4208C6.34307 31.6187 6.36179 31.818 6.41117 32.0065C6.15361 32.2322 5.94308 32.5336 5.79764 32.885C5.65219 33.2364 5.57618 33.6272 5.57611 34.024C5.57611 34.0316 5.57784 34.0386 5.57789 34.0462C5.30271 33.9934 5.02143 34.0318 4.76149 34.1579C4.72567 33.9645 4.65929 33.7823 4.56636 33.6223C4.47344 33.4623 4.35589 33.3278 4.22082 33.227C4.08574 33.1262 3.93595 33.0611 3.78047 33.0356C3.62499 33.0102 3.46706 33.0249 3.3162 33.0789C3.16534 33.133 3.02469 33.2252 2.90273 33.35C2.78078 33.4748 2.68005 33.6297 2.60662 33.8052C2.53319 33.9807 2.4886 34.1733 2.47552 34.3712C2.46244 34.5692 2.48115 34.7684 2.53053 34.957C2.15627 35.278 1.88267 35.7551 1.75728 36.3054C1.6319 36.8556 1.66267 37.4441 1.84426 37.9685C2.02584 38.4929 2.34675 38.9201 2.75116 39.1758C3.15558 39.4314 3.61791 39.4994 4.05777 39.3678C4.12781 39.8808 4.32502 40.3523 4.62078 40.7137C4.91653 41.0751 5.29547 41.3077 5.70261 41.3778C6.10975 41.4479 6.52392 41.3518 6.88505 41.1035C7.24618 40.8551 7.53549 40.4675 7.711 39.9967C7.86995 40.4229 8.12252 40.7819 8.43843 41.0307C8.75434 41.2796 9.12018 41.4077 9.4921 41.3998C9.86403 41.3918 10.2262 41.2481 10.5353 40.9859C10.8444 40.7236 11.0873 40.354 11.2348 39.9213C11.4635 39.9172 11.6897 39.8617 11.9031 39.7574C12.0313 40.2231 12.2676 40.629 12.5809 40.9218C12.8942 41.2147 13.27 41.3808 13.6591 41.3985C14.0481 41.4163 14.4324 41.2847 14.7615 41.0211C15.0905 40.7575 15.3492 40.3742 15.5035 39.9213C15.7864 39.9142 16.0645 39.827 16.3174 39.6661C16.4945 40.0627 16.7554 40.3888 17.0708 40.6076C17.3862 40.8265 17.7436 40.9294 18.1027 40.9048C18.4618 40.8802 18.8083 40.7291 19.1032 40.4685C19.3982 40.2078 19.6299 39.848 19.7722 39.4295C19.8763 39.4263 19.9801 39.4126 20.0825 39.3884C20.2277 39.8346 20.4734 40.2168 20.789 40.4871C21.1046 40.7574 21.476 40.9039 21.8569 40.9083C22.2378 40.9127 22.6113 40.7747 22.9307 40.5118C23.2501 40.2488 23.5013 39.8724 23.6528 39.4295C23.8052 39.4241 23.9566 39.3958 24.1038 39.3453C24.4938 39.483 24.9083 39.4586 25.2866 39.2756C25.6648 39.0925 25.9867 38.7606 26.205 38.3285C26.083 38.9273 26.1437 39.5623 26.3749 40.1069C26.6062 40.6515 26.9909 41.0656 27.4524 41.2666C27.914 41.4677 28.4183 41.4408 28.8649 41.1915C29.3115 40.9421 29.6675 40.4885 29.8619 39.9213C30.1448 39.9142 30.4229 39.827 30.6758 39.6661C30.8529 40.0627 31.1138 40.3888 31.4292 40.6076C31.7446 40.8265 32.102 40.9294 32.461 40.9048C32.8201 40.8802 33.1666 40.7291 33.4616 40.4685C33.7566 40.2078 33.9883 39.848 34.1306 39.4295C34.4135 39.4224 34.6916 39.3352 34.9445 39.1743C35.081 39.4825 35.2688 39.7492 35.4948 39.9561C35.7209 40.163 35.9798 40.3049 36.2536 40.3722C36.5273 40.4394 36.8093 40.4303 37.08 40.3454C37.3507 40.2606 37.6036 40.102 37.821 39.8808C37.8884 40.3512 38.063 40.7863 38.3232 41.1325C38.5835 41.4786 38.918 41.7206 39.2856 41.8286C39.6531 41.9366 40.0376 41.9059 40.3915 41.7402C40.7454 41.5745 41.0533 41.2812 41.2772 40.8964C41.5101 41.1226 41.7806 41.2784 42.0683 41.3519C42.3559 41.4254 42.653 41.4148 42.9369 41.3207C43.2207 41.2267 43.4839 41.0517 43.7063 40.8092C43.9287 40.5666 44.1045 40.263 44.2202 39.9213C45.1697 39.9017 45.9348 39.032 45.9348 37.9579C45.9347 36.8716 45.1529 35.991 44.1885 35.991ZM9.50403 34.9761C9.50199 34.9879 9.50057 35.0001 9.49865 35.012C9.48449 35.0114 9.47106 35.0075 9.45675 35.0075C9.39876 35.0093 9.34096 35.0167 9.28385 35.0296C9.28699 35.0207 9.29142 35.0128 9.29448 35.0039C9.36467 34.9994 9.43463 34.9902 9.50403 34.9761V34.9761ZM25.7169 34.1579C25.7113 34.1292 25.7016 34.1029 25.6946 34.075C25.9909 33.8147 26.2245 33.4553 26.3693 33.0369C26.6245 33.0352 26.8765 32.9654 27.109 32.832C27.3415 32.6986 27.5491 32.5046 27.7185 32.2627C27.7036 32.3569 27.696 32.4527 27.6957 32.5488C27.6974 32.6988 27.7172 32.8477 27.7547 32.99C27.4215 33.2844 27.1693 33.7034 27.0333 34.1884C26.6113 33.9802 26.1446 33.9694 25.7169 34.1579V34.1579ZM37.3396 34.3412C37.3388 34.3111 37.3418 34.28 37.3402 34.2501C37.3897 34.2499 37.4391 34.2456 37.4881 34.2374C37.5634 34.5555 37.6892 34.8508 37.8578 35.1052C37.8211 35.1182 37.7826 35.126 37.7469 35.1414C37.6842 34.8252 37.5411 34.544 37.3396 34.3412V34.3412Z" fill="#F9A825"/>
<path d="M4.05219 38.9414C3.50175 38.9413 2.95706 39.0834 2.45138 39.3589C1.9457 39.6344 1.48963 40.0376 1.11099 40.5439C0.732348 41.0502 0.439086 41.6489 0.249095 42.3035C0.0591053 42.9582 -0.0236286 43.655 0.00594314 44.3515L2.63371 90.1401C2.68912 91.4525 3.13959 92.688 3.89235 93.5921C4.6451 94.4962 5.6428 95.0001 6.67996 94.9999H40.562C41.5992 95.0001 42.5969 94.4962 43.3496 93.5921C44.1024 92.688 44.5528 91.4525 44.6083 90.1401L47.236 44.3515C47.2656 43.655 47.1829 42.9582 46.9929 42.3035C46.8029 41.6489 46.5096 41.0502 46.131 40.5439C45.7523 40.0376 45.2963 39.6344 44.7906 39.3589C44.2849 39.0834 43.7402 38.9413 43.1898 38.9414H4.05219Z" fill="#3F3D56"/>
<path d="M8.29257 38.9414H5.96419V95H8.29257V38.9414Z" fill="#FF4D85"/>
<path d="M14.8896 38.9414H12.5612V95H14.8896V38.9414Z" fill="#FF4D85"/>
<path d="M21.4867 38.9414H19.1583V95H21.4867V38.9414Z" fill="#FF4D85"/>
<path d="M28.0838 38.9414H25.7554V95H28.0838V38.9414Z" fill="#FF4D85"/>
<path d="M34.6809 38.9414H32.3525V95H34.6809V38.9414Z" fill="#FF4D85"/>
<path d="M41.278 38.9414H38.9496V95H41.278V38.9414Z" fill="#FF4D85"/>
<path d="M79.265 15.9594L78.25 12.8267L64.7164 19.8673C64.41 20.0269 64.1479 20.2984 63.9634 20.6471C63.779 20.9958 63.6805 21.4062 63.6804 21.826V40.3546H66.3536V22.6809L79.265 15.9594Z" fill="#3F3D56"/>
<path d="M77.5259 9.42227H74.6114V21.1192H77.5259V9.42227Z" fill="#FF4D85"/>
<path d="M72.9112 11.8844H69.9967V23.5814H72.9112V11.8844Z" fill="#FF4D85"/>
<path d="M68.4165 21.8887L66.352 22.6582L65.502 10.1918H68.4165V21.8887Z" fill="#FF4D85"/>
<path d="M70.1166 23.2736H60.8858V26.9668H70.1166V23.2736Z" fill="#FF4D85"/>
<path d="M70.1174 28.3536H60.8866V32.0468H70.1174V28.3536Z" fill="#FF4D85"/>
<path d="M70.1166 33.4337H60.8858V37.1268H70.1166V33.4337Z" fill="#FF4D85"/>
<path d="M74.6113 95H56.7569L52.3836 39.5891H78.4988L74.6113 95Z" fill="#3F3D56"/>
<path d="M80.4419 38.6657H50.5621V42.3589H80.4419V38.6657Z" fill="#3F3D56"/>
<path opacity="0.2" d="M101.62 14.2211C101.622 11.6023 102.261 9.04793 103.45 6.90623C104.639 4.76454 106.321 3.1398 108.266 2.25357C110.21 1.36733 112.323 1.26275 114.317 1.95407C116.31 2.6454 118.087 4.09898 119.404 6.1166C118.686 4.62098 117.733 3.329 116.603 2.3214C115.474 1.31381 114.192 0.612264 112.839 0.260608C111.486 -0.0910472 110.09 -0.085253 108.739 0.277627C107.387 0.640508 106.11 1.35268 104.985 2.36962C103.861 3.38657 102.914 4.68644 102.204 6.18799C101.495 7.68954 101.037 9.3605 100.859 11.0964C100.682 12.8324 100.789 14.596 101.174 16.2771C101.559 17.9581 102.214 19.5205 103.097 20.8665C102.128 18.8674 101.617 16.5668 101.62 14.2211V14.2211Z" fill="white"/>
<path d="M109.077 78.8047C108.96 78.8049 108.847 78.8638 108.765 78.9687C108.682 79.0735 108.635 79.2157 108.635 79.364V94.4407C108.635 94.589 108.682 94.7312 108.765 94.8361C108.847 94.9409 108.96 94.9999 109.077 95H129.558C129.675 94.9999 129.788 94.9409 129.87 94.8361C129.953 94.7312 130 94.589 130 94.4407V79.364C130 79.2157 129.953 79.0735 129.87 78.9687C129.788 78.8638 129.675 78.8049 129.558 78.8047H109.077Z" fill="#3F3D56"/>
<path d="M111.365 80.1343C111.147 80.1346 110.938 80.2446 110.784 80.44C110.63 80.6355 110.543 80.9005 110.543 81.1769V92.6278C110.543 92.9042 110.63 93.1692 110.784 93.3647C110.938 93.5601 111.147 93.6701 111.365 93.6704H127.269C127.488 93.6701 127.697 93.5601 127.851 93.3647C128.005 93.1692 128.092 92.9042 128.092 92.6278V81.1769C128.092 80.9005 128.005 80.6355 127.851 80.44C127.697 80.2446 127.488 80.1346 127.269 80.1343L111.365 80.1343Z" fill="#FF6584"/>
<path d="M109.307 83.7709H98.638V86.9023H109.307V83.7709Z" fill="#3F3D56"/>
<path d="M80.0732 78.8047C79.9562 78.805 79.8441 78.864 79.7613 78.9688C79.6786 79.0736 79.632 79.2157 79.6319 79.364V94.4407C79.632 94.589 79.6786 94.7311 79.7613 94.8359C79.8441 94.9408 79.9562 94.9998 80.0732 95H100.555C100.672 94.9998 100.784 94.9408 100.867 94.8359C100.95 94.7311 100.996 94.589 100.997 94.4407V79.364C100.996 79.2157 100.95 79.0736 100.867 78.9688C100.784 78.864 100.672 78.805 100.555 78.8047H80.0732Z" fill="#3F3D56"/>
<path d="M82.3624 80.1343C82.1442 80.1345 81.935 80.2444 81.7807 80.4399C81.6264 80.6353 81.5396 80.9004 81.5393 81.1769V92.6278C81.5396 92.9043 81.6264 93.1693 81.7807 93.3648C81.935 93.5603 82.1442 93.6702 82.3624 93.6704H98.266C98.4842 93.6702 98.6934 93.5603 98.8477 93.3648C99.002 93.1693 99.0889 92.9043 99.0891 92.6278V81.1769C99.0889 80.9004 99.002 80.6353 98.8477 80.4399C98.6934 80.2444 98.4842 80.1345 98.266 80.1343L82.3624 80.1343Z" fill="#FF4D85"/>
</g>
<defs>
<clipPath id="clip0">
<rect width="130" height="95" fill="white"/>
</clipPath>
</defs>
</svg>
