<svg width="130" height="95" viewBox="0 0 130 95" fill="none" xmlns="http://www.w3.org/2000/svg">
<g clip-path="url(#clip0)">
<path opacity="0.5" d="M32.2602 62.2167C24.4002 58.7734 15.4133 55.8587 8.06981 60.8069C7.1391 61.434 6.22201 62.2236 5.72054 63.3985C4.39601 66.4893 6.50136 70.4976 5.47526 73.7647C4.44916 77.0318 0.587315 78.6766 0.903457 82.1666C0.986581 83.0788 1.37631 83.9047 1.83553 84.6165C4.71216 89.0723 9.98574 89.5232 14.4431 88.4175C18.9004 87.3117 23.2596 85.0191 27.7974 85.3076C32.158 85.5927 36.1697 88.2447 40.1651 90.4769C46.9008 94.2502 54.7676 96.9576 61.4979 93.1652C64.5816 91.4271 67.1312 88.4676 70.0828 86.4012C74.0604 83.6422 78.6326 82.5785 83.1237 83.3674C86.1216 83.9029 88.9832 85.2506 91.9171 86.1801C98.5806 88.2896 105.536 88.2205 112.402 88.1376C113.68 88.122 114.979 88.103 116.204 87.64C118.018 86.9489 119.514 85.3577 120.954 83.801C122.847 81.7571 124.841 79.5111 125.451 76.4548C126.172 72.8266 124.68 68.9703 122.467 66.5049C120.254 64.0394 117.425 62.6918 114.664 61.3926C113.983 61.0747 113.255 60.7516 112.558 60.9917C112.1 61.1507 111.714 61.5377 111.372 61.9541C109.413 64.3452 107.757 68.3898 105.085 67.7402C104.131 67.5087 103.35 66.6673 102.595 65.8898C98.5642 61.7433 93.1421 58.5418 88.2773 60.8328C84.7194 62.5087 82.2079 66.8124 78.6023 68.3311C76.0377 69.4126 73.251 68.9444 70.5529 69.1552C66.6284 69.4593 62.8088 71.2181 58.8788 71.111C48.8576 70.838 40.5085 58.6887 30.5282 59.8463C29.746 59.9361 28.893 60.1642 28.4133 60.9486" fill="#FF4D85"/>
<path d="M19.6226 50.66C19.6226 50.66 11.2953 57.0335 26.6514 66.8504C26.6514 66.8504 30.0349 58.8856 26.2943 52.3912C25.5684 51.1258 24.5017 50.2419 23.2962 49.9069C22.0907 49.5719 20.8302 49.8091 19.7535 50.5736L19.6226 50.66Z" fill="#FF4D85"/>
<path d="M19.7221 50.527C19.7221 50.527 26.8517 57.4378 26.6527 66.8452" stroke="#535461" stroke-miterlimit="10"/>
<path d="M124.979 45.3507C126.666 53.1721 119.469 75.4544 119.469 75.4544C119.469 75.4544 104.327 60.9191 102.639 53.0978C102.197 51.2225 102.055 49.2542 102.222 47.3086C102.389 45.363 102.861 43.4792 103.61 41.7681C104.36 40.057 105.371 38.5531 106.585 37.3446C107.799 36.1361 109.192 35.2476 110.681 34.7311C112.17 34.2146 113.725 34.0807 115.255 34.3371C116.785 34.5936 118.26 35.2353 119.592 36.2245C120.924 37.2137 122.086 38.5305 123.011 40.0974C123.936 41.6643 124.604 43.4498 124.977 45.349L124.979 45.3507Z" fill="#FF4D85"/>
<path opacity="0.1" d="M124.979 45.3507C126.666 53.1721 119.469 75.4544 119.469 75.4544C119.469 75.4544 104.327 60.9191 102.639 53.0978C102.197 51.2225 102.055 49.2542 102.222 47.3086C102.389 45.363 102.861 43.4792 103.61 41.7681C104.36 40.057 105.371 38.5531 106.585 37.3446C107.799 36.1361 109.192 35.2476 110.681 34.7311C112.17 34.2146 113.725 34.0807 115.255 34.3371C116.785 34.5936 118.26 35.2353 119.592 36.2245C120.924 37.2137 122.086 38.5305 123.011 40.0974C123.936 41.6643 124.604 43.4498 124.977 45.349L124.979 45.3507Z" fill="black"/>
<path d="M110.815 35.1071C110.815 35.1071 120.24 53.1479 119.536 75.4976" stroke="#535461" stroke-miterlimit="10"/>
<path d="M127.384 59.6458C127.384 59.6458 118.837 53.7508 119.919 75.5114C119.919 75.5114 127.048 75.1883 129.579 67.8144C130.074 66.3803 130.136 64.7658 129.755 63.2771C129.373 61.7884 128.574 60.5289 127.509 59.7374L127.384 59.6458Z" fill="#FF4D85"/>
<path d="M127.524 59.6838C127.524 59.6838 126.42 70.9796 119.919 75.5114" stroke="#535461" stroke-miterlimit="10"/>
<path d="M2.25654 57.2201C2.25654 57.2201 -6.07491 63.5919 9.28253 73.4036C9.28253 73.4036 12.6661 65.4388 8.92551 58.9444C8.19962 57.679 7.1329 56.7951 5.92741 56.4601C4.72193 56.1251 3.46141 56.3624 2.38463 57.1268L2.25654 57.2201Z" fill="#FF4D85"/>
<path d="M2.35199 57.0871C2.35199 57.0871 9.48155 63.9979 9.2826 73.4053" stroke="#535461" stroke-miterlimit="10"/>
<path d="M106.212 65.5149H97.4564C97.6579 65.0012 97.7624 64.4351 97.7616 63.8614V13.3155C97.7616 12.3299 97.4528 11.3846 96.9031 10.6877C96.3534 9.99072 95.6079 9.59918 94.8305 9.59918H27.0602C26.2828 9.59918 25.5372 9.99072 24.9875 10.6877C24.4379 11.3846 24.129 12.3299 24.129 13.3155V63.8632C24.1283 64.4369 24.2328 65.0029 24.4343 65.5166H15.3697C15.2675 65.5166 15.1664 65.5422 15.072 65.5919C14.9777 65.6417 14.892 65.7145 14.82 65.8064C14.7479 65.8982 14.6909 66.0072 14.6522 66.127C14.6135 66.2469 14.5938 66.3753 14.5943 66.5048V67.2979C14.5943 68.7559 15.0512 70.1542 15.8643 71.1852C16.6775 72.2162 17.7804 72.7954 18.9304 72.7954H102.651C103.801 72.7954 104.904 72.2162 105.717 71.1852C106.53 70.1542 106.987 68.7559 106.987 67.2979V66.5048C106.988 66.3752 106.968 66.2466 106.93 66.1265C106.891 66.0064 106.834 65.8973 106.762 65.8052C106.69 65.7132 106.604 65.6402 106.51 65.5904C106.415 65.5405 106.314 65.5149 106.212 65.5149ZM52.2644 68.6593L51.5094 67.5795H70.1482L69.317 68.661L52.2644 68.6593Z" fill="url(#paint0_linear)"/>
<path d="M93.7554 10.3144H28.1285C26.378 10.3144 24.9589 12.1136 24.9589 14.3331V62.963C24.9589 65.1825 26.378 66.9817 28.1285 66.9817H93.7554C95.5059 66.9817 96.925 65.1825 96.925 62.963V14.3331C96.925 12.1136 95.5059 10.3144 93.7554 10.3144Z" fill="#535461"/>
<path d="M95.2584 18.5746H26.4742V64.8687H95.2584V18.5746Z" fill="white"/>
<path d="M60.867 15.3093C61.2019 15.3093 61.4734 14.9651 61.4734 14.5404C61.4734 14.1158 61.2019 13.7716 60.867 13.7716C60.5321 13.7716 60.2606 14.1158 60.2606 14.5404C60.2606 14.9651 60.5321 15.3093 60.867 15.3093Z" fill="white"/>
<path d="M71.4864 64.9637L69.1235 68.0373H52.4633L50.328 64.9637H16.3985C16.1976 64.9637 16.0049 65.065 15.8628 65.2451C15.7207 65.4252 15.6409 65.6696 15.6409 65.9244V66.6984C15.6409 68.1234 16.0874 69.4901 16.8821 70.4978C17.6769 71.5055 18.7549 72.0715 19.8788 72.0715H101.703C102.259 72.0715 102.81 71.9326 103.324 71.6625C103.838 71.3925 104.306 70.9967 104.699 70.4978C105.093 69.9988 105.405 69.4065 105.618 68.7546C105.831 68.1027 105.94 67.404 105.94 66.6984V65.9244C105.94 65.6696 105.861 65.4252 105.719 65.2451C105.576 65.065 105.384 64.9637 105.183 64.9637H71.4864Z" fill="#535461"/>
<path d="M35.2622 21.4565V60.8345H86.6217" stroke="#535461" stroke-width="2" stroke-miterlimit="10"/>
<path opacity="0.5" d="M45.1089 48.9254H39.8067V59.2985H45.1089V48.9254Z" fill="#FF4D85"/>
<path opacity="0.7" d="M54.1994 39.7046H48.8972V59.2986H54.1994V39.7046Z" fill="#FF4D85"/>
<path opacity="0.5" d="M63.2898 45.2747H57.9876V59.2968H63.2898V45.2747Z" fill="#FF4D85"/>
<path opacity="0.8" d="M72.3803 36.6309H67.0781V59.2985H72.3803V36.6309Z" fill="#FF4D85"/>
<path d="M81.4708 28.5626H76.1686V59.2968H81.4708V28.5626Z" fill="#FF4D85"/>
<path d="M42.3822 42.5864L51.6239 32.0214L60.7144 42.0093L69.6536 29.9084L78.744 25.1054" stroke="#535461" stroke-width="2" stroke-miterlimit="10"/>
<path d="M42.3822 43.9305C42.9677 43.9305 43.4423 43.3287 43.4423 42.5864C43.4423 41.844 42.9677 41.2422 42.3822 41.2422C41.7967 41.2422 41.322 41.844 41.322 42.5864C41.322 43.3287 41.7967 43.9305 42.3822 43.9305Z" fill="#FF4D85"/>
<path d="M60.5631 43.1617C61.1486 43.1617 61.6232 42.5599 61.6232 41.8176C61.6232 41.0752 61.1486 40.4734 60.5631 40.4734C59.9776 40.4734 59.5029 41.0752 59.5029 41.8176C59.5029 42.5599 59.9776 43.1617 60.5631 43.1617Z" fill="#FF4D85"/>
<path d="M69.8049 31.2526C70.3904 31.2526 70.8651 30.6508 70.8651 29.9084C70.8651 29.1661 70.3904 28.5643 69.8049 28.5643C69.2193 28.5643 68.7447 29.1661 68.7447 29.9084C68.7447 30.6508 69.2193 31.2526 69.8049 31.2526Z" fill="#FF4D85"/>
<path d="M51.6239 33.1721C52.2094 33.1721 52.6841 32.5703 52.6841 31.8279C52.6841 31.0856 52.2094 30.4838 51.6239 30.4838C51.0384 30.4838 50.5637 31.0856 50.5637 31.8279C50.5637 32.5703 51.0384 33.1721 51.6239 33.1721Z" fill="#FF4D85"/>
<path d="M78.744 26.4496C79.3295 26.4496 79.8042 25.8477 79.8042 25.1054C79.8042 24.363 79.3295 23.7612 78.744 23.7612C78.1585 23.7612 77.6839 24.363 77.6839 25.1054C77.6839 25.8477 78.1585 26.4496 78.744 26.4496Z" fill="#FF4D85"/>
<path d="M118.187 66.6456C117.628 66.4124 116.8 66.1428 116.143 66.2379C115.517 65.9493 114.047 65.2012 113.043 64.0748C113.072 62.9672 113.049 61.8584 112.976 60.7541C112.462 53.3474 113.618 48.4649 113.618 48.4649C113.618 48.4649 114.525 44.7399 114.426 41.6491C114.484 41.789 114.517 41.8719 114.517 41.8719C114.596 39.2061 115.313 36.4469 115.85 34.7278C115.87 34.7204 115.89 34.7112 115.91 34.7002L116.509 32.8965C116.557 32.7913 116.595 32.6794 116.623 32.563L116.719 32.2779L116.691 32.2624C116.7 32.2157 116.71 32.1656 116.719 32.1155C117.102 30.0613 117.401 25.1891 117.401 25.1891C118.428 20.0613 115.989 16.8961 115.989 16.8961L111.849 12.3799C111.87 12.4387 111.883 12.5009 111.89 12.5647L111.856 12.5267C111.797 12.3142 111.733 12.0603 111.671 11.77C111.817 11.6371 111.953 11.4885 112.079 11.326C112.55 10.7624 112.874 10.03 113.007 9.22681C113.088 8.5987 113.108 7.96065 113.069 7.32632L113.001 5.14768C112.997 4.7213 112.963 4.29619 112.898 3.87781C112.586 2.1501 111.19 0.940696 109.787 0.861221C109.341 0.857928 108.895 0.887927 108.452 0.951063C108.089 0.988829 107.725 0.998637 107.362 0.980434C107.32 0.983214 107.279 0.969304 107.245 0.940697C107.213 0.90079 107.195 0.846886 107.194 0.790385C107.187 0.689268 107.196 0.587362 107.221 0.490843C107.246 0.394323 107.286 0.305199 107.339 0.228878C107.393 0.167884 107.457 0.121472 107.527 0.0923899L107.427 0.121761C107.476 0.0727269 107.531 0.0347415 107.591 0.00946045C107.227 0.0904864 106.878 0.251269 106.558 0.484581C106.47 0.558002 106.389 0.644413 106.317 0.742009C106.126 0.953988 106.002 1.24598 105.968 1.5644C105.797 1.38164 105.67 1.1424 105.6 0.873317C105.578 0.763284 105.578 0.648173 105.6 0.53814C105.575 0.57615 105.552 0.61531 105.529 0.655623C105.529 0.643529 105.529 0.631437 105.529 0.619343C105.266 1.02975 105.079 1.51063 104.984 2.0257C104.947 1.96992 104.92 1.90546 104.903 1.83605C104.886 1.76665 104.88 1.69369 104.886 1.62142C104.865 1.70262 104.846 1.78382 104.829 1.86502C104.822 1.81117 104.822 1.75647 104.829 1.70262C104.668 2.32549 104.596 2.97939 104.615 3.6342C104.615 4.28728 104.843 5.3049 105.395 5.53468C105.424 5.54678 105.453 5.55542 105.483 5.56406C105.172 6.17535 104.986 6.87474 104.942 7.59953C104.897 8.32431 104.995 9.05185 105.226 9.7169C105.458 10.382 105.816 10.9637 106.269 11.4101C106.721 11.8565 107.254 12.1535 107.82 12.2745C107.829 12.354 107.837 12.4375 107.845 12.525H107.867C107.882 12.6978 107.895 12.8878 107.903 13.0813C107.763 13.2543 107.611 13.4094 107.448 13.5444C106.984 13.8916 106.467 14.1084 105.932 14.1802C105.293 14.2437 104.672 14.4793 104.11 14.8712C103.449 15.3395 102.72 16.0219 102.492 16.8512C102.11 18.2334 100.009 20.3844 98.5997 20.6522L98.0982 20.6159L98.0614 20.6021V20.6142L97.9388 20.6055H97.932H97.8993V20.6142L97.7725 20.6055C97.7725 20.6055 97.7603 20.6798 97.7426 20.8111C97.034 20.5019 95.5282 19.6449 93.5687 17.3903C91.3884 14.8799 88.4382 15.374 87.3003 15.6902C87.2616 15.701 87.2264 15.7265 87.1995 15.7634C87.1725 15.8002 87.155 15.8466 87.1494 15.8964C87.1438 15.9461 87.1503 15.9969 87.168 16.0418C87.1857 16.0868 87.2138 16.1238 87.2485 16.148C87.7078 16.4677 88.4191 16.9324 88.7475 16.9842C88.7475 16.9842 88.0661 17.8878 88.7911 18.3664C88.8781 18.4197 88.9749 18.4416 89.0711 18.4298C89.1672 18.4179 89.259 18.3726 89.3362 18.299C89.6877 17.9725 90.6648 18.7119 92.0806 19.0972C92.0806 19.0972 96.076 24.3391 98.0601 25.1442C98.1058 25.2587 98.1563 25.37 98.2113 25.4777L98.334 25.4656V25.4777H98.3857L98.4007 25.6504C98.4007 25.6504 101.486 25.4448 102.489 24.0247C102.56 23.9441 102.625 23.8556 102.684 23.7603L101.611 40.8647H101.621L101.611 41.0271H102.4C102.468 43.1307 102.396 45.2378 102.186 47.3263V58.477C102.186 58.477 102.145 59.4583 103.753 60.8958C105.439 62.3839 107.064 63.9807 108.621 65.6798L108.816 65.894C108.52 69.3063 107.901 75.666 107.385 75.9027L107.704 75.9735C107.159 76.8495 105.611 79.2562 105.139 79.3201C104.561 79.4013 104.176 80.5416 105.139 80.7852C107.063 81.2074 109.041 80.9602 110.862 80.0699C111.044 79.9791 111.197 79.8136 111.295 79.6C111.394 79.3864 111.434 79.137 111.408 78.8916L111.221 77.0948C111.256 77.1197 111.285 77.1577 111.303 77.2037C111.431 77.6926 111.303 76.5523 111.303 76.5523C111.831 74.4011 112.245 72.2078 112.544 69.987L114.452 72.0775C114.452 72.0775 114.49 72.0171 114.557 71.9048C115.024 73.2489 115.858 75.9994 115.671 78.014C115.415 80.7783 117.852 78.3388 117.597 76.7113C117.39 75.3947 118.316 69.8142 118.677 67.7272C118.716 67.5018 118.688 67.2662 118.597 67.0662C118.506 66.8663 118.36 66.7163 118.187 66.6456V66.6456Z" fill="url(#paint1_linear)"/>
<path d="M98.2495 21.4962C98.2495 21.4962 96.4316 21.0988 93.7363 17.9993C91.6037 15.5477 88.727 16.0297 87.6178 16.339C87.58 16.3494 87.5456 16.3741 87.5193 16.41C87.4929 16.4459 87.4758 16.4911 87.4703 16.5396C87.4648 16.5882 87.4712 16.6377 87.4885 16.6815C87.5059 16.7253 87.5334 16.7613 87.5674 16.7847C88.0157 17.0957 88.7107 17.5501 89.0364 17.602C89.0364 17.602 88.3646 18.4831 89.0786 18.9547C89.1641 19.008 89.2596 19.03 89.3544 19.0184C89.4492 19.0069 89.5396 18.9621 89.6155 18.8891C89.9589 18.5712 90.9128 19.2934 92.2959 19.6683C92.2959 19.6683 97.6867 26.7415 98.9403 25.5425L98.2495 21.4962Z" fill="#FEC3BE"/>
<path d="M107.531 11.8798C107.531 11.8798 108.032 14.5819 107.531 16.4893L109.787 16.8867L111.793 15.6151V13.9461C111.793 13.9461 110.853 11.4029 111.104 8.46234L107.531 11.8798Z" fill="#FEC3BE"/>
<path d="M113.92 70.4492C113.92 70.4492 115.556 74.5024 115.299 77.2046C115.043 79.9067 117.431 77.5225 117.18 75.933C116.977 74.6475 117.882 69.1949 118.235 67.1666C118.273 66.9474 118.245 66.718 118.158 66.5229C118.07 66.3278 117.929 66.181 117.76 66.1109C117.007 65.7965 115.745 65.4112 115.111 66.0003C114.175 66.8728 113.92 70.4492 113.92 70.4492Z" fill="#8B416F"/>
<path d="M107.719 74.8998C107.719 74.8998 105.588 78.3967 105.023 78.4761C104.459 78.5556 104.083 79.6683 105.023 79.9067C106.901 80.321 108.832 80.0821 110.61 79.2156C110.788 79.1276 110.938 78.9663 111.035 78.7577C111.132 78.549 111.171 78.3051 111.146 78.065L110.786 74.6614L107.719 74.8998Z" fill="#8B416F"/>
<path d="M104.208 37.7868L102.164 38.1323C102.445 41.1593 102.437 44.2181 102.14 47.2426V58.1272C102.14 58.1272 102.1 59.0861 103.67 60.4803C105.316 61.9313 106.903 63.4883 108.423 65.1451L114.111 71.3925C114.111 71.3925 116.368 67.8957 116.054 65.8293C116.054 65.8293 112.293 64.3193 111.792 61.8556C111.504 60.4458 110.046 59.264 108.853 58.5211C108.102 58.0591 107.499 57.2854 107.143 56.3288C106.788 55.3721 106.701 54.2899 106.897 53.2619C106.967 52.9047 107.074 52.5612 107.217 52.2409C108.22 50.0156 109.662 45.0086 109.662 45.0086L106.904 38.3431L104.208 37.7868Z" fill="#4D4981"/>
<path opacity="0.05" d="M104.208 37.7868L102.164 38.1323C102.445 41.1593 102.437 44.2181 102.14 47.2426V58.1272C102.14 58.1272 102.1 59.0861 103.67 60.4803C105.316 61.9313 106.903 63.4883 108.423 65.1451L114.111 71.3925C114.111 71.3925 116.368 67.8957 116.054 65.8293C116.054 65.8293 112.293 64.3193 111.792 61.8556C111.504 60.4458 110.046 59.264 108.853 58.5211C108.102 58.0591 107.499 57.2854 107.143 56.3288C106.788 55.3721 106.701 54.2899 106.897 53.2619C106.967 52.9047 107.074 52.5612 107.217 52.2409C108.22 50.0156 109.662 45.0086 109.662 45.0086L106.904 38.3431L104.208 37.7868Z" fill="black"/>
<path d="M107.217 75.1434C107.217 75.1434 110.916 75.9382 111.041 76.415C111.166 76.8918 111.041 75.7792 111.041 75.7792C111.041 75.7792 113.172 67.5933 112.676 60.3628C112.18 53.1323 113.303 48.3621 113.303 48.3621C113.303 48.3621 114.619 42.9578 113.867 39.8583C113.115 36.7588 105.217 38.1099 105.217 38.1099C105.217 38.1099 107.975 46.2958 107.912 50.19C107.912 50.19 108.226 61.9523 108.79 63.3034C108.784 63.2965 107.907 74.8203 107.217 75.1434Z" fill="#4D4981"/>
<path d="M107.652 13.9461C107.652 13.9461 108.028 16.8832 111.789 15.615L109.287 39.7737C109.287 39.7737 102.016 40.0916 102.079 38.9789L103.578 24.3573L107.652 13.9461Z" fill="white"/>
<path opacity="0.1" d="M107.75 13.7872C107.26 14.3985 106.622 14.7826 105.939 14.8774C105.315 14.938 104.708 15.1665 104.159 15.5477C103.515 16.0056 102.797 16.6707 102.579 17.481C102.14 19.0705 99.3819 21.6932 98.1282 21.1369L98.567 25.9053C98.567 25.9053 102.14 25.6669 102.767 23.9185L101.703 40.9347H102.643C102.643 40.9347 103.144 36.3252 103.52 35.3715C103.896 34.4178 104.649 29.1725 104.711 27.9009C104.774 26.6293 105.714 19.3176 106.529 18.0529L107.756 14.2778L107.75 13.7872Z" fill="black"/>
<path opacity="0.1" d="M107.75 14.0256C107.19 14.5811 106.52 14.9308 105.814 15.0363C105.19 15.0982 104.584 15.3279 104.035 15.7101C103.391 16.1679 102.673 16.8331 102.455 17.6434C102.016 19.2329 99.2579 21.8556 98.0042 21.2992L98.443 26.0677C98.443 26.0677 102.016 25.8293 102.643 24.0809L101.577 41.0867H102.517C102.517 41.0867 103.019 36.4772 103.395 35.5235C103.771 34.5698 104.523 29.3245 104.586 28.0529C104.649 26.7813 105.589 19.4696 106.404 18.2049L107.75 14.5007V14.0256Z" fill="black"/>
<path d="M107.75 13.8666C107.19 14.4222 106.52 14.7718 105.814 14.8773C105.19 14.938 104.583 15.1665 104.034 15.5477C103.39 16.0055 102.671 16.6707 102.453 17.481C102.015 19.0705 99.2565 21.6931 98.0028 21.1368L98.4416 25.9053C98.4416 25.9053 102.015 25.6669 102.641 23.9184L101.577 40.9347H102.517C102.517 40.9347 103.019 36.3251 103.395 35.3714C103.771 34.4177 104.523 29.1724 104.586 27.9008C104.649 26.6292 105.589 19.3175 106.404 18.0529L107.751 14.3573L107.75 13.8666Z" fill="#FD6F8D"/>
<path opacity="0.1" d="M110.947 10.8069C110.865 10.0536 111.029 9.58364 111.104 8.70078L107.531 12.1182C107.531 12.1182 107.617 12.5795 107.682 13.255C107.862 13.2919 108.044 13.3104 108.227 13.3103C109.467 13.3103 110.36 12.0819 110.947 10.8069Z" fill="black"/>
<path d="M108.22 13.0736C110.09 13.0736 111.605 11.1522 111.605 8.78196C111.605 6.41176 110.09 4.49033 108.22 4.49033C106.351 4.49033 104.835 6.41176 104.835 8.78196C104.835 11.1522 106.351 13.0736 108.22 13.0736Z" fill="#FEC3BE"/>
<path opacity="0.1" d="M104.526 4.575C104.504 3.85126 104.597 3.12931 104.799 2.45164C104.743 2.55826 104.719 2.68698 104.732 2.81401C104.745 2.94104 104.794 3.0578 104.869 3.14273C104.979 2.40415 105.278 1.7322 105.72 1.23188C105.479 1.28198 105.355 1.66035 105.414 1.96097C105.496 2.2546 105.641 2.51325 105.833 2.70734C105.812 2.25296 106.049 1.82794 106.349 1.57915C106.662 1.35167 107.003 1.19498 107.358 1.11612C107.236 1.17087 107.132 1.27514 107.062 1.41266C106.992 1.55018 106.96 1.71321 106.971 1.87631C106.972 1.93173 106.99 1.98443 107.021 2.02317C107.055 2.05079 107.095 2.06409 107.136 2.06118C107.489 2.07843 107.842 2.06862 108.194 2.03181C108.627 1.97003 109.063 1.9406 109.498 1.9437C110.861 2.01626 112.231 3.19629 112.536 4.88081C112.599 5.28953 112.632 5.7048 112.635 6.1213L112.702 8.24812C112.741 8.8686 112.721 9.49274 112.642 10.1071C112.548 10.6743 112.356 11.2081 112.08 11.6704C111.804 12.1327 111.451 12.5122 111.046 12.7816C110.555 11.878 110.511 10.717 110.341 9.64065C110.314 9.39226 110.241 9.15545 110.128 8.94957C110.07 8.84777 109.988 8.77146 109.894 8.73122C109.8 8.69098 109.698 8.6888 109.603 8.72497C109.419 8.81826 109.34 9.17417 109.493 9.33312C109.357 9.53699 109.102 9.38495 108.948 9.20354C108.518 8.68633 108.222 8.01578 108.099 7.2806C108.038 6.91087 107.976 6.45475 107.69 6.32863C107.592 6.29433 107.489 6.28552 107.388 6.30271C106.791 6.35454 105.857 6.66726 105.28 6.42711C104.749 6.20769 104.526 5.21253 104.526 4.575Z" fill="black"/>
<path d="M104.589 4.4955C104.567 3.77175 104.66 3.04981 104.861 2.37214C104.805 2.47876 104.782 2.60748 104.795 2.73451C104.808 2.86154 104.856 2.9783 104.932 3.06323C105.041 2.32465 105.34 1.6527 105.782 1.15238C105.541 1.20248 105.417 1.58085 105.477 1.88147C105.559 2.1751 105.704 2.43375 105.895 2.62784C105.875 2.17345 106.112 1.74844 106.412 1.49965C106.724 1.27217 107.066 1.11548 107.42 1.03662C107.299 1.09137 107.195 1.19564 107.125 1.33316C107.055 1.47068 107.023 1.63371 107.033 1.79681C107.034 1.85223 107.052 1.90493 107.084 1.94367C107.118 1.97129 107.158 1.98459 107.198 1.98168C107.551 1.99893 107.905 1.98912 108.257 1.95231C108.69 1.89052 109.125 1.8611 109.561 1.86419C110.924 1.93676 112.293 3.11679 112.599 4.80131C112.662 5.21003 112.695 5.6253 112.698 6.0418L112.765 8.16862C112.804 8.7891 112.783 9.41324 112.705 10.0276C112.61 10.5948 112.418 11.1286 112.143 11.5909C111.867 12.0532 111.514 12.4327 111.109 12.7021C110.617 11.7985 110.574 10.6375 110.403 9.56115C110.376 9.31276 110.304 9.07595 110.191 8.87007C110.132 8.76827 110.051 8.69196 109.957 8.65172C109.863 8.61148 109.761 8.60929 109.666 8.64547C109.482 8.73876 109.403 9.09467 109.556 9.25362C109.419 9.45749 109.165 9.30545 109.011 9.12404C108.581 8.60683 108.285 7.93628 108.162 7.2011C108.1 6.83137 108.039 6.37525 107.753 6.24913C107.654 6.21483 107.552 6.20601 107.45 6.22321C106.853 6.27504 105.92 6.58776 105.342 6.34761C104.812 6.12646 104.589 5.13303 104.589 4.4955Z" fill="#784F69"/>
<path opacity="0.1" d="M97.8407 21.1386C97.8407 21.1386 97.3392 24.0757 98.2794 25.9071L98.8122 25.8518L98.522 21.187L97.8407 21.1386Z" fill="black"/>
<path d="M97.9769 21.1386C97.9769 21.1386 97.4755 24.0757 98.4157 25.9071L98.9485 25.8518L98.6583 21.187L97.9769 21.1386Z" fill="#FD6F8D"/>
<path opacity="0.1" d="M111.448 13.1185L115.491 17.5294C115.491 17.5294 117.873 20.6289 116.871 25.6358C116.871 25.6358 116.432 32.9475 115.93 33.2654C115.93 33.2654 114.175 37.716 114.05 41.9281C114.05 41.9281 111.699 35.9278 110.634 39.5836C109.568 43.2395 107.091 43.756 107.091 43.756L108.47 22.132C108.47 22.132 111.95 14.4627 111.448 13.1185Z" fill="black"/>
<path d="M111.574 13.1185L115.617 17.5294C115.617 17.5294 117.999 20.6289 116.996 25.6358C116.996 25.6358 116.557 32.9475 116.056 33.2654C116.056 33.2654 114.3 37.716 114.175 41.9281C114.175 41.9281 111.699 35.6099 110.632 39.2657C109.565 42.9216 107.216 43.7578 107.216 43.7578L108.595 22.1424C108.595 22.1424 112.075 14.4627 111.574 13.1185Z" fill="#FD6F8D"/>
<path d="M113.423 31.7485C113.423 31.7485 114.426 30.8742 116.056 33.2585L112.044 42.4776L110.696 39.8981C110.696 39.8981 113.548 32.7816 113.423 31.7485Z" fill="#FEC3BE"/>
<path opacity="0.1" d="M112.451 32.265C112.451 32.265 114.67 35.4233 115.535 34.917L116.336 32.5518L113.329 30.9139L112.451 32.265Z" fill="black"/>
<path d="M112.451 32.1061C112.451 32.1061 114.67 35.2643 115.535 34.7581L116.336 32.3929L113.329 30.755L112.451 32.1061Z" fill="#FD6F8D"/>
<path opacity="0.1" d="M110.832 39.2951C110.832 39.2951 111.889 42.0387 112.451 42.1977L111.634 43.3898L110.443 40.5287L110.832 39.2951Z" fill="black"/>
<path d="M110.77 39.3798C110.77 39.3798 111.826 42.1234 112.389 42.2823L111.571 43.4744L110.377 40.6082L110.77 39.3798Z" fill="#4D4981"/>
<path opacity="0.1" d="M112.765 22.4102C112.765 22.4102 112.89 28.1323 112.389 30.2782Z" fill="black"/>
<path opacity="0.1" d="M102.61 23.5228C102.61 23.5228 103.362 23.2049 103.362 22.4102Z" fill="black"/>
<path d="M11.268 24.48C11.268 24.48 7.69507 33.8511 10.0416 44.9413C12.3882 56.0315 11.6428 69.302 9.30304 72.5847" stroke="#535461" stroke-width="2" stroke-miterlimit="10"/>
<path d="M11.268 25.7308C11.8122 25.7308 12.2533 25.1716 12.2533 24.4817C12.2533 23.7918 11.8122 23.2325 11.268 23.2325C10.7239 23.2325 10.2828 23.7918 10.2828 24.4817C10.2828 25.1716 10.7239 25.7308 11.268 25.7308Z" fill="#FF4D85"/>
<path d="M9.7827 30.508C9.7827 30.508 13.4865 31.3546 14.4717 29.6441" stroke="#535461" stroke-width="2" stroke-miterlimit="10"/>
<path d="M9.43113 33.2291C9.43113 33.2291 7.20315 30.1037 7.32579 28.2291" stroke="#535461" stroke-width="2" stroke-miterlimit="10"/>
<path d="M9.24171 38.9547C9.24171 38.9547 11.268 39.632 13.1172 34.6354" stroke="#535461" stroke-width="2" stroke-miterlimit="10"/>
<path d="M9.7827 43.1185C9.7827 43.1185 4.74078 39.0048 5.35535 36.3511" stroke="#535461" stroke-width="2" stroke-miterlimit="10"/>
<path d="M10.5703 47.8265C10.5703 47.8265 14.1024 43.8528 13.7331 39.943" stroke="#535461" stroke-width="2" stroke-miterlimit="10"/>
<path d="M10.9546 50.5943C10.9546 50.5943 6.45776 49.0014 6.59402 46.5031" stroke="#535461" stroke-width="2" stroke-miterlimit="10"/>
<path d="M11.268 53.8926C11.268 53.8926 14.1011 50.565 14.4703 48.5366" stroke="#535461" stroke-width="2" stroke-miterlimit="10"/>
<path d="M11.4656 59.5508C11.4656 59.5508 8.55902 55.2488 8.43501 53.0632" stroke="#535461" stroke-width="2" stroke-miterlimit="10"/>
<path d="M11.4656 63.1117C11.4656 63.1117 14.7183 58.5297 14.9636 56.3442" stroke="#535461" stroke-width="2" stroke-miterlimit="10"/>
<path d="M7.32578 29.7909C7.86991 29.7909 8.31101 29.2317 8.31101 28.5418C8.31101 27.8519 7.86991 27.2927 7.32578 27.2927C6.78166 27.2927 6.34056 27.8519 6.34056 28.5418C6.34056 29.2317 6.78166 29.7909 7.32578 29.7909Z" fill="#FF4D85"/>
<path d="M6.21793 47.7522C6.76205 47.7522 7.20315 47.193 7.20315 46.5031C7.20315 45.8132 6.76205 45.254 6.21793 45.254C5.67381 45.254 5.23271 45.8132 5.23271 46.5031C5.23271 47.193 5.67381 47.7522 6.21793 47.7522Z" fill="#FF4D85"/>
<path d="M5.35535 37.6002C5.89947 37.6002 6.34057 37.0409 6.34057 36.3511C6.34057 35.6612 5.89947 35.1019 5.35535 35.1019C4.81123 35.1019 4.37013 35.6612 4.37013 36.3511C4.37013 37.0409 4.81123 37.6002 5.35535 37.6002Z" fill="#FF4D85"/>
<path d="M14.4717 30.8846C15.0158 30.8846 15.4569 30.3254 15.4569 29.6355C15.4569 28.9456 15.0158 28.3864 14.4717 28.3864C13.9276 28.3864 13.4865 28.9456 13.4865 29.6355C13.4865 30.3254 13.9276 30.8846 14.4717 30.8846Z" fill="#FF4D85"/>
<path d="M14.4717 50.0951C15.0158 50.0951 15.4569 49.5358 15.4569 48.8459C15.4569 48.156 15.0158 47.5967 14.4717 47.5967C13.9276 47.5967 13.4865 48.156 13.4865 48.8459C13.4865 49.5358 13.9276 50.0951 14.4717 50.0951Z" fill="#FF4D85"/>
<path d="M12.8706 35.8829C13.4147 35.8829 13.8558 35.3236 13.8558 34.6337C13.8558 33.9438 13.4147 33.3846 12.8706 33.3846C12.3264 33.3846 11.8853 33.9438 11.8853 34.6337C11.8853 35.3236 12.3264 35.8829 12.8706 35.8829Z" fill="#FF4D85"/>
<path d="M14.841 58.3742C15.3851 58.3742 15.8262 57.815 15.8262 57.1251C15.8262 56.4352 15.3851 55.8759 14.841 55.8759C14.2969 55.8759 13.8558 56.4352 13.8558 57.1251C13.8558 57.815 14.2969 58.3742 14.841 58.3742Z" fill="#FF4D85"/>
<path d="M8.18836 55.0932C8.73248 55.0932 9.17358 54.534 9.17358 53.8441C9.17358 53.1542 8.73248 52.595 8.18836 52.595C7.64424 52.595 7.20314 53.1542 7.20314 53.8441C7.20314 54.534 7.64424 55.0932 8.18836 55.0932Z" fill="#FF4D85"/>
<path d="M13.8558 41.1921C14.3999 41.1921 14.841 40.6329 14.841 39.943C14.841 39.2531 14.3999 38.6938 13.8558 38.6938C13.3116 38.6938 12.8705 39.2531 12.8705 39.943C12.8705 40.6329 13.3116 41.1921 13.8558 41.1921Z" fill="#FF4D85"/>
</g>
<defs>
<linearGradient id="paint0_linear" x1="60.7907" y1="72.7885" x2="60.7907" y2="9.59745" gradientUnits="userSpaceOnUse">
<stop stop-color="#808080" stop-opacity="0.25"/>
<stop offset="0.54" stop-color="#808080" stop-opacity="0.12"/>
<stop offset="1" stop-color="#808080" stop-opacity="0.1"/>
</linearGradient>
<linearGradient id="paint1_linear" x1="27795.8" y1="52130.1" x2="27795.8" y2="14176.5" gradientUnits="userSpaceOnUse">
<stop stop-color="#808080" stop-opacity="0.25"/>
<stop offset="0.54" stop-color="#808080" stop-opacity="0.12"/>
<stop offset="1" stop-color="#808080" stop-opacity="0.1"/>
</linearGradient>
<clipPath id="clip0">
<rect width="130" height="95" fill="white"/>
</clipPath>
</defs>
</svg>
