<svg width="130" height="95" viewBox="0 0 130 95" fill="none" xmlns="http://www.w3.org/2000/svg">
<g clip-path="url(#clip0)">
<path opacity="0.4" d="M109.719 36.5238C111.439 36.5238 112.834 35.1678 112.834 33.4951C112.834 31.8225 111.439 30.4665 109.719 30.4665C107.999 30.4665 106.604 31.8225 106.604 33.4951C106.604 35.1678 107.999 36.5238 109.719 36.5238Z" fill="#FF4D85"/>
<path opacity="0.4" d="M44.0426 19.8613C46.495 19.8613 48.4831 17.9284 48.4831 15.5439C48.4831 13.1595 46.495 11.2265 44.0426 11.2265C41.5902 11.2265 39.6021 13.1595 39.6021 15.5439C39.6021 17.9284 41.5902 19.8613 44.0426 19.8613Z" fill="#FF4D85"/>
<path opacity="0.4" d="M35.8244 20.6346C37.5447 20.6346 38.9394 19.2787 38.9394 17.606C38.9394 15.9333 37.5447 14.5773 35.8244 14.5773C34.104 14.5773 32.7094 15.9333 32.7094 17.606C32.7094 19.2787 34.104 20.6346 35.8244 20.6346Z" fill="#FF4D85"/>
<path d="M112.328 67.3631C109.867 69.9831 109.777 73.7996 109.777 73.7996C109.777 73.7996 113.678 73.3683 116.14 70.7483C118.601 68.1284 118.69 64.3119 118.69 64.3119C118.69 64.3119 114.789 64.7432 112.328 67.3631Z" fill="#3F3D56"/>
<path d="M113.718 68.1171C112.973 71.5908 109.843 73.8946 109.843 73.8946C109.843 73.8946 107.92 70.5664 108.664 67.0928C109.409 63.6191 112.54 61.3152 112.54 61.3152C112.54 61.3152 114.463 64.6434 113.718 68.1171Z" fill="#FF4D85"/>
<path d="M110.522 32.2731V73.6828L96.3248 85.0856H23.6954V41.6754L44.8875 32.2731H110.522Z" fill="#3F3D56"/>
<path opacity="0.1" d="M110.522 32.2731V32.4391L105.425 35.7559L96.3248 41.6754H23.6954L44.8875 32.2731H110.522Z" fill="black"/>
<path opacity="0.1" d="M110.522 32.2731V73.6828L96.3249 85.0856L96.4277 41.5754L105.425 35.7559L110.439 32.2731H110.522Z" fill="black"/>
<path d="M91.3868 37.9745H47.1508L50.4428 36.174H92.8272L91.3868 37.9745Z" fill="#2F2E41"/>
<path d="M129.566 87.3379C129.566 87.3379 130.423 90.8247 129.644 90.9763C128.864 91.1279 125.044 91.079 124.108 91.2306C123.173 91.3822 121.224 91.1279 121.224 90.4457C121.224 89.7635 123.251 89.3087 123.251 89.3087C123.251 89.3087 126.135 87.7927 126.213 87.7169C126.291 87.6411 129.566 87.3379 129.566 87.3379Z" fill="#2F2E41"/>
<path d="M128.864 66.796C128.864 66.796 128.63 69.3732 128.63 69.6006C128.63 69.828 128.864 73.3906 128.63 73.5422C128.396 73.6938 128.786 74.755 128.786 75.134C128.786 75.513 130.034 81.8045 129.722 84.2301C129.41 86.6557 130.189 86.4283 129.956 86.6557C129.722 86.8831 129.722 86.8831 129.722 87.3379C129.722 87.7927 127.227 88.1717 127.227 88.1717L124.498 71.4198L125.902 66.417L128.864 66.796Z" fill="#575A89"/>
<path opacity="0.1" d="M128.864 66.796C128.864 66.796 128.63 69.3732 128.63 69.6006C128.63 69.828 128.864 73.3906 128.63 73.5422C128.396 73.6938 128.786 74.755 128.786 75.134C128.786 75.513 130.034 81.8045 129.722 84.2301C129.41 86.6557 130.189 86.4283 129.956 86.6557C129.722 86.8831 129.722 86.8831 129.722 87.3379C129.722 87.7927 127.227 88.1717 127.227 88.1717L124.498 71.4198L125.902 66.417L128.864 66.796Z" fill="black"/>
<path d="M128.474 88.3991C128.474 88.3991 129.254 91.1279 128.474 91.2795C127.695 91.4311 123.875 91.1059 122.939 91.2575C122.003 91.4091 120.054 91.4311 120.054 90.7489C120.054 90.0667 122.081 89.6119 122.081 89.6119C122.081 89.6119 124.966 88.0959 125.044 88.0201C125.122 87.9443 128.474 88.3991 128.474 88.3991Z" fill="#2F2E41"/>
<path d="M129.566 63.764C129.566 63.764 130.501 65.9622 129.41 67.0992C128.318 68.2362 127.071 70.5102 127.071 70.6618C127.071 70.8134 129.254 85.8977 128.942 86.8831C128.63 87.8685 128.708 88.4749 128.786 88.6265C128.864 88.7781 128.006 89.6119 127.071 89.6119C126.135 89.6119 124.732 88.9297 124.576 88.3233C124.42 87.7169 124.81 82.4867 124.732 81.5013C124.654 80.5159 124.264 79.0757 124.108 78.7725C123.953 78.4693 123.095 78.1661 122.939 77.2565C122.783 76.3469 121.536 64.7494 121.926 64.3704C122.315 63.9914 129.566 63.764 129.566 63.764Z" fill="#575A89"/>
<path d="M123.641 46.3298C125.105 46.3298 126.291 45.176 126.291 43.7526C126.291 42.3293 125.105 41.1754 123.641 41.1754C122.177 41.1754 120.99 42.3293 120.99 43.7526C120.99 45.176 122.177 46.3298 123.641 46.3298Z" fill="#FFB9B9"/>
<path d="M125.278 45.0413C125.278 45.0413 124.732 47.8459 125.122 48.1491C125.512 48.4523 122.159 48.9071 122.159 48.9071C122.159 48.9071 121.77 45.1929 121.692 44.8139C121.614 44.4349 125.278 45.0413 125.278 45.0413Z" fill="#FFB9B9"/>
<path d="M121.692 48.6796C121.692 48.6796 122.627 46.0266 126.447 46.7846C126.447 46.7846 127.149 47.012 126.915 47.2394C126.681 47.4668 126.447 47.4668 126.759 47.6942C127.071 47.9216 127.461 47.6942 127.227 47.9216C126.993 48.149 129.332 49.5134 129.176 52.0906C129.02 54.6678 129.722 58.3063 129.176 58.9127C128.63 59.5191 129.566 62.1721 129.41 62.7027C129.254 63.2333 130.345 63.9155 129.878 64.1429C129.41 64.3703 120.99 65.7347 120.756 64.1429C120.522 62.5511 120.678 63.6881 120.444 63.3091C120.21 62.9301 120.132 62.2479 120.288 61.4141C120.444 60.5803 120.834 58.5337 120.678 57.7757C120.522 57.0177 120.678 50.6504 121.146 49.8924C121.614 49.1344 121.692 48.6796 121.692 48.6796Z" fill="#FF4D85"/>
<path d="M123.329 67.175C123.329 67.175 124.498 71.4956 123.017 71.4956C121.536 71.4956 121.614 67.0234 121.614 67.0234L123.329 67.175Z" fill="#FFB9B9"/>
<path d="M122.471 43.7527C122.471 43.9725 122.799 44.112 123.306 44.1438H123.307C123.522 44.1557 123.738 44.1516 123.953 44.1317C124.277 44.1029 124.411 44.3993 124.466 44.7904C124.557 45.4355 124.43 46.3398 124.576 46.4815C124.777 46.6771 126.244 46.4807 126.702 46.0373C126.774 45.9751 126.821 45.8912 126.837 45.7993C126.885 45.5285 127.023 45.2803 127.228 45.0921C127.499 44.8048 127.884 44.4864 128.318 43.9801C129.098 43.0705 128.318 42.9947 128.084 42.3125C127.851 41.6303 127.461 41.4029 127.461 40.9481C127.461 40.4933 125.668 40.1143 124.186 40.1901C122.705 40.2659 123.017 42.0851 123.017 42.0851C123.017 42.0851 122.929 42.3049 122.824 42.5884C122.681 42.9441 122.566 43.3094 122.477 43.6814C122.474 43.705 122.472 43.7288 122.471 43.7527V43.7527Z" fill="#2F2E41"/>
<path opacity="0.1" d="M122.783 49.8166C122.783 49.8166 125.434 49.665 125.668 53.455C125.901 57.2451 125.824 60.8077 125.824 60.8835C125.824 60.9593 124.732 68.1603 123.719 68.1603C122.705 68.1603 121.926 68.0087 121.692 67.6297C121.458 67.2507 122.315 61.7931 122.315 61.7931C122.315 61.7931 122.705 56.0323 122.081 54.2131C121.458 52.3938 121.38 50.044 122.783 49.8166Z" fill="black"/>
<path d="M122.393 49.4376C122.393 49.4376 125.044 49.286 125.278 53.076C125.512 56.866 125.434 60.4287 125.434 60.5045C125.434 60.5803 124.342 67.7813 123.329 67.7813C122.315 67.7813 121.536 67.6297 121.302 67.2507C121.068 66.8717 121.926 61.4141 121.926 61.4141C121.926 61.4141 122.315 55.6532 121.692 53.834C121.068 52.0148 120.99 49.665 122.393 49.4376Z" fill="#FF4D85"/>
<path d="M78.4393 12.3854C78.4393 12.3854 77.2841 9.20314 76.4498 10.2015C75.6155 11.1999 77.7334 12.8846 77.7334 12.8846L78.4393 12.3854Z" fill="#A0616A"/>
<path d="M83.8943 9.2655L83.1994 9.51591C83.1994 9.51591 82.8675 10.9502 82.9958 11.1998C83.1242 11.4494 83.1884 11.2622 82.9958 11.7614C82.8033 12.2606 82.2257 13.571 82.1615 13.7582C82.0973 13.9454 78.4393 12.5726 78.4393 11.8862C78.4393 11.8862 77.6692 12.7598 77.2841 12.947C77.2841 12.947 81.5198 15.9421 82.0973 16.3165C82.6749 16.6909 82.9958 16.5037 83.5092 16.0669C84.0226 15.6301 86.2046 12.011 86.2046 12.011L83.8943 9.2655Z" fill="#575A89"/>
<path d="M82.0332 31.4168C82.0332 31.4168 82.0974 32.1032 82.2257 32.1656C82.3541 32.228 83.3167 33.7879 82.2257 34.0999C81.1347 34.4119 80.493 34.2871 80.2363 34.4119C79.9796 34.5367 75.4872 34.7863 75.423 34.0999C75.3588 33.4135 77.605 33.2887 77.605 33.2887C77.605 33.2887 79.6587 31.9784 79.9796 31.292C80.3004 30.6056 82.0332 31.4168 82.0332 31.4168Z" fill="#2F2E41"/>
<path d="M95.061 32.6649C95.061 32.6649 96.6013 35.2232 96.2162 35.5352C95.8311 35.8472 92.0811 36.9841 91.5313 37.0327C90.8254 37.0951 90.312 36.5335 90.8895 36.2215C91.4671 35.9096 92.6865 34.5992 92.6865 34.1624V33.0392L95.061 32.6649Z" fill="#2F2E41"/>
<path d="M96.537 15.9421C96.537 15.9421 97.8847 17.5645 95.7669 20.1852L92.2372 24.5531C92.2372 24.5531 94.4192 27.9226 94.4834 29.6697C94.5476 31.4168 94.9968 31.0424 95.1252 31.7912C95.2535 32.54 95.8311 32.1656 95.3819 32.7272C94.9326 33.2888 93.264 33.788 92.7506 33.3512C92.574 33.1941 92.4361 33.0003 92.3472 32.7842C92.2583 32.5682 92.2207 32.3354 92.2372 32.1032C92.2372 31.8536 91.3388 30.4185 91.2746 29.9817C91.2104 29.5449 88.8359 25.9882 88.8359 25.9882C88.8359 25.9882 88.0658 23.8667 88.9642 22.6811C89.8627 21.4956 90.4564 19.8141 90.4564 19.8141C90.4564 19.8141 87.8091 22.9307 85.9479 23.6795C85.9479 23.6795 85.242 23.8043 85.3703 24.1163C85.4987 24.4283 85.3704 24.6155 85.1778 24.9274C84.9853 25.2394 83.6376 28.8585 83.1884 29.7945C82.7391 30.7305 82.9317 31.292 82.4182 31.604C81.9048 31.916 79.5945 31.6664 79.5945 31.3544C79.5945 31.0425 79.9154 30.2313 80.1079 29.7945C80.3004 29.3577 81.8407 24.3035 81.7123 23.4299C81.5839 22.5563 81.7765 21.3708 82.7391 20.8716C83.7018 20.3724 88.5792 16.3165 88.8359 16.3165C89.0926 16.3165 96.537 15.9421 96.537 15.9421Z" fill="#2F2E41"/>
<path d="M83.6376 6.14561C85.1262 6.14561 86.333 4.97227 86.333 3.52489C86.333 2.07751 85.1262 0.904175 83.6376 0.904175C82.149 0.904175 80.9422 2.07751 80.9422 3.52489C80.9422 4.97227 82.149 6.14561 83.6376 6.14561Z" fill="#A0616A"/>
<path d="M85.8196 3.77448C85.8196 3.77448 86.6539 5.20963 87.6807 5.39683C88.7076 5.58403 84.9853 8.45433 84.9853 8.45433C84.9853 8.45433 84.0868 5.70882 83.3167 5.58403C82.5466 5.45923 85.8196 3.77448 85.8196 3.77448Z" fill="#A0616A"/>
<path d="M83.1884 9.63987C83.1884 10.451 85.6912 12.7598 85.6912 12.7598L88.0658 14.6941C88.0658 14.6941 88.1299 15.3805 88.3866 15.4429C88.6433 15.5053 88.9642 15.5053 88.7075 15.8797C88.4508 16.2541 87.8091 17.0652 88.3866 17.19C88.5608 17.2158 88.7362 17.232 88.9122 17.2387C89.0663 17.2474 89.2472 17.2555 89.4507 17.263C89.9256 17.2793 90.5199 17.2899 91.1635 17.2855C91.3464 17.2849 91.5326 17.2828 91.7219 17.2793C94.1484 17.2325 96.9593 16.961 96.7295 16.0669C96.3445 14.5693 96.6012 14.0701 95.7669 13.259C94.9326 12.4478 93.5849 9.63987 93.5849 9.63987C93.5849 9.63987 90.8895 5.20961 88.6433 5.20961L88.1768 5.09043C87.96 5.0349 87.7307 5.04708 87.5215 5.12525C87.3122 5.20341 87.1335 5.3436 87.0107 5.52597C86.5602 6.193 85.8498 7.19511 85.4345 7.51833C84.7928 8.01752 84.6926 7.65935 84.6926 7.65935C84.6926 7.65935 83.1884 8.8287 83.1884 9.63987Z" fill="#575A89"/>
<path d="M88.9001 19.1244C88.9001 19.1244 87.039 21.9323 88.1941 22.4315C89.3493 22.9307 89.991 19.4988 89.991 19.4988L88.9001 19.1244Z" fill="#A0616A"/>
<path d="M85.3997 3.22891C85.2963 3.21622 85.2636 3.08931 85.2462 2.98936C85.1529 2.45409 84.7427 1.94651 84.1914 1.86011C83.9807 1.83285 83.7665 1.84964 83.563 1.90935C83.2715 1.98712 82.9978 2.11808 82.7566 2.29525C82.6386 2.40014 82.5021 2.48348 82.3537 2.54127C82.2525 2.57014 81.8231 2.75578 81.7227 2.78719C81.5021 2.85625 81.3195 3.08076 81.0923 3.0363C80.875 2.99378 80.7924 2.73856 80.7575 2.52567C80.6779 2.04067 80.9634 1.31699 81.2473 0.910739C81.4627 0.602452 81.8273 0.425029 82.1918 0.309603C82.6188 0.183579 83.0575 0.0988148 83.5016 0.0565414C84.1012 -0.012303 84.7221 -0.0488286 85.2967 0.131356C85.8713 0.311541 86.3944 0.752313 86.5017 1.32995C86.524 1.45028 86.5282 1.57353 86.5556 1.69287C86.6224 1.98399 86.8205 2.2287 86.9361 2.50501C87.0195 2.70794 87.0582 2.9256 87.0497 3.14396C87.0413 3.36233 86.9858 3.57655 86.887 3.77281C86.727 4.08571 86.4487 4.38639 86.5087 4.73093L86.0135 4.35125C85.9419 4.31171 85.8865 4.24951 85.8564 4.17502C85.8263 4.10052 85.8234 4.01825 85.8482 3.94193L85.9202 3.33901C85.9451 3.22977 85.9339 3.11568 85.8881 3.01303C85.668 2.63917 85.5722 3.25008 85.3997 3.22891Z" fill="#2F2E41"/>
<path opacity="0.1" d="M90.0553 14.819L89.4507 17.2631C90.0604 17.2844 90.8671 17.2956 91.722 17.2794C91.9376 16.6504 92.1436 15.9946 92.3015 15.3806C92.8791 13.1343 91.9164 9.70236 91.403 8.08001C90.8896 6.45766 89.6061 6.02087 89.6061 6.02087C89.0798 6.2008 88.5828 6.45294 88.13 6.76965C87.2957 7.33123 90.0553 14.819 90.0553 14.819Z" fill="black"/>
<path opacity="0.1" d="M89.5418 14.6942L88.9123 17.2388C89.0663 17.2475 89.2473 17.2556 89.4507 17.2631C89.9256 17.2793 90.5199 17.2899 91.1636 17.2855C91.3952 16.6173 91.6192 15.9122 91.788 15.2557C92.3656 13.0094 91.403 9.57752 90.8896 7.95517C90.3761 6.33282 89.2531 8.11116 89.2531 8.11116C89.2531 8.11116 89.7023 7.05039 88.868 7.61198C88.0337 8.17356 89.5418 14.6942 89.5418 14.6942Z" fill="black"/>
<path d="M89.3493 5.89606C89.3493 5.89606 90.6328 6.33284 91.1462 7.95519C91.6596 9.57754 92.6223 13.0094 92.0447 15.2558C91.4671 17.5021 90.2478 20.31 90.2478 20.31C90.2478 20.31 89.0284 19.4364 88.5792 19.6236L89.7985 14.6942C89.7985 14.6942 87.039 7.20642 87.8732 6.64483C88.326 6.32813 88.8231 6.07598 89.3493 5.89606V5.89606Z" fill="#575A89"/>
<path d="M90.306 37.1943L72.5504 1.21973L42.8617 15.0719L53.7805 37.1943H90.306Z" fill="#F2F2F2"/>
<path d="M66.542 15.3406L50.7732 22.698L51.2429 23.6496L67.0116 16.2922L66.542 15.3406Z" fill="#3F3D56"/>
<path d="M70.7169 23.7995L54.9482 31.1569L55.4178 32.1085L71.1866 24.7511L70.7169 23.7995Z" fill="#3F3D56"/>
<path d="M73.5848 10.3635L69.6697 12.1901L71.5485 15.9966L75.4635 14.17L73.5848 10.3635Z" fill="#3F3D56"/>
<path d="M77.7597 18.8223L73.8447 20.649L75.7234 24.4555L79.6384 22.6288L77.7597 18.8223Z" fill="#3F3D56"/>
<path d="M73.8545 7.72681L72.2422 12.1871L70.0687 11.4443L69.7712 12.2671L72.7882 13.298L74.7006 8.01599L73.8545 7.72681Z" fill="#57B894"/>
<path d="M78.0294 16.1857L76.4171 20.646L74.2437 19.9033L73.9463 20.726L76.963 21.7568L78.8756 16.4749L78.0294 16.1857Z" fill="#57B894"/>
<path d="M1.71356 78.5988L9.73538 76.9328L8.02185 69.1333L2.73439e-05 70.7994L1.71356 78.5988Z" fill="#F2F2F2"/>
<path d="M9.51226 67.0494C9.51226 67.0494 6.56583 69.0957 7.54797 69.9142C8.53012 70.7327 10.4944 67.4586 10.4944 67.4586L9.51226 67.0494Z" fill="#FFB9B9"/>
<path d="M23.122 70.1871C23.122 70.1871 22.5608 77.008 22.4205 77.9629C22.2802 78.9178 22.1399 87.5122 21.8593 88.4671C21.5786 89.422 21.298 91.7411 21.298 91.7411H19.6143C19.6143 91.7411 19.7547 87.5122 19.3337 85.8752C18.9128 84.2381 19.0531 79.7364 19.0531 79.7364C19.0531 79.7364 18.2113 71.6877 18.6322 70.5963C19.0531 69.505 23.122 70.1871 23.122 70.1871Z" fill="#FFB9B9"/>
<path d="M20.8771 91.3319C20.8771 91.3319 21.5786 91.7412 21.5786 92.014C21.5786 92.2868 21.4383 92.9689 21.5786 93.2418C21.7189 93.5146 22.7011 94.606 22.1398 94.8788C21.5786 95.1516 19.0531 94.8788 19.0531 94.8788C19.0531 94.8788 19.1934 92.9689 19.3337 92.8325C19.474 92.6961 19.1934 91.3319 19.1934 91.3319H20.8771Z" fill="#2F2E41"/>
<path d="M12.3964 70.02C12.3964 70.02 12.2181 76.8605 12.2546 77.8244C12.291 78.7884 11.5027 87.3496 11.6787 88.3279C11.8547 89.3062 11.8834 91.6411 11.8834 91.6411L13.5577 91.813C13.5577 91.813 13.8748 87.593 14.4701 86.008C15.0654 84.423 15.4119 79.9317 15.4119 79.9317C15.4119 79.9317 17.118 72.0134 16.8172 70.8852C16.5164 69.7569 12.3964 70.02 12.3964 70.02Z" fill="#FFB9B9"/>
<path d="M12.3461 91.277C12.3461 91.277 11.6043 91.6124 11.5748 91.8838C11.5454 92.1551 11.6113 92.8477 11.4423 93.1047C11.2733 93.3617 10.1788 94.3468 10.7074 94.6754C11.2361 95.004 13.7771 94.9904 13.7771 94.9904C13.7771 94.9904 13.8438 93.0768 13.719 92.9268C13.5942 92.7768 14.0205 91.4489 14.0205 91.4489L12.3461 91.277Z" fill="#2F2E41"/>
<path d="M21.1577 59.9557C21.1577 59.9557 22.2801 60.0922 22.7011 62.4113C23.122 64.7304 24.6654 70.5964 23.4026 71.0056C22.1398 71.4149 18.3516 72.2334 18.2113 71.9606C18.071 71.6877 17.7903 71.0056 17.7903 71.0056C17.7903 71.0056 18.2113 72.2334 17.65 72.2334C17.0888 72.2334 11.6169 71.4149 11.7572 71.0056C11.8975 70.5964 12.1781 67.5952 12.1781 67.5952C12.1781 67.5952 13.0199 62.5477 13.8618 61.7292C14.1054 61.5018 14.2945 61.225 14.4158 60.9185C14.537 60.612 14.5874 60.2833 14.5633 59.9557H21.1577Z" fill="#2F2E41"/>
<path d="M23.2623 58.8643C23.2623 58.8643 21.4383 58.4551 21.1577 59.0007C20.8771 59.5464 21.8592 60.3649 22.2801 60.3649C22.7011 60.3649 23.4026 59.9557 23.4026 59.9557L23.2623 58.8643Z" fill="#FFB9B9"/>
<path d="M19.474 47.2688C20.8688 47.2688 21.9995 46.1694 21.9995 44.8133C21.9995 43.4571 20.8688 42.3577 19.474 42.3577C18.0792 42.3577 16.9485 43.4571 16.9485 44.8133C16.9485 46.1694 18.0792 47.2688 19.474 47.2688Z" fill="#FFB9B9"/>
<path d="M19.0531 46.5867C19.0531 46.5867 18.6322 48.4966 18.9128 48.4966C19.1934 48.4966 16.8082 49.7243 16.8082 49.7243L14.9842 49.4515L14.423 48.633C14.423 48.633 17.3694 46.7231 17.3694 45.6318C17.3694 44.5404 19.0531 46.5867 19.0531 46.5867Z" fill="#FFB9B9"/>
<path d="M17.7904 48.4965C17.7904 48.4965 18.2113 48.2236 18.3516 48.2236H19.474C19.6143 48.2236 21.4383 48.6329 21.4383 48.6329L22.5608 54.7717C22.5608 54.7717 20.5965 57.9093 21.9995 60.3649C21.9995 60.3649 21.5786 60.0921 19.6143 60.2285C17.65 60.3649 14.1424 60.7741 14.0021 60.7741C13.8618 60.7741 13.8618 59.6828 14.0021 59.41C14.1424 59.1371 13.8618 59.2735 13.8618 58.5914C13.8618 57.9094 13.4409 56.6816 13.4409 56.6816L11.4766 49.7242C11.4766 49.7242 14.0021 48.36 14.423 48.4965C14.8439 48.6329 16.1067 49.0421 16.3873 48.9057C16.6679 48.7693 17.7904 48.4965 17.7904 48.4965Z" fill="#FF4D85"/>
<path d="M21.0174 48.7694L21.4383 48.633C21.4383 48.633 22.2801 48.4966 23.2623 49.3151C24.2444 50.1336 27.8924 52.5891 27.8924 52.5891C27.8924 52.5891 29.2955 53.6804 28.8746 54.9082C28.4536 56.136 27.7521 59.1372 25.6475 59.0007C25.6475 59.0007 24.3847 60.6378 23.6832 60.3649C22.9817 60.0921 22.4205 59.0007 22.8414 58.8643C23.2623 58.7279 24.3847 57.3637 24.3847 57.3637L22.9817 54.7718H22.5608L21.0174 53.9533L21.0174 48.7694Z" fill="#FF4D85"/>
<path d="M12.599 49.5879L11.4765 49.7243C11.4765 49.7243 10.4944 50.1336 10.6347 51.907C10.775 53.6804 9.79286 61.7291 10.2138 62.684C10.2138 62.684 8.81072 67.3222 9.09134 67.4586C9.37195 67.595 11.0556 68.4135 10.9153 67.8679C10.775 67.3222 12.4587 63.5025 12.4587 63.5025C12.4587 63.5025 14.423 61.4562 13.5811 58.5915V56.2724L12.599 49.5879Z" fill="#FF4D85"/>
<path d="M21.5759 47.1873L19.7923 47.5651L19.563 46.7112L19.6512 47.595L16.7738 48.2045L16.6472 47.7331L16.6959 48.221L14.8529 48.6114L14.4586 44.9317C14.0533 43.4218 15.5326 41.8125 17.0856 41.4184L17.7745 41.2436C18.9151 40.9541 20.9884 41.2173 21.2861 42.3263C20.7651 44.2598 19.8769 46.3795 21.5759 47.1873Z" fill="#2F2E41"/>
</g>
<defs>
<clipPath id="clip0">
<rect width="130" height="95" fill="white"/>
</clipPath>
</defs>
</svg>
