<svg width="130" height="95" viewBox="0 0 130 95" fill="none" xmlns="http://www.w3.org/2000/svg">
<g clip-path="url(#clip0)">
<path d="M7.77142 89.8929C7.77142 89.8929 2.20744 89.5852 2.86295 93.1601C2.86295 93.1601 2.73132 93.7911 3.35656 94.0782C3.35656 94.0782 3.36709 93.8128 3.92783 93.9033C4.12736 93.9341 4.33018 93.943 4.53201 93.9298C4.80524 93.9127 5.06494 93.8144 5.27177 93.6499V93.6499C5.27177 93.6499 6.83553 93.0575 7.44498 90.7145C7.44498 90.7145 7.89515 90.2029 7.87672 90.0714L6.9382 90.4334C6.9382 90.4334 7.25806 91.0547 7.00665 91.5699C7.00665 91.5699 6.97506 90.4563 6.79472 90.4841C6.75787 90.4901 6.3077 90.7 6.3077 90.7C6.3077 90.7 6.85922 91.7859 6.43933 92.5677C6.43933 92.5677 6.59728 91.2345 6.13131 90.7772L5.47316 91.1319C5.47316 91.1319 6.11947 92.2492 5.68114 93.1601C5.68114 93.1601 5.79302 91.7617 5.33495 91.2176L4.73604 91.6459C4.73604 91.6459 5.34154 92.7474 4.97166 93.5027C4.97166 93.5027 4.92427 91.8751 4.60572 91.7521C4.60572 91.7521 4.07921 92.1756 4.00155 92.3553C4.00155 92.3553 4.41749 93.154 4.1595 93.5763C4.1595 93.5763 4.00155 92.4905 3.87255 92.4905C3.87255 92.4905 3.34603 93.2083 3.29601 93.697C3.29601 93.697 3.31839 92.9634 3.74487 92.4169C3.44383 92.4688 3.16602 92.6005 2.94588 92.7957C2.94588 92.7957 3.02749 92.2878 3.87386 92.2431C3.87386 92.2431 4.30561 91.699 4.42144 91.6652C4.42144 91.6652 3.57901 91.6013 3.06829 91.8088C3.06829 91.8088 3.51715 91.3262 4.57545 91.547L5.16778 91.1042C5.16778 91.1042 4.05815 90.9654 3.58823 91.1187C3.58823 91.1187 4.12923 90.6952 5.32706 91.0041L5.97072 90.6518C5.97072 90.6518 5.02431 90.4647 4.46093 90.5311C4.46093 90.5311 5.0559 90.2367 6.15895 90.5552L6.61966 90.3658C6.61966 90.3658 5.92597 90.2452 5.72326 90.221C5.52055 90.1969 5.51002 90.1498 5.51002 90.1498C5.949 90.0828 6.39967 90.1287 6.81184 90.2826C6.81184 90.2826 7.78853 89.9496 7.77142 89.8929Z" fill="#FF4D85"/>
<path opacity="0.1" d="M3.93836 95C6.11345 95 7.87671 94.7267 7.87671 94.3895C7.87671 94.0523 6.11345 93.779 3.93836 93.779C1.76326 93.779 0 94.0523 0 94.3895C0 94.7267 1.76326 95 3.93836 95Z" fill="#FF4D85"/>
<path d="M129.941 81.7743C129.941 81.7743 126.803 81.6006 127.177 83.6154C127.157 83.7178 127.174 83.8232 127.224 83.9163C127.274 84.0095 127.355 84.0858 127.456 84.1342C127.456 84.1342 127.456 83.9846 127.777 84.0353C127.889 84.0522 128.004 84.0571 128.118 84.0498C128.272 84.0405 128.418 83.9854 128.535 83.8929C128.535 83.8929 129.417 83.5587 129.761 82.2376C129.761 82.2376 130.013 81.9493 130.004 81.8757L129.477 82.0832C129.477 82.0832 129.658 82.4331 129.516 82.725C129.516 82.725 129.499 82.0965 129.397 82.1109C129.376 82.1109 129.121 82.2316 129.121 82.2316C129.121 82.2316 129.433 82.8348 129.198 83.2836C129.198 83.2836 129.287 82.5332 129.025 82.275L128.651 82.4741C128.651 82.4741 129.015 83.1051 128.768 83.619C128.768 83.619 128.832 82.83 128.573 82.5235L128.235 82.7648C128.235 82.7648 128.577 83.385 128.367 83.8121C128.367 83.8121 128.339 82.8939 128.16 82.8252C128.032 82.9242 127.917 83.0373 127.819 83.1618C127.819 83.1618 128.053 83.6118 127.908 83.8507C127.908 83.8507 127.819 83.239 127.745 83.2366C127.745 83.2366 127.452 83.6408 127.421 83.9182C127.435 83.6608 127.522 83.4112 127.674 83.1944C127.504 83.2239 127.348 83.2986 127.224 83.4091C127.224 83.4091 127.27 83.122 127.75 83.0966C127.75 83.0966 127.994 82.7902 128.06 82.7709C128.06 82.7709 127.585 82.7347 127.296 82.8517C127.296 82.8517 127.55 82.5815 128.147 82.7045L128.48 82.4548C128.48 82.4548 127.854 82.3764 127.59 82.4632C127.59 82.4632 127.895 82.2219 128.569 82.3981L128.933 82.199C128.653 82.143 128.368 82.1207 128.082 82.1326C128.082 82.1326 128.417 81.9662 129.039 82.1459L129.302 82.0385C129.302 82.0385 128.908 81.9686 128.798 81.9577C128.689 81.9468 128.677 81.9179 128.677 81.9179C128.925 81.8801 129.179 81.906 129.412 81.9927C129.412 81.9927 129.95 81.8057 129.941 81.7743Z" fill="#FF4D85"/>
<path opacity="0.1" d="M127.779 84.653C129.006 84.653 130 84.4991 130 84.3092C130 84.1193 129.006 83.9653 127.779 83.9653C126.553 83.9653 125.559 84.1193 125.559 84.3092C125.559 84.4991 126.553 84.653 127.779 84.653Z" fill="#FF4D85"/>
<path d="M123.488 87.2603C123.488 87.2603 119.7 87.0515 120.153 89.4863C120.13 89.6099 120.15 89.737 120.21 89.8495C120.271 89.9619 120.369 90.054 120.49 90.1125C120.49 90.1125 120.49 89.9315 120.885 89.9918C121.021 90.0129 121.159 90.019 121.297 90.0099C121.482 89.998 121.659 89.9311 121.8 89.8193C121.8 89.8193 122.864 89.4163 123.278 87.8213C123.278 87.8213 123.584 87.4726 123.573 87.3833L122.933 87.6343C122.933 87.6343 123.151 88.0566 122.98 88.4077C122.98 88.4077 122.959 87.6488 122.837 87.6669C122.812 87.6669 122.504 87.8129 122.504 87.8129C122.504 87.8129 122.88 88.55 122.596 89.0845C122.596 89.0845 122.704 88.1772 122.387 87.8671L121.936 88.1084C121.936 88.1084 122.376 88.8698 122.079 89.4899C122.079 89.4899 122.155 88.538 121.842 88.1627L121.435 88.4535C121.435 88.4535 121.847 89.204 121.595 89.7179C121.595 89.7179 121.563 88.6104 121.345 88.5271C121.345 88.5271 120.989 88.8143 120.935 88.9337C120.935 88.9337 121.218 89.4778 121.043 89.765C121.043 89.765 120.935 89.0266 120.846 89.023C120.846 89.023 120.491 89.5116 120.452 89.847C120.469 89.5371 120.575 89.2369 120.758 88.9759C120.553 89.0115 120.364 89.1013 120.213 89.2341C120.213 89.2341 120.269 88.8891 120.845 88.8589C120.845 88.8589 121.139 88.4873 121.218 88.4644C121.218 88.4644 120.644 88.4209 120.296 88.5621C120.296 88.5621 120.603 88.2363 121.323 88.3847L121.726 88.0831C121.726 88.0831 120.97 87.9878 120.65 88.0928C120.65 88.0928 121.019 87.8044 121.835 88.0143L122.273 87.773C122.273 87.773 121.63 87.6464 121.247 87.6922C121.247 87.6922 121.651 87.4919 122.402 87.7091L122.716 87.58C122.716 87.58 122.243 87.4943 122.106 87.4811C121.969 87.4678 121.96 87.4328 121.96 87.4328C122.259 87.3872 122.566 87.4186 122.846 87.5233C122.846 87.5233 123.499 87.2989 123.488 87.2603Z" fill="#FF4D85"/>
<path opacity="0.1" d="M120.878 90.7362C122.359 90.7362 123.559 90.5504 123.559 90.3212C123.559 90.0919 122.359 89.9061 120.878 89.9061C119.397 89.9061 118.197 90.0919 118.197 90.3212C118.197 90.5504 119.397 90.7362 120.878 90.7362Z" fill="#FF4D85"/>
<path opacity="0.1" d="M106.026 89.3813C112.738 89.3813 118.18 88.6029 118.18 87.6427C118.18 86.6826 112.738 85.9042 106.026 85.9042C99.3142 85.9042 93.8729 86.6826 93.8729 87.6427C93.8729 88.6029 99.3142 89.3813 106.026 89.3813Z" fill="#FF4D85"/>
<path opacity="0.1" d="M67.5681 93.9057C75.1104 93.9057 81.2247 93.3434 81.2247 92.6497C81.2247 91.9561 75.1104 91.3938 67.5681 91.3938C60.0258 91.3938 53.9115 91.9561 53.9115 92.6497C53.9115 93.3434 60.0258 93.9057 67.5681 93.9057Z" fill="#FF4D85"/>
<path opacity="0.1" d="M26.193 92.6582C31.9179 92.6582 36.5588 92.3957 36.5588 92.0718C36.5588 91.748 31.9179 91.4855 26.193 91.4855C20.4681 91.4855 15.8271 91.748 15.8271 92.0718C15.8271 92.3957 20.4681 92.6582 26.193 92.6582Z" fill="#FF4D85"/>
<path opacity="0.1" d="M44.5974 4.13228C48.4423 0.995374 54.4789 0.352308 59.9718 0.602054C77.2271 1.38749 92.8028 9.02344 106.276 17.6608C111.155 20.7868 115.956 24.1566 119.122 28.4626C125.572 37.2266 123.655 49.3689 114.694 56.5898C111.644 59.0462 107.948 60.9332 104.153 62.5994C97.4059 65.5686 90.1255 67.9514 82.4686 68.6319C77.0073 69.1145 71.4788 68.7224 66.0504 68.0467C50.8814 66.1598 35.9928 61.9901 23.5143 54.8597C18.0411 51.7228 12.8813 47.8378 10.6251 42.7765C8.369 37.7153 9.81298 31.3015 15.402 28.3058C17.7134 27.0667 20.4776 26.5069 23.1826 25.982C27.1657 25.2087 31.212 24.4462 34.8068 22.8729C38.5188 21.2489 42.9139 18.1084 42.1781 14.5142C41.3909 10.657 40.7578 7.26918 44.5974 4.13228Z" fill="#FF4D85"/>
<path opacity="0.9" d="M76.4584 47.2683V24.2314H79.8807V17.3543H55.3581V24.2314H58.7805V47.2683C54.0542 48.9136 49.9855 51.8373 47.1141 55.6513C44.2427 59.4653 42.7044 63.9895 42.7033 68.6234C42.7033 81.2374 53.8602 91.4625 67.6221 91.4625C81.3839 91.4625 92.5395 81.2374 92.5395 68.6234C92.5383 63.989 90.9995 59.4645 88.1274 55.6504C85.2552 51.8363 81.1855 48.9129 76.4584 47.2683V47.2683Z" fill="#96B7FE"/>
<path opacity="0.1" d="M76.4584 24.1602H58.7752V24.4703H76.4584V24.1602Z" fill="black"/>
<path d="M53.6799 68.0105C53.6799 68.0105 68.6856 67.7692 76.1885 64.3271C83.6914 60.8849 87.9786 63.9579 87.5758 66.0464C87.173 68.1348 85.0314 72.185 76.457 72.6821C67.8827 73.1792 53.6799 68.0105 53.6799 68.0105Z" fill="#FF4D85"/>
<path opacity="0.1" d="M53.6799 68.0105C53.6799 68.0105 68.6856 67.7692 76.1885 64.3271C83.6914 60.8849 87.9786 63.9579 87.5758 66.0464C87.173 68.1348 85.0314 72.185 76.457 72.6821C67.8827 73.1792 53.6799 68.0105 53.6799 68.0105Z" fill="#FFB6C1"/>
<path d="M47.2537 65.8027C47.2537 65.8027 45.6504 86.1865 66.6782 86.5545C87.706 86.9225 87.577 66.044 87.577 66.044C87.577 66.044 79.8109 73.7788 61.4539 67.394C61.4539 67.3989 51.9423 65.0655 47.2537 65.8027Z" fill="#FFB6C1"/>
<path opacity="0.1" d="M87.5087 66.1175C87.0888 70.8132 84.3654 85.512 66.6862 85.202C49.3558 84.9016 47.3932 71.0147 47.2392 66.1296C47.1431 68.7513 47.2287 86.2118 66.6822 86.5533C87.7153 86.9152 87.5811 66.0427 87.5811 66.0427C87.5811 66.0427 87.5547 66.0729 87.5087 66.1175Z" fill="black"/>
<path opacity="0.3" d="M66.806 59.5083C68.313 59.5083 69.5346 58.3885 69.5346 57.0072C69.5346 55.6259 68.313 54.5061 66.806 54.5061C65.2989 54.5061 64.0773 55.6259 64.0773 57.0072C64.0773 58.3885 65.2989 59.5083 66.806 59.5083Z" fill="#FF4D85"/>
<path opacity="0.3" d="M68.3645 48.5497C69.2972 48.5497 70.0533 47.8566 70.0533 47.0017C70.0533 46.1468 69.2972 45.4538 68.3645 45.4538C67.4318 45.4538 66.6757 46.1468 66.6757 47.0017C66.6757 47.8566 67.4318 48.5497 68.3645 48.5497Z" fill="#FF4D85"/>
<path opacity="0.3" d="M64.5959 39.6155C65.5287 39.6155 66.2848 38.9225 66.2848 38.0676C66.2848 37.2127 65.5287 36.5196 64.5959 36.5196C63.6632 36.5196 62.9071 37.2127 62.9071 38.0676C62.9071 38.9225 63.6632 39.6155 64.5959 39.6155Z" fill="#FF4D85"/>
<path opacity="0.2" d="M50.1259 58.9364C49.9811 59.9909 50.01 61.3108 51.038 61.8031C50.1759 61.3904 53.7101 56.7117 53.2086 55.7561C52.1358 53.7172 50.2575 57.9568 50.1259 58.9364Z" fill="white"/>
<path opacity="0.3" d="M63.2309 12.7576C64.7379 12.7576 65.9596 11.6378 65.9596 10.2565C65.9596 8.87518 64.7379 7.7554 63.2309 7.7554C61.7239 7.7554 60.5022 8.87518 60.5022 10.2565C60.5022 11.6378 61.7239 12.7576 63.2309 12.7576Z" fill="#FF4D85"/>
<path opacity="0.3" d="M71.4169 7.82779C72.5372 7.82779 73.4453 6.99539 73.4453 5.96857C73.4453 4.94175 72.5372 4.10934 71.4169 4.10934C70.2967 4.10934 69.3885 4.94175 69.3885 5.96857C69.3885 6.99539 70.2967 7.82779 71.4169 7.82779Z" fill="#FF4D85"/>
<path opacity="0.3" d="M65.5699 1.93282C66.1523 1.93282 66.6243 1.50014 66.6243 0.966408C66.6243 0.432676 66.1523 0 65.5699 0C64.9876 0 64.5156 0.432676 64.5156 0.966408C64.5156 1.50014 64.9876 1.93282 65.5699 1.93282Z" fill="#FF4D85"/>
<path opacity="0.9" d="M37.3578 31.7527H15.3059V37.7479H18.6664V84.5191C18.6531 85.4497 18.8416 86.3734 19.2209 87.2367C19.6002 88.1 20.1628 88.8856 20.8761 89.548C21.5893 90.2104 22.439 90.7363 23.3758 91.0953C24.3125 91.4542 25.3178 91.6391 26.3331 91.6391C27.3485 91.6391 28.3537 91.4542 29.2905 91.0953C30.2273 90.7363 31.077 90.2104 31.7902 89.548C32.5035 88.8856 33.0661 88.1 33.4454 87.2367C33.8247 86.3734 34.0132 85.4497 33.9999 84.5191V37.7479H37.3578V31.7527Z" fill="#96B7FE"/>
<path d="M23.7749 48.3445C23.7749 48.3445 29.2323 46.5577 30.7513 47.8282C30.7513 47.8282 28.5412 50.8058 26.5062 50.6863C24.4713 50.5669 23.7749 48.3445 23.7749 48.3445Z" fill="#FF4D85"/>
<path opacity="0.1" d="M23.7749 48.3445C23.7749 48.3445 29.2323 46.5577 30.7513 47.8282C30.7513 47.8282 28.5412 50.8058 26.5062 50.6863C24.4713 50.5669 23.7749 48.3445 23.7749 48.3445Z" fill="black"/>
<path d="M30.7487 47.833V81.7791C30.7487 82.3422 30.6277 82.8998 30.3926 83.42C30.1575 83.9403 29.8129 84.413 29.3785 84.8111C28.9441 85.2093 28.4284 85.5252 27.8608 85.7406C27.2932 85.9561 26.6849 86.067 26.0706 86.067C24.8299 86.067 23.64 85.6153 22.7626 84.8111C21.8853 84.007 21.3925 82.9164 21.3925 81.7791V47.833C21.3925 47.833 23.6446 47.2768 25.7665 48.4689C27.8884 49.6609 30.7487 47.833 30.7487 47.833Z" fill="#FFB6C1"/>
<path opacity="0.1" d="M33.9973 37.7104H18.6638V37.9867H33.9973V37.7104Z" fill="black"/>
<path opacity="0.1" d="M26.0706 84.0027C25.4561 84.0027 24.8477 83.8918 24.28 83.6762C23.7124 83.4607 23.1966 83.1447 22.7622 82.7464C22.3278 82.3481 21.9832 81.8753 21.7482 81.3549C21.5132 80.8345 21.3923 80.2768 21.3925 79.7136V81.8576C21.3925 82.9948 21.8853 84.0855 22.7626 84.8896C23.64 85.6937 24.8299 86.1455 26.0706 86.1455C27.3113 86.1455 28.5012 85.6937 29.3785 84.8896C30.2558 84.0855 30.7487 82.9948 30.7487 81.8576V79.7136C30.7489 80.2768 30.628 80.8345 30.393 81.3549C30.1579 81.8753 29.8134 82.3481 29.379 82.7464C28.9445 83.1447 28.4288 83.4607 27.8611 83.6762C27.2935 83.8918 26.685 84.0027 26.0706 84.0027V84.0027Z" fill="black"/>
<path opacity="0.3" d="M26.0719 44.4994C26.5982 44.4994 27.0249 44.1083 27.0249 43.6259C27.0249 43.1435 26.5982 42.7524 26.0719 42.7524C25.5455 42.7524 25.1189 43.1435 25.1189 43.6259C25.1189 44.1083 25.5455 44.4994 26.0719 44.4994Z" fill="#FF4D85"/>
<path opacity="0.3" d="M29.1902 41.085C29.5253 41.085 29.797 40.836 29.797 40.5288C29.797 40.2216 29.5253 39.9726 29.1902 39.9726C28.8551 39.9726 28.5834 40.2216 28.5834 40.5288C28.5834 40.836 28.8551 41.085 29.1902 41.085Z" fill="#FF4D85"/>
<path opacity="0.3" d="M24.9451 39.9738C25.2803 39.9738 25.5519 39.7248 25.5519 39.4176C25.5519 39.1105 25.2803 38.8615 24.9451 38.8615C24.61 38.8615 24.3383 39.1105 24.3383 39.4176C24.3383 39.7248 24.61 39.9738 24.9451 39.9738Z" fill="#FF4D85"/>
<path opacity="0.2" d="M19.851 54.768C19.7062 55.8224 19.7352 57.1424 20.7632 57.6346C19.8997 57.222 23.4353 52.5444 22.9338 51.5876C21.8584 49.551 19.9827 53.7895 19.851 54.768Z" fill="white"/>
<path opacity="0.3" d="M28.0489 28.0017C29.3277 28.0017 30.3643 27.0516 30.3643 25.8795C30.3643 24.7074 29.3277 23.7572 28.0489 23.7572C26.7702 23.7572 25.7336 24.7074 25.7336 25.8795C25.7336 27.0516 26.7702 28.0017 28.0489 28.0017Z" fill="#FF4D85"/>
<path opacity="0.3" d="M21.1029 23.8188C22.0537 23.8188 22.8246 23.1122 22.8246 22.2407C22.8246 21.3691 22.0537 20.6625 21.1029 20.6625C20.152 20.6625 19.3811 21.3691 19.3811 22.2407C19.3811 23.1122 20.152 23.8188 21.1029 23.8188Z" fill="#FF4D85"/>
<path opacity="0.3" d="M26.064 18.8166C26.5583 18.8166 26.959 18.4493 26.959 17.9962C26.959 17.5431 26.5583 17.1758 26.064 17.1758C25.5696 17.1758 25.1689 17.5431 25.1689 17.9962C25.1689 18.4493 25.5696 18.8166 26.064 18.8166Z" fill="#FF4D85"/>
<path d="M117.922 54.4518C117.922 54.4518 115.901 45.2414 116.674 44.0952C116.674 44.0952 116.701 43.0299 116.655 41.6726C116.655 41.6207 116.655 41.5688 116.655 41.5157C116.791 41.6003 116.932 41.6761 117.079 41.7425C117.791 42.0792 118.61 42.1761 119.392 42.0164L118.777 41.3914C118.631 41.2418 118.477 41.0814 118.446 40.8835C118.437 40.6932 118.482 40.5041 118.577 40.3346C119.158 38.9893 119.193 37.2966 118.069 36.2698C117.124 35.406 116.892 34.2912 115.871 33.5033C115.121 32.9254 114.709 32.0785 114.319 31.2617C113.99 30.5691 113.661 29.8718 113.47 29.1382C113.323 28.5651 113.265 27.9727 113.062 27.4129C112.859 26.8531 112.483 26.309 111.892 26.0592C111.673 25.989 111.46 25.9027 111.256 25.801C111.003 25.6454 110.852 25.392 110.67 25.1712C109.749 24.048 106.642 24.7091 105.173 25.1652C104.774 25.2799 104.405 25.4674 104.087 25.7166L104.101 25.6961L104.137 25.6466C103.977 25.7657 103.838 25.9074 103.727 26.0665C103.512 26.3777 103.423 26.7433 103.245 27.0715C103.029 27.4696 101.831 28.5808 102.346 29.0284C102.381 29.0584 102.422 29.0828 102.466 29.1008C102.658 29.1727 102.869 29.192 103.073 29.1563C103.065 29.172 103.057 29.1877 103.05 29.2034C102.875 29.5984 102.786 30.0209 102.787 30.4473C102.796 31.3398 103.191 32.1927 103.885 32.8183C104.58 33.4439 105.517 33.791 106.491 33.7832C106.876 33.7838 107.259 33.7301 107.626 33.624C107.635 33.6662 107.643 33.7084 107.651 33.7507C107.651 33.7688 107.651 33.7857 107.66 33.8025L107.595 33.8858L107.585 33.8701L105.664 36.3314C105.371 36.5196 103.679 37.6416 103.589 38.4826C103.488 39.4031 103.388 40.4817 103.388 40.4817L103.375 40.7122C103.291 40.7764 103.193 40.8232 103.088 40.8494C102.983 40.8756 102.872 40.8807 102.765 40.8642C102.166 40.7737 102.166 42.8863 102.166 42.8863C102.166 42.8863 101.771 43.2229 101.493 42.9309C101.215 42.639 100.495 43.6271 100.495 43.6271L95.9553 43.8069H95.8513L95.6065 43.1119C95.5797 43.0401 95.5236 42.9807 95.4499 42.946C95.3763 42.9114 95.2909 42.9042 95.2116 42.9261C95.1924 42.931 95.1738 42.9378 95.1563 42.9466L95.1405 42.9563C95.1293 42.9621 95.1187 42.969 95.1089 42.9768C95.1027 42.9806 95.0969 42.985 95.0918 42.9901C95.0828 42.9971 95.0745 43.0048 95.0668 43.013C95.0621 43.018 95.0577 43.0232 95.0537 43.0287L95.0458 43.0359C95.0175 43.0717 94.9987 43.113 94.991 43.1565C94.9832 43.2001 94.9866 43.2447 95.001 43.2869L95.2116 43.8829C94.3363 44.0445 93.4399 44.4994 94.1704 45.7542L90.469 45.128L91.6668 46.0485L97.8534 47.2189C97.7718 47.354 97.8258 47.5482 98.0811 47.8221C99.1802 49.0069 101.189 49.3278 101.996 49.4123C102.208 49.848 102.473 50.2604 102.786 50.6417L102.714 51.8217C102.714 51.8217 100.672 60.821 100.296 61.2782C100.482 61.0807 100.651 60.871 100.803 60.6508C100.21 62.5004 99.3803 65.0317 99.1631 65.4105C98.813 66.0137 98.4892 68.4654 98.888 68.6234C99.0131 68.6717 99.3593 68.6487 99.8581 68.6138V68.8164L99.8358 76.5079C99.8358 76.5079 99.9358 81.2265 99.6607 81.6754C99.3856 82.1242 99.3119 83.0677 99.3119 83.0677C99.3119 83.0677 98.2088 84.9293 97.3374 85.6773L97.3177 85.693L97.29 85.5169C97.29 85.5169 96.237 86.7306 93.923 86.663C93.923 86.663 92.5264 87.4943 94.5969 87.539C96.6674 87.5836 99.3105 87.4714 99.3105 87.4714C99.3105 87.4714 101.153 84.8883 102.703 85.2249V87.1794H103.177V85.208C103.396 85.0752 103.584 84.9029 103.729 84.7015C103.874 84.5001 103.972 84.2739 104.019 84.0365C104.06 83.7924 104.03 83.5428 103.934 83.3123C103.837 83.0819 103.676 82.8786 103.467 82.7226C103.373 82.6446 103.298 82.5497 103.246 82.4439C103.194 82.338 103.166 82.2234 103.165 82.1073L103.148 82.1206C103.148 82.0819 103.137 82.0421 103.13 81.9999C102.999 80.9889 102.826 78.9088 103.427 77.3669C104.249 75.2543 104.499 72.3129 103.9 70.5598C103.708 70.0002 103.549 69.431 103.427 68.8551C103.412 68.7815 103.398 68.7127 103.386 68.6475C103.796 68.6988 104.202 68.775 104.601 68.8756C105.991 69.2255 109.027 69.2906 111.621 69.2725C111.627 69.3377 111.635 69.4052 111.643 69.474C111.69 69.9481 111.788 70.4168 111.935 70.8735C112.259 71.7736 112.409 75.7261 112.409 75.7261C112.409 75.7261 112.829 78.9776 112.6 80.3024C112.468 81.0383 112.358 81.7767 112.285 82.5187V82.5332C112.285 82.5332 111.598 84.3297 111.101 85.3081C111.087 85.3335 111.076 85.3576 111.062 85.3817C110.928 85.393 110.795 85.4194 110.668 85.4601C110.668 85.4601 109.995 86.6956 109.321 86.8983C108.647 87.101 108.872 87.7742 110.394 87.5269C111.915 87.2796 114.211 87.0781 114.211 87.0781L114.311 85.8197L114.778 85.284L114.66 86.5388L115.159 86.4495L115.093 84.922L115.858 84.0449C115.858 84.0449 116.779 83.2921 115.409 81.8105V81.8419C115.394 81.8201 115.38 81.7984 115.364 81.7779V81.7707C115.138 81.4473 114.956 80.8453 115.288 79.7763C115.887 77.8459 116.235 76.0929 116.235 76.0929C116.235 76.0929 117.574 71.3984 115.964 69.176H116.037C115.872 68.8634 115.755 68.5312 115.689 68.1891C115.681 68.148 115.675 68.1058 115.667 68.0684C116.851 68.0057 118.027 67.8078 118.979 67.3831C118.968 67.3699 118.396 56.2266 117.922 54.4518ZM102.807 46.682V46.7037L102.56 46.7145L102.807 46.682ZM101.968 46.7881C101.928 46.796 101.89 46.8126 101.858 46.8364C101.753 46.9729 101.687 47.1314 101.665 47.2973L101.284 47.2176C101.284 47.2176 101.02 47.1658 100.626 47.1079L100.443 46.9401C100.951 46.8967 101.472 46.8448 101.968 46.7881V46.7881Z" fill="url(#paint0_linear)"/>
<path d="M114.598 84.933L114.452 86.5231L114.94 86.4326L114.867 84.7097L114.598 84.933Z" fill="#1D2366"/>
<path d="M103.461 77.3887C102.873 78.9246 103.041 80.9985 103.173 82.006C103.221 82.3788 103.266 82.6092 103.266 82.6092C103.266 82.6092 102.387 84.4455 102.313 84.5131C102.239 84.5807 99.7226 85.9874 99.7226 85.9874L97.964 86.9273C97.964 86.9273 96.1804 86.2106 97.0426 85.9621C97.2171 85.8977 97.3743 85.7993 97.5033 85.6737C98.3563 84.9281 99.437 83.0737 99.437 83.0737C99.437 83.0737 99.5094 82.1339 99.7779 81.6862C100.046 81.2386 99.949 76.5369 99.949 76.5369L99.9714 68.8708V67.8718L103.317 67.8947C103.339 68.2341 103.387 68.5716 103.462 68.9046C103.583 69.4784 103.738 70.0455 103.928 70.6033C104.51 72.354 104.267 75.2833 103.461 77.3887Z" fill="#FFB0B1"/>
<path opacity="0.1" d="M103.265 82.6092C103.265 82.6092 102.385 84.4455 102.312 84.5131C102.238 84.5806 99.7226 85.9874 99.7226 85.9874L97.964 86.9273C97.964 86.9273 96.1804 86.2106 97.0426 85.9621C97.2171 85.8977 97.3743 85.7993 97.5033 85.6737L97.5796 86.1636L98.1667 86.1406L103.173 82.006C103.22 82.3776 103.265 82.6092 103.265 82.6092Z" fill="black"/>
<path d="M103.204 82.1121L98.1601 86.277L97.5731 86.2987L97.452 85.5157C97.452 85.5157 96.4253 86.7222 94.1533 86.6571C94.1533 86.6571 92.7857 87.4859 94.8115 87.5306C96.8373 87.5752 99.4291 87.463 99.4291 87.463C99.4291 87.463 101.236 84.8883 102.75 85.2249V87.1722H103.215V85.202C103.431 85.0686 103.615 84.8964 103.757 84.6959C103.899 84.4954 103.994 84.2707 104.039 84.0353C104.079 83.7928 104.051 83.5448 103.956 83.3153C103.862 83.0858 103.704 82.8825 103.499 82.725C103.407 82.6467 103.333 82.5519 103.283 82.4465C103.232 82.3411 103.205 82.2273 103.204 82.1121V82.1121Z" fill="#1D2366"/>
<path d="M115.063 79.7836C114.738 80.849 114.915 81.4486 115.136 81.7707V81.778C115.424 82.1766 115.624 82.623 115.725 83.0918L115.746 83.1932L113.45 86.2601L112.205 86.7077C112.205 86.7077 110.202 86.0816 110.568 85.9018C110.66 85.8572 110.803 85.6255 110.962 85.2985C111.453 84.3333 112.127 82.5405 112.127 82.5405V82.5248C112.197 81.7852 112.31 81.0492 112.435 80.3157C112.659 78.997 112.248 75.7563 112.248 75.7563C112.248 75.7563 112.102 71.8171 111.784 70.9206C111.641 70.4651 111.545 69.9981 111.498 69.5259C111.432 68.9625 111.418 68.5028 111.418 68.5028C111.418 68.5028 112.734 66.8233 115.155 68.6367C115.347 68.7823 115.517 68.9516 115.659 69.1398C117.329 71.3115 115.985 76.1146 115.985 76.1146C115.985 76.1146 115.648 77.8592 115.063 79.7836Z" fill="#FFB0B1"/>
<path opacity="0.1" d="M115.746 83.1871L113.45 86.2541L112.205 86.7017C112.205 86.7017 110.202 86.0755 110.568 85.8957C110.66 85.8511 110.803 85.6194 110.962 85.2925C111.81 85.2925 112.25 86.026 112.25 86.026L113.324 85.8704C113.324 85.8704 114.741 83.3174 115.059 83.1618C115.376 83.0062 115.107 81.9963 115.107 81.9963V81.7393L115.132 81.7671V81.7743C115.422 82.1738 115.623 82.6214 115.725 83.0918L115.746 83.1871Z" fill="black"/>
<path d="M112.326 86.0972C112.326 86.0972 111.715 85.0681 110.544 85.4481C110.544 85.4481 109.886 86.68 109.228 86.8815C108.569 87.083 108.788 87.7538 110.281 87.5076C111.773 87.2615 114.018 87.06 114.018 87.06L114.115 85.8065L115.629 84.0377C115.629 84.0377 116.533 83.2873 115.189 81.8105V82.0675C115.189 82.0675 115.452 83.0749 115.14 83.2318C114.828 83.3886 113.407 85.9404 113.407 85.9404L112.326 86.0972Z" fill="#1D2366"/>
<path opacity="0.1" d="M103.313 67.8959C103.335 68.2353 103.383 68.5728 103.458 68.9058C102.08 68.72 100.802 68.8129 99.9648 68.872V67.873L103.313 67.8959Z" fill="black"/>
<path opacity="0.1" d="M115.795 69.4186C115.795 69.4186 113.836 69.5054 111.503 69.5235C111.438 68.9601 111.423 68.5004 111.423 68.5004C111.423 68.5004 112.739 66.8209 115.16 68.6343C115.353 68.7799 115.522 68.9492 115.664 69.1374C115.702 69.2332 115.746 69.327 115.795 69.4186V69.4186Z" fill="black"/>
<path d="M115.795 69.217C115.795 69.217 107.221 69.5971 104.606 68.9263C101.991 68.2554 99.404 68.8358 99.0131 68.6789C98.6221 68.5221 98.9407 66.0825 99.2763 65.4781C99.612 64.8736 101.5 58.7615 101.5 58.7615L103.307 50.1193L105.213 49.6367L105.344 49.6029L108.663 48.7583L111.097 48.143C111.097 48.143 115.933 65.4491 115.517 66.7232C115.366 67.212 115.342 67.7264 115.447 68.2253C115.512 68.569 115.629 68.9028 115.795 69.217V69.217Z" fill="#1D2366"/>
<path d="M97.0123 44.2087C97.0123 44.2087 95.3011 45.8881 96.5964 46.828C97.8916 47.7679 98.7459 46.9185 98.7459 46.9185L97.0123 44.2087Z" fill="#C7DAF5"/>
<path opacity="0.1" d="M97.0123 44.2087C97.0123 44.2087 95.3011 45.8881 96.5964 46.828C97.8916 47.7679 98.7459 46.9185 98.7459 46.9185L97.0123 44.2087Z" fill="black"/>
<path d="M110.849 33.1498C110.849 33.1498 110.649 33.3236 110.346 33.583C109.916 33.9509 109.279 34.4903 108.713 34.9427C107.923 35.5677 107.285 36.0285 107.515 35.634C107.745 35.2395 107.702 34.5614 107.587 33.9232L107.564 33.7965C107.468 33.3278 107.342 32.8648 107.185 32.4102C107.185 32.4102 108.45 30.9118 109.15 30.3206C109.413 30.0998 109.593 30.0057 109.603 30.1601C109.616 30.3701 109.788 30.8285 109.998 31.3256C110.005 31.3401 110.012 31.3558 110.019 31.3702C110.161 31.7044 110.32 32.0531 110.461 32.3511C110.675 32.8084 110.849 33.1498 110.849 33.1498Z" fill="#FFB0B1"/>
<path opacity="0.1" d="M110.017 31.3703C109.898 31.9564 109.61 32.5026 109.182 32.9516C108.754 33.4007 108.202 33.7363 107.585 33.9232C107.488 33.4111 107.353 32.9057 107.182 32.4103C107.182 32.4103 109.563 29.5895 109.6 30.1602C109.622 30.3773 109.799 30.8575 110.017 31.3703Z" fill="black"/>
<path opacity="0.1" d="M107.35 34.6773L107.659 34.2803C107.659 34.2803 107.863 35.4217 108.614 34.9186C109.366 34.4155 109.404 38.707 109.404 38.707L108.596 49.7561L102.77 49.4364L102.934 44.0976L103.592 41.4108L105.223 37.4981L106.2 36.2059L107.35 34.6773Z" fill="black"/>
<path d="M109.401 38.7746L108.672 48.7644L108.596 49.8225L105.347 49.6452L105.215 49.6379L102.766 49.504L102.93 44.164L103.589 41.4783L105.219 37.5657L106.2 36.2723L107.354 34.7449L107.662 34.3467C107.662 34.3467 107.866 35.4893 108.618 34.9849L108.633 34.9753C109.366 34.5434 109.401 38.7746 109.401 38.7746Z" fill="#1D2366"/>
<path d="M103.679 40.5373C103.679 40.5373 103.387 41.0971 102.8 41.0078C102.213 40.9185 102.214 43.0227 102.214 43.0227C102.214 43.0227 101.819 43.3581 101.556 43.0673C101.293 42.7765 100.579 43.761 100.579 43.761L96.1343 43.9408C96.1343 43.9408 98.1088 44.7685 97.7218 47.2768C97.7218 47.2768 104.435 46.8955 104.659 46.3116C104.882 45.7276 103.679 40.5373 103.679 40.5373Z" fill="white"/>
<path opacity="0.03" d="M103.679 40.5373C103.679 40.5373 103.387 41.0971 102.8 41.0078C102.213 40.9185 102.214 43.0227 102.214 43.0227C102.214 43.0227 101.819 43.3581 101.556 43.0673C101.293 42.7765 100.579 43.761 100.579 43.761L96.1343 43.9408C96.1343 43.9408 98.1088 44.7685 97.7218 47.2768C97.7218 47.2768 104.435 46.8955 104.659 46.3116C104.882 45.7276 103.679 40.5373 103.679 40.5373Z" fill="black"/>
<path d="M90.7586 45.2607L91.9314 46.1789L101.58 48.0369L100.382 46.9185L90.7586 45.2607Z" fill="white"/>
<path d="M107.368 35.0296C107.208 35.2492 106.75 36.4026 106.366 37.4052C106.047 38.2401 105.78 38.9737 105.78 38.9737C105.78 38.9737 105.158 42.6909 104.84 43.3617C104.523 44.0325 104.694 46.6555 104.694 46.6555L103.51 53.1259C103.51 53.1259 102.972 56.4619 102.143 58.4538C101.33 60.4096 100.408 61.3301 100.383 61.3579C100.751 60.903 102.753 51.9339 102.753 51.9339L103.411 40.6266C103.411 40.6266 103.508 39.5528 103.607 38.6346C103.706 37.7165 105.683 36.4629 105.683 36.4629L107.594 33.9715C107.79 34.2164 107.661 34.6266 107.368 35.0296Z" fill="white"/>
<path d="M102.383 49.5595C102.383 49.5595 99.5738 49.4485 98.2062 47.9476C96.8386 46.4467 101.357 47.3443 101.357 47.3443L102.529 47.5856L102.383 49.5595Z" fill="#FFB0B1"/>
<path opacity="0.1" d="M115.526 66.7316C115.375 67.2205 115.351 67.7349 115.456 68.2337C112.387 68.434 109.102 67.6715 109.102 67.6715C108.492 68.1867 106.879 68.948 106.879 68.948L106 58.9618C105.439 57.6177 105.219 50.5657 105.219 50.5657C105.219 50.5657 105.269 50.1965 105.351 49.6439C105.351 49.6307 105.351 49.6162 105.358 49.6029C105.577 48.0586 106.016 45.1594 106.224 44.7673C106.517 44.2304 105.321 42.7983 105.321 42.7983L105.864 38.5417L105.93 38.0289C107.079 37.5584 107.959 36.0587 107.959 36.0587L108.633 34.9729C109.368 34.541 109.404 38.7722 109.404 38.7722L108.675 48.762L111.108 48.1467C111.108 48.1467 115.941 65.4552 115.526 66.7316Z" fill="black"/>
<path d="M118.677 67.4254C115.331 68.948 109.249 67.5376 109.249 67.5376C108.638 68.0528 107.025 68.8141 107.025 68.8141L106.146 58.8279C105.585 57.485 105.366 50.433 105.366 50.433C105.366 50.433 106.074 45.1715 106.366 44.6346C106.451 44.4777 106.411 44.2449 106.309 43.9939C105.81 42.7978 105.626 41.5104 105.774 40.2369L106.008 38.409L106.074 37.8963C107.222 37.4257 108.101 35.9248 108.101 35.9248L108.713 34.9427L109.84 33.133L110.373 32.2764L110.462 32.3512L111.155 32.9255C111.155 32.9255 111.448 33.1475 111.888 33.4889C112.846 34.2285 114.502 35.5315 115.355 36.3278C116.106 37.0312 116.343 39.7615 116.408 41.8174C116.454 43.1699 116.426 44.2304 116.426 44.2304C115.668 45.3717 117.647 54.552 117.647 54.552C118.115 56.3207 118.677 67.4254 118.677 67.4254Z" fill="white"/>
<path opacity="0.03" d="M112.255 35.9031C112.255 35.9031 109.958 39.9111 110.228 41.4325C110.498 42.9539 111.253 44.6792 110.886 45.0821C110.76 45.2347 110.598 45.3586 110.411 45.444C110.225 45.5294 110.019 45.574 109.811 45.5744C109.445 45.5973 108.467 46.2235 108.467 46.2911C108.467 46.3586 107.564 46.3586 106.756 46.6723C105.947 46.986 104.752 47.1646 104.752 47.1646C104.752 47.1646 102.432 47.097 102.212 47.2985C101.992 47.5 101.772 48.7089 102.237 49.6717C102.701 50.6345 103.213 51.3511 103.604 51.4814C103.995 51.6117 106.462 50.8552 108.464 50.6755C110.466 50.4957 112.65 49.0455 112.65 49.0455C112.65 49.0455 115.043 48.2613 115.459 46.9401C115.875 45.619 114.945 38.3656 114.945 38.3656C114.945 38.3656 114.229 34.9849 112.255 35.9031Z" fill="black"/>
<path opacity="0.03" d="M111.96 35.5677C111.96 35.5677 109.665 39.5745 109.933 41.0971C110.202 42.6197 110.958 44.3438 110.591 44.7468C110.466 44.8994 110.303 45.0232 110.117 45.1086C109.93 45.194 109.724 45.2387 109.516 45.239C109.15 45.262 108.173 45.8881 108.173 45.9557C108.173 46.0233 107.269 46.022 106.462 46.3357C105.655 46.6494 104.459 46.828 104.459 46.828C104.459 46.828 102.138 46.7616 101.918 46.9631C101.698 47.1646 101.479 48.3735 101.943 49.3363C102.408 50.2991 102.92 51.0158 103.311 51.1461C103.702 51.2764 106.168 50.5187 108.172 50.3401C110.175 50.1616 112.351 48.7065 112.351 48.7065C112.351 48.7065 114.744 47.9235 115.16 46.6024C115.576 45.2813 114.647 38.0278 114.647 38.0278C114.647 38.0278 113.939 34.6496 111.96 35.5677Z" fill="black"/>
<path d="M112.18 35.7016C112.18 35.7016 109.886 39.7096 110.149 41.2262C110.412 42.7428 111.174 44.4729 110.807 44.8758C110.682 45.0286 110.519 45.1526 110.333 45.2381C110.146 45.3235 109.94 45.368 109.732 45.3681C109.366 45.391 108.389 46.0172 108.389 46.0848C108.389 46.1523 107.485 46.1523 106.678 46.466C105.871 46.7797 104.674 46.9583 104.674 46.9583C104.674 46.9583 102.354 46.8907 102.134 47.0922C101.914 47.2937 101.694 48.5026 102.159 49.4654C102.624 50.4282 103.136 51.1448 103.527 51.2751C103.918 51.4054 106.384 50.649 108.388 50.4692C110.391 50.2894 112.564 48.8356 112.564 48.8356C112.564 48.8356 114.957 48.0514 115.373 46.7302C115.789 45.4091 114.86 38.1556 114.86 38.1556C114.86 38.1556 114.158 34.7835 112.18 35.7016Z" fill="white"/>
<path opacity="0.1" d="M112.131 46.4479C112.131 46.4479 110.299 46.1125 110.935 46.6723C111.571 47.2322 111.569 47.7244 112.351 47.7015C113.133 47.6786 112.131 46.4479 112.131 46.4479Z" fill="black"/>
<path opacity="0.1" d="M115.234 58.5153C115.234 58.5153 114.403 59.0305 115.991 60.2165C117.578 61.4025 115.234 58.5153 115.234 58.5153Z" fill="black"/>
<path opacity="0.1" d="M113.645 62.7466C113.645 62.8141 113.353 65.2091 114.452 65.8135C115.551 66.418 113.645 62.7466 113.645 62.7466Z" fill="black"/>
<path d="M96.2054 43.9384C95.3209 43.9662 93.4057 44.2147 94.3981 45.911C95.2761 47.4119 96.7503 46.4093 97.5757 45.6468C97.3743 44.9376 96.8839 44.3261 96.2054 43.9384V43.9384Z" fill="#FFB0B1"/>
<path d="M97.5902 45.6335C97.6033 45.6227 97.6152 45.6106 97.627 45.5998C97.6152 45.6106 97.6033 45.6227 97.5902 45.6335Z" fill="#FFB0B1"/>
<path opacity="0.1" d="M111.888 33.5552C110.948 34.144 110.159 34.6411 110.007 34.7449C109.584 35.0296 108.779 36.709 108.265 37.5657C107.852 38.2558 106.513 38.4331 106.008 38.4766L106.068 37.9686C107.216 37.4993 108.096 35.9984 108.096 35.9984L110.367 32.3499L111.149 32.999C111.149 32.999 111.448 33.215 111.888 33.5552Z" fill="black"/>
<path d="M111.888 33.4889C110.948 34.0765 110.159 34.5748 110.007 34.6773C109.584 34.9632 108.779 36.6415 108.265 37.4981C107.852 38.1882 106.513 38.3656 106.008 38.409L106.074 37.8963C107.221 37.4257 108.101 35.9248 108.101 35.9248L110.373 32.2764L111.155 32.9255C111.155 32.9255 111.448 33.1426 111.888 33.4889Z" fill="#DCE7FF"/>
<path d="M110.079 30.6307C110.08 30.8643 110.053 31.0973 109.999 31.3256C109.901 31.7522 109.711 32.1567 109.441 32.5152C108.949 33.1707 108.217 33.6428 107.378 33.8461C106.539 34.0493 105.649 33.9702 104.868 33.623C104.087 33.2758 103.468 32.6836 103.123 31.9538C102.778 31.224 102.73 30.405 102.987 29.6454C103.244 28.8857 103.79 28.2358 104.526 27.8135C105.261 27.3913 106.137 27.2246 106.995 27.3438C107.853 27.463 108.636 27.8602 109.202 28.4632C109.768 29.0663 110.079 29.8353 110.079 30.6307V30.6307Z" fill="#FFB0B1"/>
<path opacity="0.1" d="M116.412 41.8173C115.915 41.537 115.511 41.1384 115.242 40.6639C115.038 40.2935 114.902 39.8676 114.552 39.6034C114.239 39.3693 113.815 39.3114 113.427 39.2065C112.141 38.8578 111.057 37.7804 111.02 36.5522C111.002 35.9743 111.198 35.3963 111.109 34.8245C111.058 34.4999 110.917 34.1928 110.699 33.9329C110.593 33.8076 110.475 33.6909 110.346 33.5842C110.175 33.4358 109.995 33.2922 109.84 33.1342C109.739 33.0372 109.65 32.9299 109.576 32.8144C109.518 32.7198 109.471 32.6199 109.436 32.5164C109.196 31.8311 109.413 31.0155 109.145 30.3218C109.145 30.3097 109.135 30.2965 109.13 30.2844C109.027 30.0371 108.821 29.7909 108.535 29.7716C108.25 29.7523 108.001 29.9707 107.727 30.0696C107.153 30.2735 106.533 29.9261 106.055 29.5714C105.577 29.2167 105.038 28.8113 104.428 28.8909C104.027 28.9428 103.708 29.1949 103.338 29.3252C103.253 29.354 103.165 29.3766 103.075 29.3928C103.389 28.6764 103.966 28.0827 104.706 27.7133C105.445 27.344 106.302 27.2222 107.129 27.3687C107.956 27.5152 108.702 27.921 109.238 28.5164C109.775 29.1118 110.068 29.8598 110.069 30.6319C110.069 30.8655 110.043 31.0985 109.988 31.3268C109.996 31.3413 110.003 31.357 110.009 31.3715C110.152 31.7057 110.311 32.0543 110.452 32.3523L111.144 32.9266C111.144 32.9266 111.438 33.1486 111.877 33.4901C112.836 34.2297 114.491 35.5327 115.344 36.329C116.107 37.0312 116.343 39.7615 116.412 41.8173Z" fill="black"/>
<path d="M103.304 27.2778C103.479 26.9509 103.567 26.5853 103.775 26.2764C104.082 25.824 104.619 25.5405 105.168 25.3667C106.605 24.9131 109.644 24.2531 110.55 25.3667C110.729 25.5875 110.877 25.8409 111.124 25.9965C111.324 26.0964 111.533 26.1819 111.747 26.2523C112.326 26.5021 112.696 27.0438 112.893 27.6012C113.091 28.1586 113.149 28.7498 113.288 29.3217C113.473 30.0528 113.798 30.7465 114.12 31.4367C114.501 32.251 114.91 33.0944 115.639 33.6711C116.641 34.4565 116.866 35.5677 117.791 36.428C118.893 37.4511 118.858 39.139 118.29 40.4782C118.196 40.6475 118.151 40.8361 118.159 41.0259C118.212 41.2198 118.325 41.3957 118.484 41.5327L119.085 42.1552C118.367 42.2973 117.617 42.2211 116.95 41.9381C116.283 41.6552 115.735 41.1808 115.388 40.5868C115.182 40.2164 115.047 39.7905 114.697 39.5275C114.383 39.2922 113.961 39.2355 113.571 39.1293C112.285 38.7806 111.202 37.7032 111.165 36.475C111.147 35.8983 111.343 35.3192 111.255 34.7473C111.202 34.4269 111.061 34.1239 110.847 33.8666C110.508 33.4636 110.002 33.1897 109.728 32.7481C109.264 31.9989 109.616 31.024 109.282 30.2145C109.179 29.9732 108.974 29.721 108.687 29.7017C108.4 29.6824 108.152 29.902 107.878 29.9997C107.304 30.2036 106.686 29.8561 106.208 29.5014C105.73 29.1467 105.189 28.7425 104.581 28.8222C104.178 28.874 103.861 29.125 103.49 29.2553C103.216 29.3518 102.661 29.4387 102.42 29.2263C101.916 28.7824 103.088 27.6748 103.304 27.2778Z" fill="#591D4B"/>
<path opacity="0.1" d="M115.73 40.2163C115.526 39.8459 115.39 39.42 115.04 39.1558C114.727 38.9205 114.303 38.8638 113.915 38.7589C112.629 38.4102 111.546 37.3328 111.509 36.1046C111.489 35.5266 111.686 34.9487 111.597 34.3768C111.546 34.0523 111.405 33.7452 111.188 33.4852C110.851 33.0823 110.342 32.8072 110.07 32.3656C109.605 31.6164 109.958 30.6415 109.624 29.8319C109.521 29.5906 109.316 29.3385 109.029 29.3192C108.742 29.2999 108.494 29.5183 108.221 29.616C107.647 29.8211 107.027 29.4736 106.55 29.1189C106.074 28.7642 105.531 28.36 104.922 28.4384C104.527 28.4903 104.203 28.7413 103.832 28.8728C103.558 28.9693 103.003 29.0562 102.762 28.8438C102.258 28.3974 103.431 27.2898 103.643 26.8941C103.818 26.5671 103.906 26.2016 104.114 25.8927L104.149 25.842C103.994 25.9622 103.861 26.1039 103.754 26.2619C103.544 26.5708 103.457 26.9363 103.283 27.2633C103.071 27.6602 101.898 28.7678 102.403 29.213C102.642 29.4254 103.192 29.3337 103.473 29.242C103.843 29.1117 104.16 28.8607 104.563 28.8076C105.171 28.7292 105.712 29.1334 106.19 29.4881C106.667 29.8428 107.287 30.1903 107.86 29.9864C108.135 29.8887 108.375 29.6679 108.668 29.6884C108.962 29.7089 109.162 29.9538 109.264 30.2011C109.599 31.0059 109.246 31.9807 109.709 32.7348C109.983 33.1752 110.491 33.4502 110.828 33.8532C111.046 34.1132 111.187 34.4203 111.238 34.7448C111.327 35.3167 111.13 35.8946 111.149 36.4725C111.19 37.702 112.27 38.7794 113.556 39.1268C113.944 39.2318 114.368 39.2885 114.681 39.525C115.031 39.788 115.165 40.2139 115.371 40.5843C115.718 41.1783 116.266 41.6527 116.933 41.9357C117.6 42.2186 118.35 42.2948 119.068 42.1527L118.785 41.8584C117.543 41.8777 116.293 41.2334 115.73 40.2163Z" fill="black"/>
<path opacity="0.1" d="M107.295 35.0972C107.135 35.3167 106.677 36.4701 106.294 37.4715C105.935 37.3449 105.609 36.5293 105.609 36.5293L107.516 34.0378C107.716 34.284 107.587 34.6942 107.295 35.0972Z" fill="black"/>
<path d="M107.368 35.0296C107.208 35.2492 106.75 36.4026 106.366 37.4052C106.008 37.2785 105.683 36.4629 105.683 36.4629L107.594 33.9715C107.79 34.2164 107.661 34.6266 107.368 35.0296Z" fill="#DCE7FF"/>
<path d="M96.2567 46.4866L95.1971 43.4281C95.1844 43.3921 95.1796 43.3542 95.1829 43.3165C95.1863 43.2788 95.1977 43.2421 95.2165 43.2085C95.2353 43.1749 95.2612 43.145 95.2927 43.1206C95.3241 43.0961 95.3606 43.0776 95.3998 43.0661V43.0661C95.4391 43.0541 95.4805 43.0495 95.5217 43.0523C95.5629 43.0552 95.6031 43.0656 95.6399 43.0829C95.6767 43.1002 95.7093 43.1241 95.7359 43.1531C95.7625 43.1821 95.7825 43.2157 95.7947 43.2519L96.8543 46.3128L96.749 46.9535L96.2567 46.4866Z" fill="#BE8B87"/>
<path opacity="0.1" d="M95.2972 43.1566C95.3365 43.145 95.3779 43.1406 95.4191 43.1437C95.4603 43.1468 95.5004 43.1574 95.5371 43.1748C95.5738 43.1922 95.6064 43.216 95.633 43.245C95.6596 43.274 95.6797 43.3075 95.6921 43.3436L96.7517 46.4021L96.6714 46.8847L96.7491 46.9583L96.8544 46.3176L95.7947 43.2591C95.7825 43.223 95.7625 43.1894 95.7359 43.1604C95.7093 43.1313 95.6767 43.1075 95.6399 43.0902C95.6031 43.0729 95.563 43.0625 95.5217 43.0596C95.4805 43.0567 95.4391 43.0614 95.3999 43.0733V43.0733C95.3339 43.0921 95.2768 43.1308 95.2379 43.1831C95.2566 43.1723 95.2764 43.1634 95.2972 43.1566V43.1566Z" fill="white"/>
<path d="M96.2568 46.4865L96.8517 46.3128L96.7649 46.8388L96.7464 46.9535L96.5727 46.787L96.2568 46.4865Z" fill="#EFC8C4"/>
<path d="M96.5727 46.7869C96.5835 46.7754 96.5964 46.7656 96.6108 46.758C96.6194 46.7532 96.6291 46.7506 96.6391 46.7506C96.6491 46.7506 96.6589 46.7532 96.6674 46.758C96.6761 46.767 96.6832 46.7772 96.6885 46.7882C96.6964 46.8008 96.7074 46.8117 96.7207 46.8198C96.7339 46.828 96.749 46.8333 96.7648 46.8352L96.7464 46.9559L96.5727 46.7869Z" fill="#727A9C"/>
<path d="M95.1919 44.5115C95.1919 44.5115 97.3177 44.5006 96.8162 45.3283C96.3147 46.1559 95.5341 46.2573 95.5341 46.2573L95.1919 44.5115Z" fill="#FFB0B1"/>
</g>
<defs>
<linearGradient id="paint0_linear" x1="104.923" y1="87.5752" x2="104.923" y2="24.5523" gradientUnits="userSpaceOnUse">
<stop stop-color="#808080" stop-opacity="0.25"/>
<stop offset="0.54" stop-color="#808080" stop-opacity="0.12"/>
<stop offset="1" stop-color="#808080" stop-opacity="0.1"/>
</linearGradient>
<clipPath id="clip0">
<rect width="130" height="95" fill="white"/>
</clipPath>
</defs>
</svg>
