<svg width="130" height="95" viewBox="0 0 130 95" fill="none" xmlns="http://www.w3.org/2000/svg">
<g clip-path="url(#clip0)">
<path opacity="0.1" d="M75.7754 18.9473C68.1274 18.6488 60.8434 15.9376 53.8926 12.9772C46.9419 10.0168 40.0478 6.72284 32.583 5.15114C27.7818 4.14012 22.2904 3.99735 18.4227 6.82407C14.6992 9.54956 13.4962 14.2413 12.8498 18.5995C12.3629 21.8778 12.077 25.3275 13.4099 28.3969C14.3364 30.528 15.9789 32.319 17.1157 34.3606C21.0709 41.4624 18.275 50.2203 13.9901 57.1547C11.9813 60.4084 9.64739 63.5142 8.09582 66.9742C6.54425 70.4343 5.82695 74.4044 7.18473 77.9372C8.5295 81.4414 11.7355 84.0682 15.2085 85.9177C22.2621 89.6736 30.5706 90.7496 38.6782 91.3583C56.62 92.7067 74.6563 92.1227 92.6453 91.5387C99.3031 91.3219 105.989 91.1026 112.538 89.9722C116.175 89.344 119.93 88.3472 122.571 85.9423C125.922 82.8885 126.753 77.7166 124.506 73.8879C120.739 67.4648 110.326 65.8698 107.69 58.9756C106.241 55.182 107.729 50.9549 109.836 47.4364C114.354 39.8881 121.928 33.2652 122.326 24.6358C122.6 18.7098 118.959 12.7747 113.33 9.97006C107.43 7.03043 99.2463 7.40032 94.8953 12.266C90.4072 17.2705 82.5288 19.1978 75.7754 18.9473Z" fill="#FF4D85"/>
<path d="M20.2378 95C25.0157 95 28.889 94.1819 28.889 93.1727C28.889 92.1634 25.0157 91.3453 20.2378 91.3453C15.4599 91.3453 11.5866 92.1634 11.5866 93.1727C11.5866 94.1819 15.4599 95 20.2378 95Z" fill="#FF4D85"/>
<path d="M20.0924 93.8449C20.6485 93.8449 21.0993 93.1964 21.0993 92.3965C21.0993 91.5966 20.6485 90.9481 20.0924 90.9481C19.5364 90.9481 19.0856 91.5966 19.0856 92.3965C19.0856 93.1964 19.5364 93.8449 20.0924 93.8449Z" fill="#3F3D56"/>
<path d="M20.0924 92.0747C20.6485 92.0747 21.0993 91.4262 21.0993 90.6263C21.0993 89.8263 20.6485 89.1779 20.0924 89.1779C19.5364 89.1779 19.0856 89.8263 19.0856 90.6263C19.0856 91.4262 19.5364 92.0747 20.0924 92.0747Z" fill="#3F3D56"/>
<path d="M20.0924 90.3044C20.6485 90.3044 21.0993 89.6559 21.0993 88.856C21.0993 88.0561 20.6485 87.4076 20.0924 87.4076C19.5364 87.4076 19.0856 88.0561 19.0856 88.856C19.0856 89.6559 19.5364 90.3044 20.0924 90.3044Z" fill="#3F3D56"/>
<path d="M20.0924 88.5354C20.6485 88.5354 21.0993 87.8869 21.0993 87.087C21.0993 86.2871 20.6485 85.6386 20.0924 85.6386C19.5364 85.6386 19.0856 86.2871 19.0856 87.087C19.0856 87.8869 19.5364 88.5354 20.0924 88.5354Z" fill="#3F3D56"/>
<path d="M20.0924 86.7652C20.6485 86.7652 21.0993 86.1167 21.0993 85.3167C21.0993 84.5168 20.6485 83.8683 20.0924 83.8683C19.5364 83.8683 19.0856 84.5168 19.0856 85.3167C19.0856 86.1167 19.5364 86.7652 20.0924 86.7652Z" fill="#3F3D56"/>
<path d="M20.0924 84.9949C20.6485 84.9949 21.0993 84.3464 21.0993 83.5465C21.0993 82.7466 20.6485 82.0981 20.0924 82.0981C19.5364 82.0981 19.0856 82.7466 19.0856 83.5465C19.0856 84.3464 19.5364 84.9949 20.0924 84.9949Z" fill="#3F3D56"/>
<path d="M20.0924 83.2246C20.6485 83.2246 21.0993 82.5762 21.0993 81.7762C21.0993 80.9763 20.6485 80.3278 20.0924 80.3278C19.5364 80.3278 19.0856 80.9763 19.0856 81.7762C19.0856 82.5762 19.5364 83.2246 20.0924 83.2246Z" fill="#3F3D56"/>
<path d="M23.8633 69.6634C24.0012 69.4712 24.1268 69.2687 24.239 69.0573L21.592 68.5797L24.4541 68.603C24.7289 67.9469 24.8788 67.2361 24.8947 66.5142C24.9105 65.7922 24.792 65.0743 24.5463 64.4045L20.7069 66.5926L24.252 63.7374C23.9199 63.1083 23.4735 62.5611 22.9406 62.1297C22.4077 61.6983 21.7996 61.392 21.1542 61.2298C20.5089 61.0676 19.84 61.0531 19.1893 61.187C18.5386 61.3209 17.9199 61.6005 17.3718 62.0083C16.8237 62.4162 16.3579 62.9435 16.0034 63.5576C15.6488 64.1717 15.4131 64.8593 15.311 65.5777C15.2088 66.2961 15.2423 67.0299 15.4095 67.7335C15.5767 68.437 15.8739 69.0953 16.2826 69.6673C16.0682 69.9671 15.8836 70.2912 15.732 70.6342L19.1684 72.5939L15.5051 71.2441C15.2474 72.0791 15.1835 72.9715 15.3193 73.8404C15.4551 74.7093 15.7862 75.5273 16.2826 76.2201C15.7228 77.0017 15.3745 77.9406 15.2776 78.9294C15.1806 79.9182 15.339 80.917 15.7346 81.8116C16.1302 82.7061 16.747 83.4604 17.5145 83.9881C18.282 84.5158 19.1692 84.7957 20.0747 84.7957C20.9802 84.7957 21.8674 84.5158 22.635 83.9881C23.4025 83.4604 24.0193 82.7061 24.4148 81.8116C24.8104 80.917 24.9688 79.9182 24.8719 78.9294C24.775 77.9406 24.4267 77.0017 23.8668 76.2201C24.5358 75.2861 24.8996 74.1321 24.8996 72.9437C24.8996 71.7552 24.5358 70.6013 23.8668 69.6673L23.8633 69.6634Z" fill="#FF4D85"/>
<path opacity="0.1" d="M15.251 72.9378C15.2496 74.1264 15.6135 75.2806 16.2838 76.2136C15.7239 76.9952 15.3756 77.9341 15.2787 78.9229C15.1818 79.9117 15.3402 80.9105 15.7358 81.8051C16.1314 82.6996 16.7482 83.4539 17.5157 83.9816C18.2832 84.5093 19.1704 84.7892 20.0759 84.7892C20.9814 84.7892 21.8686 84.5093 22.6361 83.9816C23.4036 83.4539 24.0204 82.6996 24.416 81.8051C24.8116 80.9105 24.97 79.9117 24.8731 78.9229C24.7761 77.9341 24.4278 76.9952 23.868 76.2136C24.5108 75.3142 15.251 72.3447 15.251 72.9378Z" fill="black"/>
<path d="M62.1515 71.1209C62.2248 72.1592 62.5887 73.2338 63.3545 73.8464C64.1202 74.459 65.3386 74.4473 65.9235 73.6244C66.1199 73.3155 66.2644 72.9705 66.3501 72.6056C66.8429 70.8951 67.1926 69.0236 66.6526 67.3299C65.4343 67.2429 64.0221 66.6135 63.1075 67.7192C62.3689 68.6199 62.0664 69.9204 62.1515 71.1209Z" fill="#3F3D56"/>
<path d="M67.8071 60.6564C67.6452 62.1658 67.3699 63.6687 67.3983 65.1885C67.4089 65.7751 67.4656 66.3565 67.4668 66.9457C67.4689 68.4757 67.1019 69.979 66.4033 71.3026C66.3297 71.4582 66.2312 71.598 66.1126 71.7153C65.8325 71.9645 65.4106 71.9438 65.0963 71.753C64.7892 71.5432 64.5397 71.2458 64.3743 70.8925C63.4939 69.2364 63.4691 67.2235 63.1205 65.3455C62.8534 63.9088 62.3855 62.5162 62.2165 61.0626C62.1066 60.1268 62.1231 59.1729 61.9483 58.2489C61.8951 57.9698 61.7462 57.5506 61.6481 57.1392C61.5583 56.7719 61.5087 56.4111 61.6008 56.1632C61.7887 55.6558 62.4044 55.853 62.805 55.8842C64.2157 55.999 65.6324 55.9951 67.0426 55.8725C67.182 55.8608 67.3404 55.8543 67.4385 55.9633C67.4812 56.0184 67.5134 56.0824 67.533 56.1515C67.6453 56.489 67.7311 56.8363 67.7894 57.1898C67.9844 58.3202 67.93 59.5052 67.8071 60.6564Z" fill="#FABDBD"/>
<g opacity="0.1">
<path opacity="0.1" d="M67.2636 55.8725C67.1909 55.864 67.1176 55.864 67.0449 55.8725C66.369 55.9321 65.6919 55.962 65.016 55.9659C65.7652 55.9676 66.5144 55.9365 67.2636 55.8725Z" fill="black"/>
<path opacity="0.1" d="M65.3351 71.7529C65.028 71.5431 64.7784 71.2457 64.613 70.8925C63.7327 69.2364 63.7079 67.2235 63.3592 65.3455C63.0922 63.9088 62.6242 62.5162 62.4552 61.0626C62.3453 60.1268 62.3619 59.1729 62.187 58.2488C62.1338 57.9698 61.9849 57.5506 61.8868 57.1392C61.797 56.7719 61.7474 56.4111 61.8396 56.1632C61.8787 56.0616 61.9446 55.9751 62.0289 55.915C62.1131 55.8548 62.2118 55.8238 62.3122 55.8258C62.0133 55.8037 61.7214 55.8426 61.6032 56.1632C61.511 56.4111 61.5607 56.7719 61.6505 57.1392C61.7486 57.5506 61.8975 57.9698 61.9506 58.2488C62.1255 59.1729 62.109 60.1268 62.2189 61.0626C62.3879 62.5175 62.8558 63.9101 63.1229 65.3455C63.4715 67.2235 63.4963 69.239 64.3767 70.8925C64.5421 71.2457 64.7916 71.5431 65.0987 71.7529C65.2874 71.8676 65.5036 71.9156 65.718 71.8905C65.5837 71.8712 65.4538 71.8245 65.3351 71.7529V71.7529Z" fill="black"/>
</g>
<path d="M72.2751 68.616C71.5661 70.1734 71.6843 72.3798 71.6843 72.3798C71.8024 77.5712 69.9117 88.4731 69.9117 88.4731H68.2574C68.2574 88.4731 68.021 76.4031 68.2574 75.3648C68.4937 74.3266 68.1392 70.6926 67.7847 65.631C67.5212 61.8672 68.2385 58.4564 68.6237 56.96C68.756 56.4409 68.8482 56.1567 68.8482 56.1567C68.8482 56.1567 71.5661 51.744 73.1023 53.8205C73.4568 54.3033 73.6447 55.278 73.7097 56.5084C73.92 60.568 72.8187 67.4207 72.2751 68.616Z" fill="#FABDBD"/>
<path opacity="0.1" d="M73.7097 56.5083C73.6447 55.278 73.4592 54.302 73.1023 53.8205C72.7596 53.3585 72.3579 53.2183 71.9419 53.2793C72.2643 53.338 72.5533 53.5321 72.7478 53.8205C73.1023 54.3033 73.2902 55.278 73.3552 56.5083C73.5656 60.568 72.4642 67.4207 71.9206 68.616C71.2116 70.1734 71.3298 72.3798 71.3298 72.3798C71.4479 77.5712 69.5572 88.4731 69.5572 88.4731H69.9117C69.9117 88.4731 71.8025 77.5712 71.6843 72.3798C71.6843 72.3798 71.5661 70.1734 72.2751 68.616C72.8187 67.4207 73.9201 60.568 73.7097 56.5083Z" fill="black"/>
<path d="M67.3971 87.9994C67.2651 88.1132 67.1509 88.25 67.0591 88.4043C66.8476 88.843 67.1478 89.3673 67.4692 89.7165C67.7906 90.0656 68.1782 90.4394 68.1782 90.9364C68.1782 91.3362 67.9028 91.6788 67.5944 91.8916C67.429 92.0059 67.221 92.1512 67.2553 92.3667C67.2673 92.4212 67.2885 92.4727 67.3179 92.5185C67.5826 92.9637 68.0517 93.2245 68.5268 93.3232C69.0018 93.4218 69.4922 93.379 69.9755 93.3362C70.0479 93.339 70.1187 93.3122 70.174 93.2609C70.209 93.2091 70.2277 93.1463 70.2272 93.0818C70.2508 92.8066 70.2355 92.5159 70.3454 92.268C70.499 91.9293 70.8523 91.7567 71.0544 91.453C71.338 91.0377 71.299 90.4601 71.1914 89.9553C70.9551 88.856 70.4293 87.6022 69.6399 86.8404C68.7253 85.9657 68.008 87.3673 67.3971 87.9994Z" fill="#3F3D56"/>
<path d="M70.9776 22.5813C71.637 21.4989 71.4657 19.9856 70.7921 18.9084C70.1185 17.8312 69.0361 17.1537 67.9194 16.7163C66.4139 16.1271 64.7536 15.9259 63.2068 16.3685C61.9754 16.7202 60.8694 17.4561 59.7089 18.0245C57.6559 19.0306 55.4238 19.5184 53.1765 19.4522C50.6819 19.3756 47.9487 18.6735 45.8559 20.1712C42.0248 22.9083 43.7288 30.358 40.1045 33.4092C39.1273 34.2321 37.8971 34.5916 36.81 35.2262C35.7228 35.8609 34.6923 36.9654 34.7183 38.3177C34.7302 38.9666 34.9901 39.5857 35.3092 40.1347C36.6682 42.5007 39.2088 43.9647 41.753 43.9374C44.2972 43.9102 46.78 42.4241 48.2464 40.1373C48.614 39.5649 48.9377 38.9277 49.4707 38.5461C50.5342 37.7804 51.9357 38.3164 53.2049 38.4306C56.0303 38.6837 58.8569 36.3541 59.4194 33.2976C59.6558 31.9933 59.6144 30.4346 60.5704 29.6156C61.342 28.955 62.428 29.0965 63.4065 28.9836C65.1956 28.7798 66.6077 27.5559 67.5791 25.957C68.0246 25.2237 68.0766 24.3477 68.6839 23.7701C69.3386 23.1355 70.3513 23.604 70.9776 22.5813Z" fill="#3F3D56"/>
<g opacity="0.1">
<path opacity="0.1" d="M50.8131 19.7027C51.8493 19.7339 52.8857 19.6469 53.9056 19.4431C53.6244 19.4522 53.3408 19.4522 53.0583 19.4431C51.1002 19.3834 48.9956 18.9395 47.1687 19.4742C48.3741 19.4872 49.6208 19.6663 50.8131 19.7027Z" fill="black"/>
<path opacity="0.1" d="M47.1049 38.8044C46.572 39.186 46.2482 39.8232 45.8807 40.3956C44.7511 42.137 43.1002 43.3869 41.2165 43.927C41.3548 43.9335 41.493 43.9374 41.6325 43.9361C44.179 43.9089 46.6594 42.4228 48.1259 40.136C48.4934 39.5636 48.8172 38.9264 49.3502 38.5448L49.4423 38.4825C48.608 38.3566 47.7891 38.3125 47.1049 38.8044Z" fill="black"/>
<path opacity="0.1" d="M70.6728 18.9045C70.0004 17.8325 68.9168 17.1498 67.8001 16.7124C66.2946 16.1232 64.6343 15.922 63.0874 16.3646C63.052 16.3737 63.0177 16.3854 62.9834 16.3958C63.8615 16.4495 64.7278 16.6437 65.5548 16.972C66.6715 17.4094 67.7552 18.092 68.4275 19.1641C69.0999 20.2361 69.2725 21.7598 68.6131 22.837C67.9868 23.8636 66.974 23.3951 66.3111 24.0271C65.7037 24.6047 65.6517 25.4807 65.2062 26.214C64.3708 27.5858 63.208 28.6799 61.7604 29.0952C62.2579 29.0303 62.7825 29.0381 63.2789 28.981C65.068 28.7772 66.4801 27.5534 67.4515 25.9544C67.897 25.2211 67.949 24.3451 68.5563 23.7675C69.2193 23.1355 70.232 23.604 70.8583 22.5774C71.5189 21.495 71.3475 19.9765 70.6728 18.9045Z" fill="black"/>
<path opacity="0.1" d="M61.0348 29.2406C60.0623 29.3522 58.9763 29.2121 58.1987 29.8727C57.2427 30.6916 57.2888 32.2503 57.0478 33.5547C56.633 35.835 54.9479 37.7156 52.9473 38.4151L53.0879 38.4294C55.9133 38.6825 58.74 36.3528 59.3025 33.2964C59.5388 31.9921 59.4974 30.4333 60.4534 29.6144C60.673 29.434 60.9221 29.3018 61.1873 29.225C61.1341 29.2263 61.0856 29.2354 61.0348 29.2406Z" fill="black"/>
</g>
<path d="M89.587 17.935C89.587 17.935 86.751 24.1647 85.8056 26.5008C84.8602 28.8369 76.2338 32.3411 75.0521 32.4709C74.7351 32.5186 74.4399 32.6749 74.2084 32.9174C73.5407 33.5663 73.1614 34.6773 73.1614 34.6773C73.1614 34.6773 73.6341 38.1815 73.0432 44.0218C73.0314 44.1347 73.0208 44.2476 73.0113 44.3566C72.4961 49.914 73.575 51.2249 73.575 51.2249C73.575 51.2249 62.1125 56.0269 62.467 49.7972C62.5781 47.8362 62.5616 46.4033 62.4517 45.2054C62.3314 43.9791 62.1042 42.7683 61.7734 41.5896C61.4933 40.5137 61.1589 39.3339 60.8126 37.7272C60.646 36.9255 60.4264 36.1382 60.1556 35.3716C60.1473 35.3482 60.1391 35.3249 60.132 35.3028C59.5411 33.6922 58.9503 33.1717 58.6123 33.003C58.2932 32.8506 57.9891 32.6627 57.7048 32.4424C56.6129 31.5767 54.2696 29.6364 52.1827 27.3444C49.3466 24.2296 46.5105 16.8318 46.5105 16.8318C46.5105 16.8318 45.6833 12.5489 47.5741 9.0447C49.4648 5.5405 48.6376 15.9233 48.6376 15.9233C48.6376 15.9233 52.0645 20.9849 52.8917 23.3211C53.3171 24.5229 53.9931 25.1381 54.5461 25.4573C55.4598 25.9797 56.3346 26.5803 57.1624 27.2535C57.7218 27.7179 58.3097 28.1394 58.9219 28.5151C60.2431 29.2938 61.8254 30.1724 63.1441 30.4034C63.35 30.4408 63.5582 30.4603 63.7669 30.4618C63.8659 30.4653 63.9643 30.4437 64.0544 30.3987C64.1446 30.3537 64.2241 30.2865 64.2868 30.2023C64.6414 29.7441 64.6331 28.7578 64.5515 27.9466C64.508 27.5264 64.4433 27.1091 64.3577 26.6968C64.3577 26.6968 68.1983 24.0362 68.0801 27.2808C68.0618 27.6393 68.092 27.9989 68.1699 28.3476C68.2328 28.6678 68.3719 28.9638 68.5731 29.2055C68.7743 29.4472 69.0303 29.6259 69.315 29.7234C69.7761 29.8719 70.2641 29.8893 70.733 29.774C70.8792 29.7465 71.0204 29.6935 71.1513 29.6169C71.5058 29.3574 75.0509 28.1893 76.1145 28.0595C77.178 27.9297 82.4957 25.0745 82.4957 25.0745L88.286 16.2491C88.286 16.2491 88.1678 11.0577 90.5312 8.98111C92.8946 6.90455 89.587 17.935 89.587 17.935Z" fill="#FABDBD"/>
<g opacity="0.1">
<path opacity="0.1" d="M73.0113 43.5779C72.9081 44.6208 72.8627 45.6697 72.8754 46.7187C72.8873 46.0334 72.9286 45.2508 73.0113 44.3566C73.0208 44.2476 73.0314 44.1347 73.0432 44.0218C73.2499 42.023 73.3486 40.0126 73.3386 38.001C73.3204 39.7527 73.2218 41.5023 73.0432 43.2431C73.0361 43.356 73.0208 43.4689 73.0113 43.5779Z" fill="black"/>
<path opacity="0.1" d="M64.4807 26.6137C64.4015 26.6643 64.3625 26.6955 64.3625 26.6955C64.4773 27.2507 64.5532 27.8147 64.5894 28.3827C64.6132 27.7904 64.5768 27.1971 64.4807 26.6137V26.6137Z" fill="black"/>
<path opacity="0.1" d="M48.6931 15.2186C48.751 14.3101 48.8372 12.6813 48.8207 11.2329C48.8006 13.1693 48.6435 15.1446 48.6435 15.1446L48.6931 15.2186Z" fill="black"/>
<path opacity="0.1" d="M62.4753 49.6453C62.4753 49.6959 62.4753 49.7465 62.467 49.7971C62.1125 56.0268 73.575 51.2248 73.575 51.2248C73.441 51.0259 73.3398 50.8027 73.2761 50.5654C71.5496 51.2403 62.8735 54.3785 62.4753 49.6453Z" fill="black"/>
<path opacity="0.1" d="M89.5871 17.1563C89.5871 17.1563 86.751 23.3859 85.8056 25.7221C84.8603 28.0582 76.2338 31.5624 75.0521 31.6922C74.7352 31.7399 74.4399 31.8961 74.2084 32.1387C73.5407 32.7876 73.1614 33.8985 73.1614 33.8985C73.1614 33.8985 73.1898 34.1101 73.224 34.5124C73.3564 34.1789 73.6967 33.4131 74.2084 32.9174C74.4399 32.6748 74.7352 32.5186 75.0521 32.4709C76.2338 32.3411 84.8603 28.8369 85.8056 26.5008C86.751 24.1647 89.5871 17.935 89.5871 17.935C89.5871 17.935 91.5854 11.2705 91.3656 9.27701C91.1836 11.8312 89.5871 17.1563 89.5871 17.1563Z" fill="black"/>
<path opacity="0.1" d="M62.4517 44.4267C62.3314 43.2004 62.1042 41.9896 61.7734 40.8109C61.4933 39.735 61.1589 38.5552 60.8126 36.9485C60.646 36.1468 60.4264 35.3595 60.1556 34.5929C60.1473 34.5695 60.1391 34.5462 60.132 34.5241C59.5411 32.9135 58.9503 32.393 58.6123 32.2243C58.2932 32.0719 57.9891 31.884 57.7048 31.6637C56.6129 30.798 54.2696 28.8577 52.1827 26.5657C49.3466 23.4509 46.5105 16.0531 46.5105 16.0531C46.4057 15.4286 46.3472 14.7958 46.3356 14.1609C46.3068 15.0555 46.3654 15.9509 46.5105 16.8318C46.5105 16.8318 49.3466 24.2296 52.1827 27.3444C54.2696 29.6364 56.6129 31.5767 57.7048 32.4424C57.9914 32.6632 58.2978 32.8511 58.6194 33.003C58.9562 33.1718 59.5459 33.6922 60.1391 35.3028C60.1462 35.3249 60.1544 35.3482 60.1627 35.3716C60.4323 36.1384 60.6507 36.9256 60.8162 37.7272C61.1624 39.3339 61.4968 40.5137 61.7769 41.5896C62.1078 42.7683 62.3349 43.9791 62.4552 45.2054C62.5048 45.7479 62.5344 46.3384 62.5426 47.0029C62.557 46.143 62.5266 45.2828 62.4517 44.4267Z" fill="black"/>
</g>
<path d="M74.1553 38.7889C73.9749 39.1165 73.8169 39.4583 73.6826 39.8116C73.5041 40.3567 73.503 40.9498 73.4699 41.5273C73.4227 42.3378 73.3104 43.1422 73.1343 43.931C73.1058 44.0762 73.0663 44.2186 73.0161 44.3567C72.9808 44.4496 72.9343 44.5369 72.8778 44.6162C72.8148 44.7009 72.7408 44.7748 72.658 44.8356C72.5312 44.9284 72.3972 45.0088 72.2574 45.0757C70.6125 45.9193 68.8187 46.6642 67.0237 46.3735C66.2648 46.2278 65.5305 45.9565 64.8458 45.5688C64.1959 45.2223 63.4609 44.8109 62.7873 45.099C62.6839 45.1567 62.5725 45.1948 62.4576 45.2119C62.4354 45.2124 62.4132 45.2102 62.3914 45.2055C62.1692 45.1587 62.1692 44.3359 62.1184 44.0932C61.9246 43.1613 61.8951 42.406 61.7793 41.5961C61.7177 41.1483 61.6225 40.7068 61.4945 40.2762C61.0218 38.7058 60.8788 37.0316 60.8788 35.3859C60.8788 35.3041 60.3471 35.3859 60.1698 35.3781C60.1249 35.3781 60.1001 35.3703 60.1107 35.3535C60.121 35.3373 60.1329 35.3225 60.1462 35.3093C60.2081 35.2542 60.2803 35.2147 60.3577 35.1938L60.4971 35.1484C61.2274 34.9213 62.0334 34.8265 62.5793 34.262C63.1465 33.6792 63.2883 32.7487 63.2635 31.8973C63.2564 31.6234 63.1347 30.9589 63.1548 30.4073C63.3607 30.4447 63.5689 30.4642 63.7775 30.4658C63.8765 30.4692 63.9749 30.4476 64.0651 30.4026C64.1553 30.3576 64.2348 30.2904 64.2975 30.2062C64.4946 30.6254 64.6652 31.059 64.808 31.504C65.0089 32.0465 65.1625 32.6176 65.4567 33.1082C65.9294 33.9077 66.8015 34.4333 67.6689 34.3528C68.5363 34.2724 69.3434 33.5404 69.4982 32.6007C69.6341 31.7766 69.3185 30.5903 69.3256 29.7338C69.7868 29.8823 70.2747 29.8997 70.7437 29.7844C70.7636 29.8373 70.7806 29.8915 70.7945 29.9466C71.0604 30.9486 71.4149 32.0985 72.3071 32.4541C72.8837 32.6825 73.5656 32.5112 74.0985 32.8434C74.1395 32.8693 74.179 32.8979 74.2167 32.9291C74.3397 33.0295 74.4457 33.153 74.5299 33.2938C74.7488 33.6907 74.8788 34.1391 74.9092 34.602C75.0456 36.0491 74.783 37.5078 74.1553 38.7889V38.7889Z" fill="#FF4D85"/>
<path opacity="0.1" d="M68.1699 28.3463C67.5804 28.5959 66.9457 28.6896 66.3171 28.6199C65.6886 28.5503 65.0837 28.3192 64.5515 27.9453C64.508 27.5251 64.4433 27.1078 64.3577 26.6955C64.3577 26.6955 68.1983 24.0349 68.0801 27.2795C68.0618 27.638 68.092 27.9976 68.1699 28.3463V28.3463Z" fill="black"/>
<path d="M66.72 28.3827C68.9389 28.3827 70.7377 26.4071 70.7377 23.97C70.7377 21.5329 68.9389 19.5573 66.72 19.5573C64.501 19.5573 62.7022 21.5329 62.7022 23.97C62.7022 26.4071 64.501 28.3827 66.72 28.3827Z" fill="#FABDBD"/>
<path d="M59.69 34.9368C59.69 34.9368 67.4892 29.4859 91.7141 35.3262C115.939 41.1665 130.001 36.4943 130.001 36.4943V42.5941C130.001 42.5941 102.822 45.8388 92.4231 42.5941C82.0241 39.3495 67.221 37.478 62.0369 42.502L59.69 34.9368Z" fill="#F86D70"/>
<path opacity="0.1" d="M59.69 34.9368C59.69 34.9368 67.4892 29.4859 91.7141 35.3262C115.939 41.1665 130.001 36.4943 130.001 36.4943V42.5941C130.001 42.5941 102.822 45.8388 92.4231 42.5941C82.0241 39.3495 67.221 37.478 62.0369 42.502L59.69 34.9368Z" fill="black"/>
<path d="M59.9263 35.1964C59.9263 35.1964 67.4892 29.7454 91.7141 35.5858C115.939 41.4261 129.765 36.7538 129.765 36.7538L129.883 42.3346C129.883 42.3346 102.94 45.5792 92.5413 42.3346C82.1423 39.09 67.4573 36.8291 62.2732 41.8531L59.9263 35.1964Z" fill="#F86D70"/>
<path d="M57.0832 43.5805C57.0832 43.5805 49.284 49.0314 25.0591 43.1911C0.834289 37.3508 2.01599 42.0231 2.01599 42.0231V35.9232C2.01599 35.9232 13.9512 32.6786 24.3501 35.9232C34.7491 39.1678 49.5522 41.0393 54.7364 36.0153L57.0832 43.5805Z" fill="#F86D70"/>
<path opacity="0.1" d="M57.0832 43.5805C57.0832 43.5805 49.284 49.0314 25.0591 43.1911C0.834289 37.3508 2.01599 42.0231 2.01599 42.0231V35.9232C2.01599 35.9232 13.9512 32.6786 24.3501 35.9232C34.7491 39.1678 49.5522 41.0393 54.7364 36.0153L57.0832 43.5805Z" fill="black"/>
<path d="M56.8469 43.321C56.8469 43.321 49.284 48.7719 25.0591 42.9316C0.834285 37.0913 2.25233 41.7635 2.25233 41.7635L2.13416 36.1828C2.13416 36.1828 13.833 32.9382 24.2319 36.1828C34.6309 39.4274 49.3159 41.6883 54.5 36.6643L56.8469 43.321Z" fill="#F86D70"/>
<path d="M63.2647 24.7007C63.1465 23.8908 62.9645 22.8707 63.5814 22.4074C63.8014 22.2609 64.0557 22.1886 64.3128 22.1997C65.5902 22.1854 66.8109 23.1627 68.0635 22.8772C68.4622 22.7854 68.8282 22.5692 69.1176 22.2544C69.407 21.9396 69.6074 21.5397 69.6948 21.1028C69.7821 20.6659 69.7527 20.2106 69.6101 19.7916C69.4675 19.3725 69.2176 19.0077 68.8907 18.7409C68.3979 18.3386 67.7752 18.1932 67.1725 18.057C65.5879 17.6988 63.9335 17.3419 62.3689 17.7974C60.8044 18.253 59.3745 19.7935 59.4998 21.5612C59.5589 22.4074 59.9512 23.1757 60.3612 23.8973C60.6732 24.445 61.888 27.0122 62.4777 27.0511C63.3096 27.1043 63.3462 25.2302 63.2647 24.7007Z" fill="#3F3D56"/>
<path d="M73.2205 49.0185C73.2205 49.0185 65.0668 51.2248 62.3489 49.0185C62.3489 49.0185 61.1672 54.0801 61.5217 56.6758C61.5217 56.6758 67.312 57.0652 67.9028 57.4545C67.9028 57.4545 68.021 56.4162 68.6118 56.9354C68.6118 56.9354 70.6207 54.3397 74.284 56.6758C74.284 56.6758 74.993 50.5759 73.2205 49.0185Z" fill="#FF4D85"/>
<path opacity="0.1" d="M68.893 18.7409C68.809 18.674 68.7209 18.6133 68.6295 18.5592C68.8734 18.8637 69.0402 19.2331 69.1133 19.6306C69.1864 20.028 69.1632 20.4396 69.0461 20.8242C68.929 21.2087 68.7221 21.5528 68.4459 21.8219C68.1698 22.0911 67.8342 22.276 67.4727 22.358C66.2201 22.6436 64.9994 21.6663 63.722 21.6806C63.4649 21.6695 63.2105 21.7417 62.9905 21.8882C62.3737 22.3515 62.5545 23.3717 62.6726 24.1815C62.7506 24.711 62.7187 26.5851 61.8892 26.5345H61.875C62.1031 26.8395 62.3158 27.0459 62.48 27.0537C63.3072 27.1043 63.3415 25.2367 63.2635 24.7007C63.1453 23.8908 62.9645 22.8707 63.5814 22.4074C63.8014 22.2608 64.0557 22.1886 64.3128 22.1997C65.5902 22.1854 66.8109 23.1627 68.0635 22.8772C68.4621 22.7854 68.8282 22.5692 69.1175 22.2544C69.4069 21.9396 69.6074 21.5397 69.6947 21.1028C69.7821 20.6659 69.7527 20.2105 69.6101 19.7915C69.4674 19.3725 69.2176 19.0077 68.8907 18.7409H68.893Z" fill="black"/>
</g>
<defs>
<clipPath id="clip0">
<rect width="130" height="95" fill="white"/>
</clipPath>
</defs>
</svg>
