<svg width="130" height="95" viewBox="0 0 130 95" fill="none" xmlns="http://www.w3.org/2000/svg">
<g clip-path="url(#clip0)">
<path d="M62.8954 83.9931C34.9145 81.9434 1.54606 61.0746 3.2449 39.5867C4.94374 18.0988 37.2614 -1.90464 65.2423 0.144972C93.2231 2.19459 109.33 42.3519 107.631 63.8397C105.932 85.3276 90.8762 86.0427 62.8954 83.9931Z" fill="#F2F2F2"/>
<path d="M65.242 87.4444C97.5005 87.4444 123.651 85.9023 123.651 84C123.651 82.0977 97.5005 80.5555 65.242 80.5555C32.9835 80.5555 6.83289 82.0977 6.83289 84C6.83289 85.9023 32.9835 87.4444 65.242 87.4444Z" fill="#3F3D56"/>
<path opacity="0.1" d="M65.2421 86.2222C92.7191 86.2222 114.994 85.2024 114.994 83.9444C114.994 82.6865 92.7191 81.6667 65.2421 81.6667C37.765 81.6667 15.4904 82.6865 15.4904 83.9444C15.4904 85.2024 37.765 86.2222 65.2421 86.2222Z" fill="black"/>
<path d="M24.4942 95C38.0219 95 48.9883 94.0797 48.9883 92.9444C48.9883 91.8092 38.0219 90.8889 24.4942 90.8889C10.9664 90.8889 0 91.8092 0 92.9444C0 94.0797 10.9664 95 24.4942 95Z" fill="#3F3D56"/>
<path opacity="0.1" d="M24.4941 94.2706C36.0168 94.2706 45.3577 93.662 45.3577 92.9113C45.3577 92.1606 36.0168 91.552 24.4941 91.552C12.9715 91.552 3.63055 92.1606 3.63055 92.9113C3.63055 93.662 12.9715 94.2706 24.4941 94.2706Z" fill="black"/>
<path d="M109.453 18H22.6472V83.5556H109.453V18Z" fill="#3F3D56"/>
<path d="M65.0625 26.9588H43.6476C43.6134 26.9589 43.5796 26.9524 43.548 26.9399C43.5164 26.9274 43.4877 26.9089 43.4635 26.8857C43.4393 26.8625 43.4201 26.8349 43.407 26.8045C43.3939 26.7741 43.3872 26.7415 43.3872 26.7086C43.3872 26.6757 43.3939 26.6432 43.407 26.6128C43.4201 26.5824 43.4393 26.5548 43.4635 26.5316C43.4877 26.5083 43.5164 26.4899 43.548 26.4774C43.5796 26.4648 43.6134 26.4584 43.6476 26.4585H65.0625C65.1313 26.4586 65.1973 26.485 65.2459 26.5319C65.2945 26.5788 65.3218 26.6424 65.3218 26.7086C65.3218 26.7749 65.2945 26.8384 65.2459 26.8853C65.1973 26.9322 65.1313 26.9587 65.0625 26.9588V26.9588Z" fill="#F2F2F2"/>
<path d="M88.5044 29.7105H54.8228C54.7539 29.7105 54.6878 29.6842 54.6391 29.6373C54.5903 29.5904 54.5629 29.5267 54.5629 29.4604C54.5629 29.394 54.5903 29.3304 54.6391 29.2835C54.6878 29.2366 54.7539 29.2102 54.8228 29.2102H88.5044C88.5386 29.2102 88.5724 29.2167 88.6039 29.2293C88.6354 29.2418 88.6641 29.2603 88.6882 29.2835C88.7123 29.3067 88.7315 29.3343 88.7445 29.3646C88.7576 29.395 88.7643 29.4275 88.7643 29.4604C88.7643 29.4932 88.7576 29.5258 88.7445 29.5561C88.7315 29.5865 88.7123 29.614 88.6882 29.6373C88.6641 29.6605 88.6354 29.6789 88.6039 29.6915C88.5724 29.7041 88.5386 29.7105 88.5044 29.7105V29.7105Z" fill="#F2F2F2"/>
<path d="M65.1664 32.4623H43.7516C43.6826 32.4623 43.6165 32.4359 43.5678 32.389C43.519 32.3421 43.4917 32.2785 43.4917 32.2121C43.4917 32.1458 43.519 32.0822 43.5678 32.0352C43.6165 31.9883 43.6826 31.962 43.7516 31.962H65.1664C65.2353 31.962 65.3015 31.9883 65.3502 32.0352C65.3989 32.0822 65.4263 32.1458 65.4263 32.2121C65.4263 32.2785 65.3989 32.3421 65.3502 32.389C65.3015 32.4359 65.2353 32.4623 65.1664 32.4623V32.4623Z" fill="#F2F2F2"/>
<path d="M88.5045 32.5123H67.0896C67.0207 32.5123 66.9546 32.486 66.9059 32.4391C66.8571 32.3921 66.8297 32.3285 66.8297 32.2622C66.8297 32.1958 66.8571 32.1322 66.9059 32.0853C66.9546 32.0384 67.0207 32.012 67.0896 32.012H88.5045C88.5734 32.012 88.6395 32.0384 88.6883 32.0853C88.737 32.1322 88.7644 32.1958 88.7644 32.2622C88.7644 32.3285 88.737 32.3921 88.6883 32.4391C88.6395 32.486 88.5734 32.5123 88.5045 32.5123V32.5123Z" fill="#F2F2F2"/>
<path d="M65.2184 35.214H43.8035C43.7346 35.214 43.6685 35.1877 43.6198 35.1408C43.571 35.0938 43.5436 35.0302 43.5436 34.9639C43.5436 34.8975 43.571 34.8339 43.6198 34.787C43.6685 34.7401 43.7346 34.7137 43.8035 34.7137H65.2184C65.2874 34.7137 65.3535 34.7401 65.4022 34.787C65.451 34.8339 65.4783 34.8975 65.4783 34.9639C65.4783 35.0302 65.451 35.0938 65.4022 35.1408C65.3535 35.1877 65.2874 35.214 65.2184 35.214V35.214Z" fill="#F2F2F2"/>
<path d="M65.2704 37.9658H43.8555C43.7866 37.9658 43.7205 37.9394 43.6717 37.8925C43.623 37.8456 43.5956 37.782 43.5956 37.7156C43.5956 37.6493 43.623 37.5856 43.6717 37.5387C43.7205 37.4918 43.7866 37.4655 43.8555 37.4655H65.2704C65.3393 37.4655 65.4054 37.4918 65.4541 37.5387C65.5029 37.5856 65.5303 37.6493 65.5303 37.7156C65.5303 37.782 65.5029 37.8456 65.4541 37.8925C65.4054 37.9394 65.3393 37.9658 65.2704 37.9658V37.9658Z" fill="#F2F2F2"/>
<path d="M74.9903 27.0088H68.8569C68.7879 27.0088 68.7218 26.9825 68.6731 26.9356C68.6244 26.8886 68.597 26.825 68.597 26.7587C68.597 26.6923 68.6244 26.6287 68.6731 26.5818C68.7218 26.5349 68.7879 26.5085 68.8569 26.5085H74.9903C75.0592 26.5085 75.1253 26.5349 75.174 26.5818C75.2228 26.6287 75.2502 26.6923 75.2502 26.7587C75.2502 26.825 75.2228 26.8886 75.174 26.9356C75.1253 26.9825 75.0592 27.0088 74.9903 27.0088V27.0088Z" fill="#F2F2F2"/>
<path d="M74.9903 35.214H68.8569C68.7879 35.214 68.7218 35.1877 68.6731 35.1408C68.6244 35.0938 68.597 35.0302 68.597 34.9639C68.597 34.8975 68.6244 34.8339 68.6731 34.787C68.7218 34.7401 68.7879 34.7137 68.8569 34.7137H74.9903C75.0592 34.7137 75.1253 34.7401 75.174 34.787C75.2228 34.8339 75.2502 34.8975 75.2502 34.9639C75.2502 35.0302 75.2228 35.0938 75.174 35.1408C75.1253 35.1877 75.0592 35.214 74.9903 35.214V35.214Z" fill="#F2F2F2"/>
<path d="M74.9903 37.9158H68.8569C68.8227 37.9158 68.7888 37.9094 68.7572 37.8969C68.7257 37.8843 68.6969 37.8659 68.6728 37.8427C68.6486 37.8194 68.6294 37.7918 68.6163 37.7614C68.6032 37.7311 68.5964 37.6985 68.5964 37.6656C68.5964 37.6327 68.6032 37.6001 68.6163 37.5697C68.6294 37.5394 68.6486 37.5118 68.6728 37.4885C68.6969 37.4653 68.7257 37.4469 68.7572 37.4343C68.7888 37.4218 68.8227 37.4154 68.8569 37.4154H74.9903C75.0244 37.4154 75.0583 37.4218 75.0899 37.4343C75.1215 37.4469 75.1502 37.4653 75.1744 37.4885C75.1986 37.5118 75.2178 37.5394 75.2309 37.5697C75.244 37.6001 75.2507 37.6327 75.2507 37.6656C75.2507 37.6985 75.244 37.7311 75.2309 37.7614C75.2178 37.7918 75.1986 37.8194 75.1744 37.8427C75.1502 37.8659 75.1215 37.8843 75.0899 37.8969C75.0583 37.9094 75.0244 37.9158 74.9903 37.9158V37.9158Z" fill="#F2F2F2"/>
<path d="M85.2818 37.9158H79.1485C79.0796 37.9156 79.0137 37.8892 78.9651 37.8423C78.9164 37.7954 78.8891 37.7319 78.8891 37.6656C78.8891 37.5993 78.9164 37.5358 78.9651 37.4889C79.0137 37.442 79.0796 37.4156 79.1485 37.4154H85.2818C85.316 37.4154 85.3499 37.4218 85.3814 37.4343C85.413 37.4469 85.4418 37.4653 85.4659 37.4885C85.4901 37.5118 85.5093 37.5394 85.5224 37.5697C85.5355 37.6001 85.5423 37.6327 85.5423 37.6656C85.5423 37.6985 85.5355 37.7311 85.5224 37.7614C85.5093 37.7918 85.4901 37.8194 85.4659 37.8427C85.4418 37.8659 85.413 37.8843 85.3814 37.8969C85.3499 37.9094 85.316 37.9158 85.2818 37.9158V37.9158Z" fill="#F2F2F2"/>
<path d="M49.729 29.7105H43.5956C43.5267 29.7105 43.4606 29.6842 43.4118 29.6373C43.3631 29.5904 43.3357 29.5267 43.3357 29.4604C43.3357 29.394 43.3631 29.3304 43.4118 29.2835C43.4606 29.2366 43.5267 29.2102 43.5956 29.2102H49.729C49.7979 29.2102 49.864 29.2366 49.9128 29.2835C49.9615 29.3304 49.9889 29.394 49.9889 29.4604C49.9889 29.5267 49.9615 29.5904 49.9128 29.6373C49.864 29.6842 49.7979 29.7105 49.729 29.7105V29.7105Z" fill="#F2F2F2"/>
<path d="M65.0884 67.4845H43.6736C43.6047 67.4845 43.5386 67.4581 43.4898 67.4112C43.4411 67.3643 43.4137 67.3007 43.4137 67.2343C43.4137 67.168 43.4411 67.1044 43.4898 67.0575C43.5386 67.0105 43.6047 66.9842 43.6736 66.9842H65.0884C65.1574 66.9842 65.2235 67.0105 65.2722 67.0575C65.3209 67.1044 65.3483 67.168 65.3483 67.2343C65.3483 67.3007 65.3209 67.3643 65.2722 67.4112C65.2235 67.4581 65.1574 67.4845 65.0884 67.4845Z" fill="#F2F2F2"/>
<path d="M64.9845 72.988H43.5696C43.5007 72.988 43.4346 72.9616 43.3859 72.9147C43.3371 72.8678 43.3098 72.8042 43.3098 72.7378C43.3098 72.6715 43.3371 72.6079 43.3859 72.561C43.4346 72.514 43.5007 72.4877 43.5696 72.4877H64.9845C65.0534 72.4877 65.1195 72.514 65.1683 72.561C65.217 72.6079 65.2444 72.6715 65.2444 72.7378C65.2444 72.8042 65.217 72.8678 65.1683 72.9147C65.1195 72.9616 65.0534 72.988 64.9845 72.988Z" fill="#F2F2F2"/>
<path d="M65.0365 75.7397H43.6216C43.5874 75.7398 43.5536 75.7334 43.522 75.7208C43.4904 75.7083 43.4617 75.6899 43.4375 75.6667C43.4133 75.6434 43.3941 75.6158 43.381 75.5854C43.3679 75.5551 43.3612 75.5225 43.3612 75.4896C43.3612 75.4567 43.3679 75.4241 43.381 75.3937C43.3941 75.3633 43.4133 75.3357 43.4375 75.3125C43.4617 75.2893 43.4904 75.2709 43.522 75.2583C43.5536 75.2458 43.5874 75.2394 43.6216 75.2394H65.0365C65.0707 75.2394 65.1045 75.2458 65.1361 75.2583C65.1677 75.2709 65.1964 75.2893 65.2206 75.3125C65.2448 75.3357 65.264 75.3633 65.2771 75.3937C65.2902 75.4241 65.297 75.4567 65.297 75.4896C65.297 75.5225 65.2902 75.5551 65.2771 75.5854C65.264 75.6158 65.2448 75.6434 65.2206 75.6667C65.1964 75.6899 65.1677 75.7083 65.1361 75.7208C65.1045 75.7334 65.0707 75.7398 65.0365 75.7397V75.7397Z" fill="#F2F2F2"/>
<path d="M74.1846 73.038H68.0512C67.9823 73.038 67.9162 73.0117 67.8674 72.9648C67.8187 72.9178 67.7913 72.8542 67.7913 72.7879C67.7913 72.7215 67.8187 72.6579 67.8674 72.611C67.9162 72.5641 67.9823 72.5377 68.0512 72.5377H74.1846C74.2535 72.5377 74.3196 72.5641 74.3684 72.611C74.4171 72.6579 74.4445 72.7215 74.4445 72.7879C74.4445 72.8542 74.4171 72.9178 74.3684 72.9648C74.3196 73.0117 74.2535 73.038 74.1846 73.038Z" fill="#F2F2F2"/>
<path d="M74.1846 75.7397H68.0512C67.9823 75.7397 67.9162 75.7134 67.8674 75.6665C67.8187 75.6196 67.7913 75.5559 67.7913 75.4896C67.7913 75.4232 67.8187 75.3596 67.8674 75.3127C67.9162 75.2658 67.9823 75.2394 68.0512 75.2394H74.1846C74.2535 75.2394 74.3196 75.2658 74.3684 75.3127C74.4171 75.3596 74.4445 75.4232 74.4445 75.4896C74.4445 75.5559 74.4171 75.6196 74.3684 75.6665C74.3196 75.7134 74.2535 75.7397 74.1846 75.7397V75.7397Z" fill="#F2F2F2"/>
<path d="M84.4762 73.038H78.3428C78.2739 73.038 78.2078 73.0117 78.1591 72.9648C78.1103 72.9178 78.0829 72.8542 78.0829 72.7879C78.0829 72.7215 78.1103 72.6579 78.1591 72.611C78.2078 72.5641 78.2739 72.5377 78.3428 72.5377H84.4762C84.5452 72.5377 84.6113 72.5641 84.66 72.611C84.7087 72.6579 84.7361 72.7215 84.7361 72.7879C84.7361 72.8542 84.7087 72.9178 84.66 72.9648C84.6113 73.0117 84.5452 73.038 84.4762 73.038V73.038Z" fill="#F2F2F2"/>
<path d="M88.5305 70.2363H54.8488C54.7799 70.2363 54.7138 70.2099 54.6651 70.163C54.6163 70.1161 54.589 70.0524 54.589 69.9861C54.589 69.9197 54.6163 69.8561 54.6651 69.8092C54.7138 69.7623 54.7799 69.7359 54.8488 69.7359H88.5305C88.5994 69.7359 88.6655 69.7623 88.7143 69.8092C88.763 69.8561 88.7904 69.9197 88.7904 69.9861C88.7904 70.0524 88.763 70.1161 88.7143 70.163C88.6655 70.2099 88.5994 70.2363 88.5305 70.2363V70.2363Z" fill="#F2F2F2"/>
<path d="M49.755 70.2363H43.6216C43.5527 70.2363 43.4866 70.2099 43.4378 70.163C43.3891 70.1161 43.3617 70.0524 43.3617 69.9861C43.3617 69.9197 43.3891 69.8561 43.4378 69.8092C43.4866 69.7623 43.5527 69.7359 43.6216 69.7359H49.755C49.8239 69.7359 49.89 69.7623 49.9388 69.8092C49.9875 69.8561 50.0149 69.9197 50.0149 69.9861C50.0149 70.0524 49.9875 70.1161 49.9388 70.163C49.89 70.2099 49.8239 70.2363 49.755 70.2363V70.2363Z" fill="#F2F2F2"/>
<path d="M88.5305 78.5415H54.8488C54.8147 78.5416 54.7808 78.5352 54.7492 78.5226C54.7176 78.5101 54.6889 78.4917 54.6647 78.4684C54.6405 78.4452 54.6213 78.4176 54.6082 78.3872C54.5952 78.3568 54.5884 78.3243 54.5884 78.2914C54.5884 78.2585 54.5952 78.2259 54.6082 78.1955C54.6213 78.1651 54.6405 78.1375 54.6647 78.1143C54.6889 78.0911 54.7176 78.0726 54.7492 78.0601C54.7808 78.0476 54.8147 78.0411 54.8488 78.0412H88.5305C88.5994 78.0412 88.6655 78.0676 88.7143 78.1145C88.763 78.1614 88.7904 78.225 88.7904 78.2914C88.7904 78.3577 88.763 78.4213 88.7143 78.4683C88.6655 78.5152 88.5994 78.5415 88.5305 78.5415V78.5415Z" fill="#F2F2F2"/>
<path d="M49.755 78.5415H43.6216C43.5874 78.5416 43.5536 78.5352 43.522 78.5226C43.4904 78.5101 43.4617 78.4917 43.4375 78.4684C43.4133 78.4452 43.3941 78.4176 43.381 78.3872C43.3679 78.3568 43.3612 78.3243 43.3612 78.2914C43.3612 78.2585 43.3679 78.2259 43.381 78.1955C43.3941 78.1651 43.4133 78.1375 43.4375 78.1143C43.4617 78.0911 43.4904 78.0726 43.522 78.0601C43.5536 78.0476 43.5874 78.0411 43.6216 78.0412H49.755C49.7892 78.0411 49.823 78.0476 49.8546 78.0601C49.8862 78.0726 49.9149 78.0911 49.9391 78.1143C49.9633 78.1375 49.9825 78.1651 49.9956 78.1955C50.0087 78.2259 50.0154 78.2585 50.0154 78.2914C50.0154 78.3243 50.0087 78.3568 49.9956 78.3872C49.9825 78.4176 49.9633 78.4452 49.9391 78.4684C49.9149 78.4917 49.8862 78.5101 49.8546 78.5226C49.823 78.5352 49.7892 78.5416 49.755 78.5415Z" fill="#F2F2F2"/>
<path d="M59.9167 44.57L51.6002 52.475L59.9167 60.38L61.7878 58.5789L55.4986 52.525L61.8398 46.4211L59.9167 44.57Z" fill="#FF4D85"/>
<path d="M72.1834 44.57L80.4999 52.475L72.1834 60.38L70.3123 58.5789L76.6016 52.525L70.2603 46.4211L72.1834 44.57Z" fill="#FF4D85"/>
<path d="M24.9559 20.6667C25.5297 20.6667 25.9948 20.219 25.9948 19.6667C25.9948 19.1144 25.5297 18.6667 24.9559 18.6667C24.3821 18.6667 23.917 19.1144 23.917 19.6667C23.917 20.219 24.3821 20.6667 24.9559 20.6667Z" fill="#FF4D85"/>
<path d="M27.7263 20.6667C28.3 20.6667 28.7652 20.219 28.7652 19.6667C28.7652 19.1144 28.3 18.6667 27.7263 18.6667C27.1525 18.6667 26.6874 19.1144 26.6874 19.6667C26.6874 20.219 27.1525 20.6667 27.7263 20.6667Z" fill="#FF4D85"/>
<path d="M30.4967 20.6667C31.0704 20.6667 31.5356 20.219 31.5356 19.6667C31.5356 19.1144 31.0704 18.6667 30.4967 18.6667C29.9229 18.6667 29.4578 19.1144 29.4578 19.6667C29.4578 20.219 29.9229 20.6667 30.4967 20.6667Z" fill="#FF4D85"/>
<path opacity="0.1" d="M109.453 21.3333H22.6472V21.6667H109.453V21.3333Z" fill="black"/>
<path d="M130 67.4948C130 74.5805 125.624 77.0546 120.226 77.0546C114.827 77.0546 110.451 74.5805 110.451 67.4948C110.451 60.4092 120.226 51.3951 120.226 51.3951C120.226 51.3951 130 60.4092 130 67.4948Z" fill="#F2F2F2"/>
<path d="M119.87 75.9707L119.97 70.0406L124.136 62.7042L119.985 69.1103L120.03 66.4439L122.901 61.1362L120.042 65.7383L120.123 60.9427L123.198 56.717L120.136 60.1886L120.186 51.3951L119.869 63.0361L119.895 62.5559L116.769 57.9502L119.845 63.4778L119.553 68.8337L119.545 68.6914L115.941 63.8447L119.534 69.1937L119.497 69.8634L119.491 69.8736L119.494 69.9286L118.755 83.517H119.742L119.86 76.4983L123.445 71.1623L119.87 75.9707Z" fill="#3F3D56"/>
<path d="M14.1546 83.4546C13.8547 83.6153 13.5383 83.7457 13.2106 83.8438C12.6243 83.9979 11.9977 83.9414 11.4055 84.073C11.1631 84.1268 10.8992 84.2395 10.8221 84.4673C10.7655 84.6343 10.8271 84.8147 10.886 84.9809C11.5403 86.8276 11.9347 88.7883 12.9782 90.461C13.4168 91.1635 13.9611 91.7996 14.5934 92.3485C14.8307 92.5543 15.0995 92.7557 15.4171 92.7879C15.5635 92.8028 15.7113 92.7803 15.8457 92.7226C15.9802 92.6649 16.0964 92.5741 16.1827 92.4593C16.269 92.3446 16.3223 92.2099 16.3373 92.069C16.3522 91.928 16.3283 91.7858 16.2679 91.6566C16.1743 91.4565 16.0004 91.3015 15.8883 91.1104C15.7666 90.8671 15.6953 90.6033 15.6782 90.3337C15.5751 89.5439 15.4758 88.7184 15.7601 87.9709C15.9508 87.4695 16.3006 87.0421 16.592 86.5878C16.8834 86.1336 17.1255 85.6132 17.0606 85.083C17.0164 84.7211 16.833 84.39 16.6393 84.077C16.4452 83.7633 16.0616 82.9205 15.6716 82.8158C15.2669 82.7072 14.5076 83.2805 14.1546 83.4546Z" fill="#2F2E41"/>
<path d="M24.8246 89.8333C24.8308 90.012 24.8049 90.1904 24.7481 90.3606C24.626 90.6709 24.3232 90.8835 24.1667 91.1791C23.9491 91.5903 24.0478 92.0873 24.1919 92.5274C24.2823 92.8033 24.4008 93.0904 24.6436 93.2611C24.8511 93.3849 25.0871 93.4577 25.3308 93.473C27.4128 93.7503 29.5277 93.5912 31.6287 93.6493C32.0116 93.6599 32.417 93.6728 32.7513 93.4927C33.0856 93.3125 33.2922 92.8597 33.0649 92.5629C32.8607 92.2964 32.4571 92.2989 32.1135 92.2832C31.2187 92.2394 30.3666 91.9015 29.6994 91.326C29.5678 91.2178 29.4537 91.0913 29.3608 90.9508C29.2893 90.8261 29.2301 90.6952 29.1837 90.56C28.8892 89.792 28.5388 89.0451 28.1351 88.3246C28.0222 88.1229 27.8942 87.9129 27.6843 87.805C27.5306 87.7377 27.3638 87.7027 27.1949 87.7021C26.6713 87.6695 25.3153 87.4979 24.9104 87.8899C24.5362 88.252 24.8329 89.3734 24.8246 89.8333Z" fill="#2F2E41"/>
<path d="M28.0468 45.0772C29.894 45.0772 31.3915 43.6359 31.3915 41.8578C31.3915 40.0798 29.894 38.6384 28.0468 38.6384C26.1996 38.6384 24.7022 40.0798 24.7022 41.8578C24.7022 43.6359 26.1996 45.0772 28.0468 45.0772Z" fill="#FBBEBE"/>
<path d="M25.0265 44.5162C24.8276 45.0289 24.4902 45.5103 23.9991 45.7862L28.6251 46.6945C28.4573 46.0446 28.4352 45.3678 28.5602 44.7091C28.6061 44.5496 28.6156 44.3825 28.5879 44.2192C28.5009 43.8961 28.1231 43.7406 27.7851 43.6664C26.9408 43.4812 26.1942 43.3818 25.4096 43.0229C25.1698 43.4181 25.2034 44.0606 25.0265 44.5162Z" fill="#FBBEBE"/>
<path d="M23.9605 44.5808C24.4582 44.364 25.0003 44.2585 25.5464 44.2723C26.0924 44.286 26.6281 44.4186 27.1133 44.6601C27.7064 44.9609 28.1975 45.415 28.68 45.863C29.1247 46.276 29.5991 46.7488 29.6306 47.3428C29.6459 47.6306 29.5526 47.912 29.5055 48.1966C29.4208 48.7851 29.5285 49.3844 29.8135 49.9114C30.0985 50.4383 30.5468 50.8669 31.0962 51.1377C31.4637 51.7269 31.5395 52.4408 31.5451 53.1281C31.5665 55.7321 30.713 58.3682 31.3223 60.9054C31.4654 61.5011 31.6873 62.078 31.8109 62.6777C31.9709 63.4545 31.963 64.2532 32.0468 65.041C32.1376 65.8942 32.3358 66.7335 32.637 67.5405C32.4357 67.8487 32.0167 67.9669 31.6394 67.942C31.2621 67.917 30.9093 67.7594 30.5726 67.5935C28.9423 66.7905 27.4491 65.7316 25.7605 65.0491C24.6434 64.5976 23.4533 64.3164 22.3696 63.7949C21.2859 63.2734 20.278 62.4458 19.9466 61.324C19.8033 60.839 19.7945 60.3279 19.7867 59.8237C19.7537 57.6999 19.7231 55.553 20.2034 53.4799C20.6269 51.6517 21.4433 49.9028 21.6214 48.0376C21.6794 47.4305 21.6806 46.7805 22.033 46.2739C22.5312 45.5578 23.6067 45.3724 23.9605 44.5808Z" fill="#2F2E41"/>
<path d="M26.1446 41.9033C26.3417 41.6558 26.7218 41.6221 27.0367 41.6953C27.3515 41.7685 27.6418 41.9247 27.9598 41.984C28.0321 42.0038 28.1079 42.0088 28.1823 41.9987C28.2567 41.9887 28.3281 41.9638 28.3919 41.9256C28.5031 41.8202 28.5696 41.6788 28.5784 41.5289C28.6898 40.891 28.7158 40.242 28.6558 39.5977C28.6393 39.5074 28.6456 39.4145 28.6742 39.3269C28.7529 39.1443 28.9931 39.1008 29.1892 39.0423C29.5129 38.937 29.7909 38.7309 29.9793 38.4566C30.1677 38.1823 30.2558 37.8554 30.2296 37.5275C30.2247 37.3702 30.1561 37.221 30.0384 37.1119C29.9027 37.0055 29.7129 36.9989 29.5379 36.9976C28.6388 36.9906 27.7397 36.9908 26.8406 36.9982C26.5078 37.0009 26.1583 37.0088 25.8699 37.1685C25.6566 37.2866 25.498 37.4766 25.3065 37.6253C24.8071 38.0132 24.1316 38.0922 23.5241 38.291C23.2275 38.3723 22.9582 38.5269 22.7429 38.7394C22.5408 38.9616 22.4437 39.2919 22.5706 39.5608C22.6357 39.6728 22.7085 39.7806 22.7884 39.8834C23.1468 40.435 22.9082 41.1504 22.9617 41.799C23.0285 42.6088 24.2736 43.9225 25.1178 44.1141C26.4808 44.4235 25.6934 42.4349 26.1446 41.9033Z" fill="#2F2E41"/>
<path d="M24.2564 77.4092C24.3424 78.0005 24.4527 78.5938 24.4233 79.1902C24.3821 80.0228 24.0701 80.8251 24.0125 81.6568C23.9694 82.278 24.069 82.9059 23.9794 83.5225C23.922 83.9173 23.7882 84.2979 23.7054 84.6885C23.5743 85.325 23.578 85.9804 23.7163 86.6156C23.8546 87.2507 24.1247 87.8524 24.5104 88.3846C24.567 88.4757 24.6476 88.5509 24.7439 88.6025C24.8364 88.6355 24.9353 88.6481 25.0334 88.6394C26.0069 88.6203 26.9778 88.5354 27.9389 88.3852C28.0093 88.3824 28.0759 88.3541 28.1255 88.306C28.1471 88.2741 28.161 88.2378 28.166 88.2C28.3442 87.3182 27.9378 86.4341 27.8345 85.5413C27.7241 84.588 27.9618 83.6327 28.1976 82.7008C28.3046 82.241 28.4382 81.7874 28.5979 81.3421C28.7119 81.0424 28.8496 80.7509 28.9484 80.4462C29.0884 79.9676 29.1736 79.4757 29.2026 78.9793C29.2712 78.1959 29.3076 77.4108 29.3116 76.6239C29.335 75.8781 29.2705 75.1323 29.1194 74.4005C28.9027 73.4741 28.4587 72.6138 28.0187 71.7638C27.7834 71.8181 27.5625 71.9192 27.3702 72.0605C26.8031 72.414 26.2111 72.7289 25.5983 73.0028C25.1866 73.1869 24.3837 73.3176 24.1224 73.7012C23.8647 74.0795 24.031 74.8513 24.0507 75.2685C24.0845 75.9846 24.1531 76.6982 24.2564 77.4092Z" fill="#2F2E41"/>
<path opacity="0.1" d="M24.2564 77.4092C24.3424 78.0005 24.4527 78.5938 24.4233 79.1902C24.3821 80.0228 24.0701 80.8251 24.0125 81.6568C23.9694 82.278 24.069 82.9059 23.9794 83.5225C23.922 83.9173 23.7882 84.2979 23.7054 84.6885C23.5743 85.325 23.578 85.9804 23.7163 86.6156C23.8546 87.2507 24.1247 87.8524 24.5104 88.3846C24.567 88.4757 24.6476 88.5509 24.7439 88.6025C24.8364 88.6355 24.9353 88.6481 25.0334 88.6394C26.0069 88.6203 26.9778 88.5354 27.9389 88.3852C28.0093 88.3824 28.0759 88.3541 28.1255 88.306C28.1471 88.2741 28.161 88.2378 28.166 88.2C28.3442 87.3182 27.9378 86.4341 27.8345 85.5413C27.7241 84.588 27.9618 83.6327 28.1976 82.7008C28.3046 82.241 28.4382 81.7874 28.5979 81.3421C28.7119 81.0424 28.8496 80.7509 28.9484 80.4462C29.0884 79.9676 29.1736 79.4757 29.2026 78.9793C29.2712 78.1959 29.3076 77.4108 29.3116 76.6239C29.335 75.8781 29.2705 75.1323 29.1194 74.4005C28.9027 73.4741 28.4587 72.6138 28.0187 71.7638C27.7834 71.8181 27.5625 71.9192 27.3702 72.0605C26.8031 72.414 26.2111 72.7289 25.5983 73.0028C25.1866 73.1869 24.3837 73.3176 24.1224 73.7012C23.8647 74.0795 24.031 74.8513 24.0507 75.2685C24.0845 75.9846 24.1531 76.6982 24.2564 77.4092Z" fill="black"/>
<path d="M19.7346 64.7798C19.2904 65.9308 19.9433 67.1746 20.5105 68.2745C21.9079 70.984 22.8783 73.8753 23.8436 76.7542C23.9159 76.9698 23.9881 77.2051 23.9075 77.418C23.8379 77.5692 23.7249 77.6982 23.5818 77.7899C22.9163 78.2764 22.0688 78.4497 21.276 78.7043C20.5099 78.9504 19.7761 79.2815 19.0894 79.6909C18.515 80.0336 17.9768 80.4291 17.4397 80.824L15.7299 82.0809C15.6192 82.1529 15.5225 82.2431 15.4441 82.3472C15.2792 82.5963 15.3467 82.9214 15.4288 83.2059C15.6463 83.9593 15.9262 84.6948 16.266 85.405C16.3219 85.5607 16.4283 85.695 16.5696 85.788C16.8364 85.926 17.1629 85.743 17.3666 85.5272C17.5704 85.3114 17.7467 85.0429 18.034 84.9502C18.3209 84.8577 18.6367 84.9698 18.9364 84.9293C19.4211 84.8638 19.7428 84.434 20.0922 84.1041C21.5196 82.7562 23.9026 82.854 25.4728 81.6622C25.6998 81.4667 25.9401 81.286 26.1921 81.1213C26.4575 80.9703 26.7585 80.8874 27.0339 80.7539C27.8716 80.3479 28.3982 79.5085 28.6803 78.6476C28.9624 77.7867 29.0428 76.8778 29.2456 75.9964C29.3504 75.5408 29.4883 75.09 29.5349 74.6255C29.5649 74.1934 29.5551 73.7597 29.5057 73.3293L28.9391 66.5831C28.893 66.0338 28.8468 65.4839 28.7573 64.9397C27.0746 64.9976 25.3932 65.0627 23.7096 65.0819C22.37 65.0971 21.0057 65.1873 19.7346 64.7798Z" fill="#2F2E41"/>
<path d="M19.116 66.3579C19.3443 66.7112 19.8998 66.7039 20.2824 66.5102C20.6649 66.3165 20.9621 65.991 21.3456 65.799C21.8609 65.5409 22.4706 65.5506 23.0513 65.5664C23.9705 65.5914 24.9011 65.618 25.7855 65.8604C26.7003 66.1113 27.5908 66.5941 28.5367 66.4978C28.7013 66.481 28.8813 66.4356 28.9709 66.3016C29.0234 66.2046 29.0481 66.0958 29.0424 65.9866L29.0734 65.1911C29.0923 65.0535 29.0695 64.9136 29.0076 64.7883C28.9282 64.684 28.8194 64.6038 28.6941 64.5573C27.3477 63.9299 25.8123 63.8131 24.3174 63.7638C23.5575 63.7387 22.7973 63.7284 22.0367 63.7329C21.3913 63.7367 20.6165 63.6468 19.9891 63.8128C19.147 64.0355 18.6888 65.6965 19.116 66.3579Z" fill="#2F2E41"/>
<path d="M27.5699 45.5251C25.8059 45.51 24.2073 44.3892 22.4433 44.3619C22.2302 44.3477 22.0167 44.3832 21.8209 44.4653C21.5751 44.5845 21.4135 44.8149 21.2268 45.0096C20.7052 45.5532 19.9499 45.8435 19.4141 46.3741C18.9117 46.8717 18.6323 47.613 18.8306 48.28C19.029 48.9471 19.7776 49.4587 20.4789 49.2984C20.7615 48.418 21.3446 47.6554 22.1339 47.134C22.5445 46.8804 22.9773 46.6618 23.4273 46.4804C24.2201 46.1347 25.1066 45.7823 25.9343 46.0415C26.2395 46.1524 26.5273 46.3035 26.7895 46.4904L28.1694 47.3826C28.0086 46.7722 27.8641 46.0876 27.5699 45.5251Z" fill="#FF4D85"/>
<path d="M20.2757 48.7082C20.0415 48.9895 20.3789 49.3971 20.3273 49.7541C20.293 49.9914 20.0901 50.1725 20.0057 50.3978C19.9182 50.6312 19.9646 50.8897 19.9314 51.1357C19.8981 51.3146 19.8489 51.4905 19.7842 51.6612C19.6356 52.1714 19.5319 52.6927 19.4741 53.2197L19.1653 55.4392C19.1118 55.7732 19.0791 56.11 19.0677 56.4478C19.0832 56.7003 19.0657 56.9537 19.0155 57.2019C18.9471 57.4445 18.7957 57.6567 18.6939 57.8881C18.592 58.1195 18.5448 58.3994 18.6824 58.613C18.2217 58.9824 18.0847 59.7079 18.4068 60.1947C18.4682 60.2705 18.5161 60.3555 18.5488 60.4464C18.5666 60.5733 18.5449 60.7025 18.4863 60.8175L18.1741 61.6182C18.0942 61.8232 18.0689 62.1353 18.2911 62.182C18.107 62.366 17.9637 62.584 17.8696 62.8228C17.824 62.9427 17.8103 63.0717 17.8299 63.198C17.8496 63.3243 17.9018 63.4438 17.9818 63.5456C18.0594 63.6112 18.1255 63.6883 18.1774 63.7741C18.208 63.8937 18.2001 64.0193 18.1548 64.1345C18.1081 64.3093 18.0991 64.4916 18.1284 64.6699C18.1576 64.8483 18.2245 65.019 18.3249 65.1715C18.4289 65.322 18.5761 65.4401 18.7487 65.5113C18.9213 65.5825 19.1117 65.6037 19.2966 65.5725C19.9212 65.4369 20.4824 65.2228 21.1121 65.3341C22.468 65.5735 23.8282 65.814 25.1414 66.2176C26.6402 66.6782 28.0914 67.3537 29.6578 67.4954C29.7609 67.5157 29.8681 67.4997 29.9599 67.4502C30.0397 67.3774 30.0893 67.2792 30.0996 67.1738C30.2609 66.4455 30.4223 65.7172 30.5837 64.9888C30.7788 64.1815 30.9274 63.3644 31.0287 62.5413C31.0838 62.0101 31.0995 61.4758 31.1152 60.9422L31.24 56.6943C31.2984 56.0682 31.2117 55.4375 30.986 54.8477L30.2683 52.6423C29.8587 51.3837 28.9192 50.2677 28.5846 48.9888C28.3729 48.1793 28.2165 47.3107 27.6487 46.6798C26.8393 45.7803 25.4388 45.6404 24.213 45.7951C23.6592 45.8649 23.1007 45.9855 22.6217 46.2619C22.0679 46.5816 21.6598 47.0851 21.2651 47.5771C20.9397 47.9825 20.6086 48.3085 20.2757 48.7082Z" fill="#FF4D85"/>
<path d="M23.1379 61.2026C23.2389 61.6218 23.451 62.0083 23.5808 62.42C23.7983 63.1099 23.7798 63.8529 23.9969 64.5429C24.0881 64.8325 24.2201 65.1105 24.2855 65.4065C24.4379 66.0966 24.2153 66.8105 23.9388 67.4638C23.6622 68.1172 23.3254 68.7614 23.2356 69.4615C23.1724 69.9547 23.2632 70.5116 23.6581 70.8316C24.0681 71.1639 24.6639 71.1414 25.1979 71.0971C25.3896 71.092 25.5788 71.0541 25.7567 70.9851C26.1651 70.7992 26.3371 70.3341 26.4326 69.909C26.7525 68.4847 26.6611 67.0083 26.5681 65.5538L26.325 61.75C26.2782 61.0177 26.228 60.2703 25.9936 59.5671C25.9083 59.3113 25.7597 58.7945 25.517 58.6311C25.2766 58.4694 24.59 58.4622 24.2924 58.4487C22.8959 58.3856 22.9115 60.2618 23.1379 61.2026Z" fill="#FBBEBE"/>
<path d="M24.6852 47.1582C24.4 47.0144 24.0406 47.0764 23.765 47.2364C23.4988 47.4119 23.2657 47.6298 23.0756 47.8807C22.4593 48.6048 21.8069 49.4356 21.8983 50.3676C21.9326 50.717 22.0716 51.0477 22.1658 51.3867C22.579 52.8733 22.1221 54.4456 22.1745 55.9837C22.2048 56.8724 22.4057 57.7466 22.6058 58.6147C22.6467 58.7919 22.7121 58.997 22.8901 59.0567C23.0239 59.1015 23.1683 59.0439 23.3007 58.9954C23.7939 58.82 24.3237 58.7614 24.8454 58.8247C25.367 58.888 25.8652 59.0713 26.2977 59.359C26.6284 59.1891 26.5045 58.652 26.4304 58.2983C26.2101 57.2475 26.5091 56.1634 26.8723 55.15C27.2355 54.1365 27.67 53.1244 27.7302 52.0539C27.7984 50.841 27.3806 49.6572 26.9683 48.5091C26.8784 48.2586 26.78 47.9958 26.5714 47.8227C26.3928 47.6948 26.1881 47.6048 25.9708 47.5586C25.533 47.434 25.0897 47.362 24.6852 47.1582Z" fill="#2F2E41"/>
</g>
<defs>
<clipPath id="clip0">
<rect width="130" height="95" fill="white"/>
</clipPath>
</defs>
</svg>
